<svg width="140" height="140" fill="none" xmlns="http://www.w3.org/2000/svg"><g clip-path="url(#clip0_8_1853)"><path d="M0 0h140v140H0V0z" fill="#FEFEFE"/><path d="M103.858 42.16c.087.005.201.002.287.023.19.044.214.081.327.228.116.684.215 2.904-.002 3.535-.067.018-.182.06-.256.059-.176-.002-.206-.037-.318-.155-.131-.808-.163-2.888-.038-3.69zM27.37 54.237c.217.068.289.066.433.247.15.728.44 4.025.398 4.675-.01.162-.073.263-.16.397-.186-.047-.306-.079-.465-.192-.296-.92-.316-2.734-.388-3.765-.031-.454-.135-.997.182-1.362zm76.572-6.609c.24.017.375.018.566.177.219.705.001 5.878-.162 6.803-.104.002-.234.015-.335-.006-.19-.04-.216-.066-.304-.222-.036-.787.085-6.243.235-6.752z" fill="#0C0C0C"/><path d="M102.947 107.363l16.149.025 4.616-.006c.901-.002 1.878-.085 2.765.064-.728.086-2.069.906-2.824 1.219-1.364.565-2.766 1.081-4.201 1.433-5.773 1.415-11.455.321-16.505-2.735z" fill="#393838"/><path d="M81.73 42.68c.902-.075 1.833.096 2.618.552a4.045 4.045 0 01.947.748 4.083 4.083 0 01.487.643 4.04 4.04 0 01.412.918 3.942 3.942 0 01.102.403 4.266 4.266 0 01-.05 1.9 4.268 4.268 0 01-.5 1.172c-.674 1.079-1.716 1.637-2.923 1.908-1.183.059-2.243-.116-3.212-.846a3.987 3.987 0 01-.6-.55 4.075 4.075 0 01-1.001-2.195c-.143-1.147.17-2.34.9-3.242.738-.91 1.7-1.278 2.82-1.41z" fill="#0C0C0C"/><path d="M82.03 43.368c.762.014 1.432.13 2.086.553a3.696 3.696 0 01.419.319 3.296 3.296 0 01.473.516 3.483 3.483 0 01.59 1.263 3.248 3.248 0 01.09.69 3.597 3.597 0 01-.051.691 3.488 3.488 0 01-.417 1.137 3.56 3.56 0 01-.19.29c-.64.887-1.5 1.254-2.543 1.422-.918.004-1.77-.215-2.51-.786a3.255 3.255 0 01-.504-.47 3.428 3.428 0 01-.675-1.197 3.384 3.384 0 01-.143-.675c-.092-.924.205-1.904.816-2.606.677-.778 1.572-1.058 2.56-1.147z" fill="#FEFEFE"/><path d="M32.588 118.569l16.694.004-.013 16.508-.957-.001-16.702-.003c-.061-5.497.005-11.003.014-16.501l.964-.007zm54.406-.006c2.02.069 4.063.012 6.085.014l11.655.012-.019 16.515-17.706.034-.015-16.575zm-24.754.006l5.465-.014c.047 2.331-.013 4.67-.016 7.003l.03 9.537-12.177-.018-5.633.005c.075-5.497.01-11.005.005-16.503 4.103.075 8.22.005 12.325-.01zm6.187-.033c5.96.123 11.93-.031 17.89.044l-.026 16.435-.054.09c-.505.092-1.089.016-1.605.012l-3.471-.019-12.733-.019-.001-16.543zM26.856 50.521c-.854-.483-1.802-.826-2.674-1.283-1.507-.79-2.95-1.879-4.24-2.987a22.079 22.079 0 01-1.963-1.91 22.416 22.416 0 01-4.501-7.458 22.286 22.286 0 01-.994-3.7 22.389 22.389 0 01-.28-2.173c-.453-6.193 1.44-12.153 5.517-16.853 3.852-4.44 9.517-7.413 15.402-7.812a21.996 21.996 0 0111.911 2.646 21.894 21.894 0 013.55 2.414c.138.115.274.231.41.349 3.544 3.122 6.203 7.373 7.209 12.005.391 1.804.532 3.643.649 5.482a72.09 72.09 0 01-12.551 4.808 72.111 72.111 0 01-7.883 1.735 46.384 46.384 0 01-3.764.48c-1.025.088-2.236-.011-3.214.306-.869.282-1.644 1.093-1.926 1.958-.32.984-.298 2.129-.363 3.157-.12 1.843-.2 3.689-.242 5.536-.025 1.097.006 2.207-.053 3.3z" fill="#3E9AFF"/><path d="M56.852 29.241c2.103-1.047 4.19-2.11 6.222-3.292 1-.581 2.974-2.026 3.907-2.344.628-.214 1.511-.242 2.14-.017.99.356 1.794 1.096 2.677 1.647.925.576 1.9 1.1 2.851 1.632a85.953 85.953 0 0012.053 5.554 64.765 64.765 0 0013.95 3.505c1.15.145 2.303.254 3.459.325.838.053 1.751-.026 2.562.21.772.225 1.565.903 1.879 1.657.51 1.226.357 3.196.392 4.532.137 5.237.177 10.537-.338 15.757a81.239 81.239 0 01-.63 4.817c-.144.873-.35 1.75-.468 2.626 5.923-1.87 12.289-1.556 17.836 1.353a23.13 23.13 0 012.432 1.457 21.79 21.79 0 01.919.666 26.91 26.91 0 01.885.71 26.614 26.614 0 01.849.753 23.68 23.68 0 011.2 1.206 21.263 21.263 0 01.749.852 21.506 21.506 0 011.043 1.346 26.414 26.414 0 01.638.938 23.028 23.028 0 011.134 1.965 23.977 23.977 0 01.933 2.068 24.898 24.898 0 01.389 1.065c.06.18.119.36.175.54a25.14 25.14 0 01.421 1.625 25.322 25.322 0 01.216 1.097c.031.184.06.368.088.553a25.822 25.822 0 01.182 1.668 26.041 26.041 0 01.054 1.117 20.86 20.86 0 010 1.12 20.835 20.835 0 01-.1 1.675 20.725 20.725 0 01-.135 1.11 20.672 20.672 0 01-.187 1.103 25.174 25.174 0 01-.382 1.634 24.966 24.966 0 01-.319 1.072 24.45 24.45 0 01-.793 2.092 23.581 23.581 0 01-.725 1.513c-2.007 3.772-4.45 6.383-8.059 8.701-.017.219-.003.282-.139.461l-.335.136c-.887-.149-1.864-.066-2.765-.064l-4.616.006-16.149-.025c-2.117-.166-4.63-.029-6.79-.031-3.595-.003-7.212-.089-10.805.023-3.942 3.507-9.605 6.779-14.377 9.052-1.023.487-2.08 1.046-3.16 1.392-1.374-.416-2.765-1.155-4.04-1.814-3.749-1.939-7.24-4.152-10.65-6.635-.887-.645-1.69-1.403-2.591-2.027-3.18-.07-6.375-.015-9.556-.017l-18.625-.004-6.97.002c-1.104.001-2.23.059-3.33.005-.24-.012-.45-.035-.656-.166-.09-.234-.102-.484-.11-.733-.123-3.499-.018-7.037-.02-10.54l-.005-6.24c-.001-1.048-.038-2.109.003-3.156.01-.25.018-.51.116-.742.2-.114.392-.138.62-.15.717-.035 1.456.004 2.176.002l5.007.003 16.224-.013c-.677-1.482-1.492-2.9-2.157-4.39-1.736-3.885-3.125-8.054-4.127-12.188-.182-.753-.63-1.979-.485-2.75.031-.168.071-.227.213-.317.304.128.41.516.494.813.395 1.412.654 2.87 1.045 4.29a73.496 73.496 0 004.166 11.28c.532 1.113 1.07 2.243 1.758 3.27 1.508.01 3.015.008 4.523-.005-6.897-11.729-9.197-23.047-9.196-36.533a97.278 97.278 0 01.087-5.121c.029-.705-.007-1.506.177-2.187.032-.122.107-.344.208-.428.435-.356 3.763-.62 4.537-.762 9.498-1.749 17.095-4.35 25.651-8.855 1.961-1.033 3.813-2.229 5.75-3.294 7.21 4.55 14.708 8.1 22.946 10.38 1.912.537 3.847.973 5.804 1.309 1.215.21 2.436.376 3.663.5.474.05.977.042 1.444.121.15.026.245.074.37.159.082.156.092.167.069.34-.114.11-.226.14-.378.164-.96.15-3.363-.27-4.392-.436-8.414-1.352-16.512-4.437-23.993-8.465-1.788-.963-3.595-1.924-5.26-3.091l.005 43.561 6.652-.004c.012-5.585-.091-11.191.02-16.775.393-.682.93-1.341 1.485-1.9a7.978 7.978 0 011.22-1.01 8.152 8.152 0 014.483-1.39c2.065.002 4.228.924 5.682 2.384.508.51 1.247 1.328 1.418 2.049.212.892.074 3.87.073 4.986l-.006 11.662 10.836.017c.985-2.777 1.701-5.687 2.263-8.577.233-1.205.432-2.415.596-3.632.083-.618.094-1.274.225-1.882.052-.24.136-.517.314-.696.107-.107.053-.075.218-.077.117.122.161.28.189.442.163.929-.4 3.67-.583 4.675-1.23 6.739-3.201 13.29-6.681 19.235-.629 1.073-1.35 2.104-2.036 3.14 1.563.032 3.13.013 4.694.017.362-.78.826-1.522 1.235-2.28a57.203 57.203 0 001.785-3.637c3.748-8.536 5.522-17.706 5.796-27 .098-3.218.109-6.437.034-9.655-.025-1.29.059-2.738-.183-4.003-.096-.501-.313-1-.677-1.365-.331-.332-.776-.494-1.227-.589-.974-.204-2.109-.14-3.108-.213a49.54 49.54 0 01-5.637-.72 72.785 72.785 0 01-9.333-2.48 74.331 74.331 0 01-9.103-3.74 89.42 89.42 0 01-6.615-3.546c-1.025-.616-2.025-1.445-3.088-1.97-.421-.209-.868-.283-1.336-.28-.582.005-1.11.288-1.588.598a80.8 80.8 0 01-20.36 9.573c-1.027.317-2.06.614-3.1.89a68.06 68.06 0 01-8.836 1.694c-.741.085-1.484.147-2.229.187-.608.029-1.263.004-1.859.137-.488.109-.948.406-1.284.771a2.053 2.053 0 00-.482.855c-.243.856-.232 1.826-.284 2.712-.108 1.69-.182 3.381-.223 5.073-.015 1.125.075 2.303-.035 3.42-.026.265-.047.579-.26.767-.09.08-.122.047-.233.034a1.394 1.394 0 01-.306-.315c.059-1.093.028-2.203.053-3.3.041-1.847.122-3.692.242-5.536.064-1.028.043-2.173.363-3.157.282-.865 1.057-1.676 1.926-1.958.978-.317 2.189-.218 3.214-.306a46.426 46.426 0 003.764-.48 72.437 72.437 0 0010.461-2.508 72.194 72.194 0 009.973-4.035z" fill="#0C0C0C"/><path d="M59.905 107.331c2.536-.076 5.096-.019 7.634-.017l.011 4.236c-2.611-1.179-5.265-2.618-7.645-4.219zM83.9 68.237c.143-.021.126-.03.275.028.144 1.515.059 3.162.013 4.686l-3.678-.008a.478.478 0 01-.251-.066c-.229-.778-.073-2.847-.067-3.77 1.241-.242 2.475-.587 3.709-.87z" fill="#FEFEFE"/><path d="M75.599 107.289c.105 0 .188.008.29.024-.303.572-6.331 3.641-7.331 4.122a.78.78 0 01-.228.053c-.166-.512-.041-3.431-.037-4.171l7.306-.028z" fill="#999"/><path d="M77.325 107.318c2.29-.043 4.588-.008 6.878.014-.814.706-1.707 1.332-2.571 1.974-4.258 3.073-8.938 5.794-13.823 7.741-5.075-2.003-11.872-6.122-16.042-9.712 1.338-.048 2.685-.027 4.025-.031.836-.002 1.835-.11 2.646.069.833.184 2.174 1.235 2.936 1.696.694.421 1.407.816 2.118 1.208 1.435.791 2.909 1.515 4.376 2.243 2.44-.995 4.774-2.331 7.032-3.68.812-.486 1.669-.952 2.425-1.522zm4.593-54.723c.053-.002.105-.006.158-.006 1.977.005 4.018.85 5.414 2.246.432.432.927 1.011 1.083 1.61.234.896.074 3.785.072 4.918l-.016 11.586h-3.685v-9.885c-.002-1.395.093-3.139.01-4.477-.013-.208-.068-.48-.187-.657-.091-.136-.16-.176-.316-.208l-.126.095a1.232 1.232 0 00-.15.493c-.093.99-.014 2.061-.012 3.057l.012 6.08-1.816.398-2.15.53.035-7.212c.003-.864.132-1.89-.015-2.733-.043-.248-.115-.474-.326-.625-.103.015-.135-.003-.207.084-.17.2-.23.497-.25.752-.038.483.005.99.006 1.476l.002 2.996-.009 9.827-3.714-.003.012-16.525c.23-.417.497-.807.803-1.172 1.401-1.67 3.231-2.46 5.372-2.645zM55.027 54.1a7.13 7.13 0 01.252-.007c2.71-.022 5.27.965 7.205 2.883 2.951 2.926 2.733 5.926 2.732 9.746l-.003 6.214h-4.79c-.012-2.83.105-5.686.017-8.511-.01-.342-.06-.54-.315-.782l-.131.01c-.197.238-.235.579-.263.876-.083.882-.011 1.83-.014 2.718l-.012 5.693-2.727-.001-5.912-.005c-.007-1.193.152-7.55-.1-8.183-.06-.153-.082-.165-.225-.226-.07.033-.086.035-.152.093-.107.096-.206.336-.229.476-.097.607.016 1.404.017 2.036l-.001 5.8-4.64-.019-.009-5.942c-.006-3.57-.22-6.545 2.285-9.449 1.8-2.086 4.287-3.224 7.015-3.42zM36.046 73.614c4.066-.089 8.156.014 12.224.02l19.276.019-.02 11.952c-8.596.018-17.21.087-25.806-.024-.526-.73-.95-1.556-1.388-2.342a55.935 55.935 0 01-4.286-9.625z" fill="#FEFEFE"/><path d="M68.282 73.679c10.596.11 21.201-.005 31.799.01-1.188 2.807-2.328 5.614-3.88 8.246-.722 1.271-1.571 2.46-2.36 3.69-3.15.091-6.326.019-9.48.02l-16.073-.02-.006-11.946z" fill="#393838"/><path d="M107.508 65.85c5.923-1.87 12.289-1.556 17.836 1.353a23.13 23.13 0 012.432 1.457 24.755 24.755 0 01.919.666 26.91 26.91 0 01.885.71 27.122 27.122 0 01.849.753 23.314 23.314 0 011.949 2.058 21.506 21.506 0 011.043 1.346 26.792 26.792 0 01.638.938 23.028 23.028 0 011.134 1.965 23.977 23.977 0 01.933 2.068 24.703 24.703 0 01.564 1.605 25.14 25.14 0 01.421 1.625 25.322 25.322 0 01.216 1.097c.031.184.06.368.088.553a25.822 25.822 0 01.182 1.668 26.01 26.01 0 01.054 1.117 20.863 20.863 0 010 1.12 20.81 20.81 0 01-.1 1.675 20.763 20.763 0 01-.135 1.11 20.729 20.729 0 01-.187 1.103 25.303 25.303 0 01-.382 1.634 25.14 25.14 0 01-.319 1.072 24.45 24.45 0 01-.793 2.092 23.581 23.581 0 01-.725 1.513c-2.007 3.772-4.45 6.383-8.059 8.701-.209-.605-.08-3.255-.08-4.065l.011-10.964c.003-1.8.114-3.658.001-5.45-.015-.243-.04-.465-.164-.678-.654-.248-9.429-.087-10.946-.086l-15.595-.022c3.555-5.999 6.034-12.889 7.33-19.734z" fill="#999"/><path d="M67.555 29.473c.111.125.066.565.066.736l-.012 42.745h-1.712c0-1.525.015-3.05.041-4.574.036-4.47.54-8.321-2.922-11.804a10.261 10.261 0 00-1.568-1.32 10.382 10.382 0 00-4.765-1.764 10.416 10.416 0 00-1.025-.06c-2.933-.003-5.587 1.025-7.665 3.12-2.811 2.834-2.951 5.564-2.942 9.312l.008 7.075c-3.094-.003-6.189-.059-9.282-.034a70.351 70.351 0 01-2.605-11.14 70.475 70.475 0 01-.68-6.837c-.222-4.358-.082-8.734.043-13.094 1.121-.226 2.289-.318 3.421-.485a76.145 76.145 0 008.288-1.75A85.259 85.259 0 0054.6 36.116a86.353 86.353 0 006.62-3.045 84.723 84.723 0 006.336-3.597z" fill="#393838"/><path d="M54.78 42.06c1.212-.08 2.313.149 3.317.86a4.979 4.979 0 011.938 2.777 4.952 4.952 0 01.105.482 4.928 4.928 0 01.026 1.202 4.924 4.924 0 01-.272 1.171 4.843 4.843 0 01-.693 1.263c-.82 1.09-1.993 1.653-3.321 1.845-1.216.08-2.368-.125-3.38-.84-1.047-.737-1.736-1.94-1.954-3.194-.214-1.232.066-2.58.8-3.6.824-1.146 2.068-1.75 3.435-1.966z" fill="#0C0C0C"/><path d="M54.992 42.744a4.53 4.53 0 012.759.725 4.108 4.108 0 01.996.973 4.141 4.141 0 01.478.874 3.788 3.788 0 01.18.572 4.087 4.087 0 01.073.401 4.009 4.009 0 01.037.416 4.274 4.274 0 01-.264 1.64 4.326 4.326 0 01-.482.924c-.738 1.067-1.734 1.505-2.965 1.726-1.086.071-2.115-.134-3.005-.792-.873-.646-1.43-1.65-1.59-2.717-.165-1.113.084-2.2.76-3.103.75-1.002 1.814-1.467 3.023-1.639z" fill="#FEFEFE"/><path d="M12.045 86.344l114.092.015.022 20.284-114.147-.07.033-20.228z" fill="#4B6495"/><path d="M104.316 94.418c.192-.014.373-.052.545.05.167.26.088.707.084 1.016-.286-.005-.587-.007-.864.072-.559.16-.806.525-1.066 1.018-.022 1.355-.004 2.713-.005 4.068-.319.004-.78.121-1.043-.089l-.014-.253c.015-1.915.011-3.83-.012-5.745l1.012-.004-.015 1.376c.117-.285.175-.583.332-.852.243-.416.603-.535 1.046-.657zm8.411-2.123l1.071-.002.019 8.23h-1.074l-.016-8.228zm-13.129.506c.156.168.055 1.449.052 1.736l1.312-.03-.001.98h-1.304c.002.713-.158 3.639.084 4.09.21.391.793.066 1.134.21.01.031.022.062.031.094.068.245.069.432-.051.66-.188.141-.284.135-.513.164a7.538 7.538 0 01-1.134-.065l-.019-.017c-.115-.098-.235-.196-.336-.309-.547-.607-.286-3.908-.275-4.805l-1.11.007-.011-1.025 1.127.013-.003-1.66c.34-.008.678-.028 1.017-.043zm-30.806-.454h1.148a506.418 506.418 0 00-.014 7.344l3.62-.023v.945l-4.72.003a562.763 562.763 0 01-.034-8.269zm47.89 2.139c1.071-.038 1.842-.03 2.717.675l-.37.764c-.287-.157-.566-.304-.884-.391-.458-.126-1.172-.228-1.597.046a.871.871 0 00-.402.55c.211.785 2.017.965 2.653 1.398.361.246.617.597.689 1.033.072.432-.022 1.027-.295 1.379-.382.492-.976.662-1.564.746-.594-.002-1.217-.077-1.775-.291-.329-.126-.645-.327-.778-.668-.103-.262.046-.512.145-.754.637.428 1.355.717 2.132.72.399.003.727-.052 1.007-.357.141-.153.206-.287.194-.5-.355-.74-1.694-.895-2.381-1.263-.415-.223-.793-.561-.923-1.029-.114-.407-.007-.878.198-1.239.272-.481.724-.681 1.234-.82zm-62.33-2.188l6.485.017.005.917-2.742.002c-.018 1.586.028 3.174.057 4.76l.014 2.623-1.16.002c-.006-2.462.02-4.928-.039-7.388l-2.623.003.003-.936zm39.783 2.123a5.31 5.31 0 01.406-.03c.538-.013 1.048.133 1.434.522.28.283.452.658.538 1.043.25 1.11.1 3.436.101 4.667l-1.066.003c.007-1.106.183-3.368-.122-4.324-.11-.34-.32-.647-.654-.797-.444-.198-.936-.065-1.371.087-.397.237-.6.463-.842.858-.054 1.382-.013 2.778-.014 4.162l-1.044.006c-.037-2.029.022-4.07.03-6.1l1.008-.022c-.002.218-.02.422.067.627.12-.007.916-.56 1.436-.68l.093-.022zm-13.913-2.249c.147-.011.295-.018.443-.02 1.24-.013 2.126.484 2.983 1.33l-.766.605a3.828 3.828 0 00-.673-.545c-.698-.422-1.497-.503-2.28-.296a2.94 2.94 0 00-.588.214 3.156 3.156 0 00-.654.428 3.217 3.217 0 00-.332.332 3.125 3.125 0 00-.522.848 3.575 3.575 0 00-.221.71 3.676 3.676 0 00.093 1.84c.263.824.835 1.54 1.623 1.913.832.395 1.639.316 2.48.017.36-.207.677-.45 1.004-.706.257.215.522.392.602.731-.02.15-.03.238-.121.366-.281.394-1.293.65-1.758.74-1.152.223-2.445-.028-3.405-.712-.903-.643-1.463-1.638-1.634-2.721-.183-1.163.075-2.408.774-3.362.736-1.003 1.739-1.529 2.952-1.712zm-39.615.186c1.683-.015 3.365-.017 5.048-.004v.955l-3.855.007c-.038.887-.016 1.782-.016 2.67l3.46-.008-.001.88c-.826-.003-2.693-.137-3.423.054l-.06.142v2.66c1.3-.008 2.6-.008 3.9 0l.009.899-5.06.001-.002-8.256zm6.371-.01l1.116-.01c1.466 2.136 2.856 4.323 4.412 6.396l.01-6.347 1.1-.027c-.03 2.75-.038 5.501-.022 8.252l-1.035-.01c-.72-.844-1.336-1.854-1.974-2.766-.858-1.222-1.807-2.436-2.535-3.739l.005 6.509-1.087.005.01-8.263zm16.519.005l1.037-.002c.291.883.717 1.757 1.067 2.621a353.9 353.9 0 002.308 5.634l-1.204.011c-.266-.737-.564-1.46-.86-2.186h-1.023c-.848.001-1.72-.04-2.563.06-.329.682-.565 1.408-.813 2.121h-1.204c1.036-2.77 2.175-5.505 3.255-8.259z" fill="#FEFEFE"/><path d="M64.005 93.898c.459.438 1.205 2.963 1.46 3.69l-1.463.027c-.468 0-.936-.005-1.403-.014.398-1.245.873-2.51 1.406-3.703z" fill="#4B6495"/><path d="M28.321 92.35l1.009-.022c.419 1.15.945 2.259 1.413 3.39.676 1.633 1.306 3.29 2.067 4.886l-1.238.006-.844-2.118-1.103-.003-2.64-.002c-.286.7-.545 1.41-.812 2.117l-1.088-.001c.296-1.203.901-2.416 1.363-3.568.625-1.56 1.196-3.146 1.873-4.684z" fill="#FEFEFE"/><path d="M28.745 93.817c.38.329 1.27 3.074 1.516 3.74l-1.31.001-1.562.005c.383-1.265.93-2.491 1.356-3.746z" fill="#4B6495"/><path d="M108.206 94.432c.6-.022 1.271.149 1.777.467.691.436 1.139 1.141 1.301 1.936.184.898.003 1.885-.53 2.635-.569.801-1.311 1.056-2.234 1.208-.767.017-1.476-.091-2.107-.562-.651-.486-1.043-1.225-1.152-2.023-.121-.89.07-1.875.648-2.58.597-.728 1.398-.98 2.297-1.08z" fill="#FEFEFE"/><path d="M108.057 95.437c.394-.026.768 0 1.129.174a1.97 1.97 0 011.004 1.177 2.45 2.45 0 01-.137 1.853c-.296.575-.711.845-1.308 1.048-.522.088-1.047.092-1.512-.191-.463-.282-.731-.758-.844-1.278-.139-.636-.076-1.352.287-1.906.335-.51.796-.758 1.381-.877z" fill="#4B6495"/><path d="M86.78 94.419c.76-.03 1.41.015 2.075.438.68.433 1.123 1.117 1.283 1.902.187.917.06 1.977-.476 2.756-.523.761-1.248 1.065-2.125 1.212-.682.024-1.314-.032-1.927-.369-.693-.381-1.174-1.036-1.378-1.795-.235-.874-.151-1.948.329-2.726.507-.822 1.305-1.22 2.219-1.418z" fill="#FEFEFE"/><path d="M86.862 95.428c.43-.034.803-.04 1.202.147.48.224.81.641.968 1.143.21.662.151 1.445-.182 2.057-.326.6-.789.863-1.413 1.063-.428.034-.83-.016-1.214-.22-.507-.27-.868-.762-1.016-1.314-.169-.632-.089-1.353.254-1.915.335-.55.792-.802 1.401-.96z" fill="#4B6495"/><path d="M19.555 92.354c1.456-.03 3.925-.32 5.067.657a2.45 2.45 0 01.846 1.759c.037.709-.195 1.447-.693 1.963-.649.672-1.47.8-2.356.824l-1.727.03c-.012 1.008.002 2.018.004 3.027l-1.122.003-.02-8.263z" fill="#FEFEFE"/><path d="M20.69 93.362c.913-.031 2.38-.237 3.115.376.339.282.48.705.512 1.133.04.543-.145.879-.494 1.278-.802.62-2.194.435-3.153.418a103.77 103.77 0 01.02-3.205z" fill="#4B6495"/><path d="M36.753 92.385c.547-.024 1.059.064 1.531.354a2.305 2.305 0 01.548.47 2.348 2.348 0 01.523 1.074c.13.626.031 1.308-.344 1.835-.413.581-.98.793-1.654.908.791 1.19 1.491 2.447 2.385 3.566l-1.37.005c-.365-.642-.786-1.259-1.183-1.882-.339-.511-.682-1.02-1.03-1.525l-1.395.006c-.04 1.137-.03 2.277-.035 3.414l-1.1.005c.023-2.731.027-5.462.01-8.193a97.978 97.978 0 003.114-.037z" fill="#FEFEFE"/><path d="M34.733 93.317c.879-.016 2.358-.208 3.074.363.253.202.38.478.414.796.062.59-.049.955-.409 1.418-.944.52-2.037.39-3.08.378v-2.955z" fill="#4B6495"/></g><defs><clipPath id="clip0_8_1853"><path fill="#fff" d="M0 0h140v140H0z"/></clipPath></defs></svg>