<svg width="140" height="140" fill="none" xmlns="http://www.w3.org/2000/svg"><g clip-path="url(#clip0_8_1801)"><path d="M0 0h140v140H0V0z" fill="#FEFEFE"/><path d="M69.276 58.96h4.883l-.002 1.36-1.219-.006-4.643.014.005-1.365.976-.003zm24.639 13.097l.973-.001c.035 4.957.034 9.913-.002 14.87l-1.021-.001c-.012-4.956.005-9.912.05-14.868zm-10.869-.003l8.685.001.004 1.13a314.055 314.055 0 00-3.883.007l.004 9.643-.007 4.06-.96.005-.026-13.7a135.83 135.83 0 00-3.83-.004l.013-1.142zm6.573-21.67l1.5-.001-.036 15.66-1.473-.005.009-15.654zM51.862 72.072l9.248-.003-.006 1.144-4.133.003-.002 9.601.002 4.203-.966-.005-.018-13.802-4.123-.016c-.01-.375-.003-.75-.002-1.125zm25.758-.202c.117-.01.227-.015.344-.013 1.594.03 2.875.735 3.936 1.883-.211.34-.395.698-.599 1.042-.56-.666-1.165-1.196-1.992-1.503a4.08 4.08 0 00-3.152.15c-1.25.613-2.032 1.848-2.46 3.132-.714 2.145-.607 4.928.415 6.96.543 1.08 1.38 2.018 2.564 2.392 1.015.32 2 .174 2.933-.29.769-.456 1.277-1 1.786-1.73l.642.952c-.03.046-.06.092-.092.136-.81 1.103-1.895 1.934-3.274 2.142-1.34.201-2.732-.103-3.815-.928-1.542-1.175-2.251-3.12-2.49-4.986-.31-2.426-.06-5.204 1.49-7.193.977-1.252 2.192-1.961 3.765-2.146zm-14.508.183h7.098l-.002 1.141-6.122-.023c-.02 1.904 0 3.81 0 5.714l5.567.007.001 1.024h-5.558l.003 1.578-.01 4.288 6.239.01v1.165l-7.234-.003.018-14.9zM58.28 50.374l1.541-.004c.052 4.696-.045 9.394-.018 14.09l6.937.007.005 1.569h-8.463c-.03-5.221-.03-10.442-.002-15.662zm17.841.069c3.646-.057 7.3-.012 10.947-.016l-.005 1.422c-1.578-.01-3.157-.012-4.736-.006l-.015 9.321-.007 4.895-1.503-.005.017-14.219c-1.565-.038-3.139-.006-4.705-.003-.01-.462.003-.927.007-1.389zm35.375 21.604l1.367-.005c.299.798.733 1.565 1.117 2.327a462.645 462.645 0 002.195 4.296l2.07 4.042c.383.756.727 1.575 1.179 2.288a765.11 765.11 0 01-.038-12.944l1.028-.004c.056 4.957-.005 9.93-.028 14.887l-1.223-.013c-.73-1.664-1.621-3.296-2.466-4.906l-2.121-4.108c-.7-1.331-1.301-2.791-2.133-4.041.102 1.707.044 3.441.043 5.152l.01 7.883-1.033.006.033-14.86zm.723-21.597h8.504l-.003 1.427-7.035.02.015 5.37c2.088.044 4.184.006 6.273.007l.001 1.443-6.279.003.001 1.402.004 4.445c2.417.045 4.842-.017 7.26 0 .018.507.009 1.018.012 1.526l-8.737-.018-.016-15.625zm-80.064-.106l9.097.036c.008.476-.006.954-.011 1.43l-7.548.003-.001 5.41 6.355-.004.009 1.504-6.35.002-.003.85v4.883c2.482.033 4.968.003 7.451.003l.003 1.576h-9.011l.01-15.693zM18.82 72.108c1.939-.01 5.213-.403 6.71 1.024.892.851 1.27 2.21 1.308 3.412.045 1.361-.27 2.91-1.255 3.914-1.119 1.143-2.689 1.152-4.171 1.15l-1.529.002.001 5.462-1.063-.02V72.108z" fill="#0C0C0C"/><path d="M20.052 73.178c1.46-.028 3.583-.306 4.746.74.705.632.935 1.579.978 2.49.06 1.273-.13 2.436-1.012 3.411-1.291 1.095-3.308.796-4.896.781-.005-.857-.097-7.001.042-7.375l.142-.047z" fill="#FEFEFE"/><path d="M29.634 72.136c1.59-.002 3.987-.238 5.453.282a3.26 3.26 0 011.903 1.749c.593 1.295.56 3.118.074 4.441-.458 1.248-1.258 2.004-2.449 2.56 1.03 1.995 2.292 3.958 3.494 5.855l-1.246.011-.736-1.216c-.874-1.493-1.73-2.998-2.644-4.466l-2.885.016c.012 1.884.013 3.769.004 5.654l-.966.004-.002-14.89z" fill="#0C0C0C"/><path d="M30.608 73.21c1.382-.016 3.658-.306 4.766.596.691.561.979 1.418 1.044 2.28.09 1.188-.137 2.33-.927 3.25-1.354 1.239-3.187.96-4.885.952l.002-7.079z" fill="#FEFEFE"/><path d="M95.147 50.37c.572-.007 1.145.007 1.717.012.505 1.279 1.177 2.52 1.771 3.76a269.66 269.66 0 012.993 6.454c.36-.91.815-1.788 1.221-2.678.82-1.8 1.651-3.594 2.492-5.383.337-.703.723-1.38 1.035-2.094h1.836l-.024 15.63h-1.455l-.007-11.008-.003-2.203c-.454.909-.822 1.872-1.255 2.794a520.478 520.478 0 00-3.454 7.311l-.825.011c-.329-1.08-.906-2.133-1.377-3.162-.968-2.116-2.02-4.577-3.196-6.545-.056 1.505-.018 3.024-.019 4.53l-.003 8.244h-1.479c.041-5.225.052-10.449.032-15.674zm-46.523-.015l1.304.015c.863 1.977 1.562 4.036 2.3 6.062l3.511 9.597-1.674.004a157.427 157.427 0 00-1.456-4.019l-2.767.003a264.97 264.97 0 00-3.927.019c-.528 1.323-.978 2.676-1.488 4.006l-1.642-.004c.7-2.023 1.483-4.013 2.235-6.018l3.604-9.666z" fill="#0C0C0C"/><path d="M49.245 52.413c.366.433 2.516 6.994 2.9 8.123l-2.824.007-2.901-.014c.848-2.731 1.89-5.412 2.825-8.116z" fill="#FEFEFE"/><path d="M134.533 9.807c.895.36 1.748.829 2.667 1.123-.046 2.723-.217 5.455-.353 8.176-.091 1.856-.061 3.765-.291 5.608-.647 5.188-3.09 10.465-6.862 14.099-2.005 1.931-4.332 3.024-6.809 4.185-.866.406-1.738.86-2.634 1.191.178-.261 2.46-1.354 2.929-1.658a21.41 21.41 0 002.904-2.282 23.88 23.88 0 00.758-.761 24.237 24.237 0 001.076-1.199 25.023 25.023 0 001-1.262 26.271 26.271 0 001.757-2.699 22.007 22.007 0 00.51-.945 28.32 28.32 0 00.471-.965 29.076 29.076 0 00.431-.984 29.083 29.083 0 00.389-1.001 23.069 23.069 0 00.349-1.016 30.391 30.391 0 00.306-1.03 30.445 30.445 0 00.263-1.04 23.46 23.46 0 00.221-1.052 31.426 31.426 0 00.177-1.059c.131-.966.156-1.953.209-2.927.096-1.766.168-3.534.216-5.303.074-2.4.247-4.798.316-7.2zM18.687 50.389c2.16.01 5.59-.295 7.555.501.965.391 1.678 1.056 2.077 2.023.57 1.379.503 3.21-.072 4.576-.54 1.285-1.478 1.892-2.721 2.396a180.284 180.284 0 013.815 6.148l-1.877.003-.33-.548c-1.034-1.77-2.045-3.65-3.239-5.313-1.216-.005-2.434.002-3.65.021l-.004 5.841h-1.58l.026-15.649z" fill="#0C0C0C"/><path d="M20.278 51.822c1.559.001 4.59-.292 5.853.741.629.515.905 1.301.988 2.088.125 1.18-.201 2.227-.94 3.148-1.473 1.297-4.108.928-5.944.916a480.01 480.01 0 01.043-6.893z" fill="#FEFEFE"/><path d="M120.403 4.147c.756.164 1.783.747 2.549 1.04a469.376 469.376 0 018.005 3.192c1.187.478 2.372.996 3.576 1.428-.069 2.401-.242 4.798-.316 7.2a195.38 195.38 0 01-.216 5.302c-.053.974-.078 1.96-.209 2.927a31.775 31.775 0 01-.177 1.06 31.216 31.216 0 01-.221 1.05 23.582 23.582 0 01-.263 1.042 30.714 30.714 0 01-.306 1.03 30.396 30.396 0 01-.349 1.015 22.851 22.851 0 01-.389 1 29.08 29.08 0 01-.661 1.47 28.32 28.32 0 01-.751 1.425 27.854 27.854 0 01-.548.923 26.708 26.708 0 01-2.209 3.038 25.442 25.442 0 01-1.834 1.96 21.353 21.353 0 01-2.904 2.282c-.469.304-2.751 1.396-2.929 1.658a2.834 2.834 0 01-.961.242c.061-.851.163-1.784.069-2.633 1.833-.902 3.555-2.008 5.056-3.402a23.19 23.19 0 004.958-6.718 22.43 22.43 0 00.752-1.707 24.049 24.049 0 00.614-1.761 23.528 23.528 0 00.65-2.72c.326-1.895.339-3.818.419-5.734.118-2.454.223-4.91.315-7.366-1.725-.779-11.479-4.534-11.851-4.91.157-1.068.101-2.25.131-3.333z" fill="#0273FB"/><path d="M102.689 71.863c1.099-.104 2.175.106 3.101.722 1.556 1.037 2.472 2.88 2.818 4.673.467 2.416.178 5.414-1.237 7.488-.871 1.275-1.994 2.107-3.519 2.394-1.094.1-2.163-.1-3.09-.709-1.56-1.023-2.472-3.08-2.828-4.849-.485-2.41-.168-5.28 1.24-7.35.876-1.288 1.981-2.08 3.515-2.37z" fill="#0C0C0C"/><path d="M102.764 73.018c.744-.054 1.379-.03 2.06.329 1.288.678 2.123 1.993 2.549 3.349.691 2.196.551 4.838-.53 6.89-.663 1.26-1.574 2.01-2.93 2.43-.928.126-1.764-.04-2.558-.546-1.323-.844-2.058-2.494-2.384-3.973-.458-2.083-.279-4.617.91-6.44.696-1.065 1.631-1.77 2.883-2.039z" fill="#FEFEFE"/><path d="M44.54 71.928c1.151-.111 2.24.04 3.222.686 1.585 1.041 2.53 3.001 2.897 4.81.495 2.435.204 5.455-1.219 7.551-.85 1.255-1.967 2.026-3.458 2.303-1.192.07-2.277-.09-3.285-.773-1.618-1.096-2.49-2.98-2.856-4.847-.485-2.476-.2-5.299 1.241-7.424.845-1.245 1.98-2.025 3.458-2.306z" fill="#0C0C0C"/><path d="M44.838 73.027c.83-.078 1.65.076 2.365.518 1.34.828 2.045 2.346 2.384 3.832.5 2.194.316 4.936-.929 6.868-.688 1.069-1.612 1.684-2.848 1.955-.999.046-1.775-.104-2.608-.687-1.367-.955-2.09-2.63-2.37-4.227-.371-2.125-.134-4.703 1.15-6.505.715-1.002 1.653-1.556 2.856-1.754z" fill="#FEFEFE"/><path d="M12.858 95.949c1.406-.643 2.91-1.153 4.347-1.736 3.688-1.5 7.397-2.989 11.051-4.57-.217 1.061-.072 2.184-.225 3.254a.736.736 0 00-.486.022c-1.47.505-2.922 1.25-4.369 1.835a311.848 311.848 0 00-4.887 2.003c-.833.347-1.773.659-2.544 1.121-.227.136-.267.223-.32.476-.132.64-.118 1.37-.16 2.024l-.252 3.908c-.155 2.303-.386 4.644-.366 6.953.04 4.473 1.287 8.875 3.827 12.576 1.756 2.561 4.26 5.103 7.193 6.262-.04 1.005-.07 2.009-.089 3.014-2.749-1.385-5.06-3.022-7.172-5.274-4.024-4.29-6.095-10.029-6.271-15.865-.063-2.07.133-4.168.246-6.235.191-3.255.35-6.51.477-9.768z" fill="#999"/><path d="M11.806 46.32c.063.623.025 1.273.025 1.9v3.39l.012 10.78-.01 19.878a789.3 789.3 0 01-.057 12.214c-.502-1.093-.91-2.225-1.29-3.365a62.362 62.362 0 01-2.855-11.6 62.695 62.695 0 01-.658-9.54A62.527 62.527 0 019.33 53.444c.671-2.383 1.452-4.868 2.475-7.123z" fill="#D4D3D3"/><path d="M127.998 46.268c.05.057.063.067.108.143.276.47.472 1.084.664 1.595.639 1.699 1.163 3.412 1.654 5.159a59.918 59.918 0 01.614 2.356 60.437 60.437 0 01.525 2.377 60.965 60.965 0 01.617 3.6 61.295 61.295 0 01.297 2.417 61.617 61.617 0 01.206 2.426c.026.405.049.81.068 1.216a70.548 70.548 0 01.066 2.434 61.765 61.765 0 01-.073 3.652 61.687 61.687 0 01-.164 2.429 61.472 61.472 0 01-.257 2.421 61.191 61.191 0 01-.556 3.61 60.719 60.719 0 01-.485 2.386 60.426 60.426 0 01-.575 2.367 59.741 59.741 0 01-.664 2.342 67.33 67.33 0 01-.753 2.316c-.326 1.153-.777 2.467-1.333 3.532l.011-32.686.003-10.229c.001-1.95-.045-3.914.027-5.863z" fill="#0273FB"/><path d="M14.193 41.082c.662-1.572 1.726-2.931 2.501-4.44 5.589-.067 11.185 0 16.774.002l36.42.009c-.006 1.12-.145 3.294.03 4.3.197.121.409.105.632.112-.485.127-2.061-.012-2.662-.011H57.804l-43.611.028z" fill="#D4D3D3"/><path d="M106.161 10.815l9.192-4.267c1.68-.78 3.427-1.51 5.05-2.401-.03 1.084.026 2.265-.131 3.332.372.377 10.126 4.132 11.851 4.911a670.392 670.392 0 01-.316 7.366c-.079 1.916-.092 3.839-.419 5.734a23.662 23.662 0 01-.397 1.823c-.078.3-.162.6-.253.897a22.747 22.747 0 01-1.365 3.468 23.412 23.412 0 01-2.456 3.956 22.74 22.74 0 01-1.835 2.11c-.218.222-.44.44-.667.652-1.501 1.394-3.223 2.5-5.056 3.402.094.85-.009 1.782-.07 2.633-2.171-.751-4.077-2.061-5.961-3.343-.691-.01-1.384-.008-2.074-.062.652-.043 1.319-.013 1.973-.012a18.31 18.31 0 01-1.404-1.343 18.271 18.271 0 01-1.256-1.481c-.405-.528-.774-1.087-1.201-1.596a39.604 39.604 0 01-.364-.567c-1.969-3.262-3.245-7.162-3.239-11 .004-2.545.292-5.129.192-7.667l-.003-.071c.225-.645.184-5.332.209-6.474z" fill="#FEFEFE"/><path d="M106.161 10.815l9.192-4.267c1.68-.78 3.427-1.51 5.05-2.401-.03 1.084.026 2.265-.131 3.332-.176-.03-.328-.043-.5.014-.509.17-1.021.44-1.513.66l-2.734 1.208-4.721 2.074c-.757.34-1.551.658-2.284 1.045-.116 2.443-.128 4.893-.202 7.338-.057 1.857-.246 3.788-.161 5.64.194 4.231 1.965 8.722 4.831 11.875 1.517 1.668 4.196 3.742 6.371 4.465.094.85-.009 1.782-.07 2.633-2.171-.751-4.077-2.061-5.961-3.343-.691-.01-1.384-.008-2.074-.062.652-.043 1.319-.013 1.973-.012a18.31 18.31 0 01-1.404-1.343 18.271 18.271 0 01-1.256-1.481c-.405-.528-.774-1.087-1.201-1.596a39.604 39.604 0 01-.364-.567c-1.969-3.262-3.245-7.162-3.239-11 .004-2.545.292-5.129.192-7.667l-.003-.071c.225-.645.184-5.332.209-6.474z" fill="#A3C6F9"/><path d="M120.325 8.08c3.721 1.64 7.557 3.025 11.273 4.673-.045 2.25-.196 4.502-.305 6.75-.085 1.764-.085 3.588-.327 5.337a21.579 21.579 0 01-.345 1.814 22.667 22.667 0 01-1.13 3.512c-.118.284-.242.566-.372.845a21.526 21.526 0 01-.844 1.641 22 22 0 01-1.512 2.319 23.898 23.898 0 01-1.161 1.435 24.27 24.27 0 01-1.275 1.335c-1.48 1.423-3.106 2.486-4.895 3.467-.057-1.084.002-2.2.021-3.287l.18-6.965c.17-7.627.401-15.252.692-22.875z" fill="#0273FB"/><path d="M109.011 12.89c.86-.469 1.779-.846 2.671-1.248l4.543-2.027c.91-.406 2.809-1.39 3.678-1.628.171-.047.275.016.422.094a1442.23 1442.23 0 00-.692 22.875l-.18 6.965c-.019 1.087-.078 2.203-.021 3.287-.062.039-.067.055-.137.056-.583.013-3.587-2.135-4.194-2.624a14.93 14.93 0 01-1.416-1.302c-2.781-2.914-4.643-7.132-4.956-11.129-.151-1.922.019-3.92.079-5.849l.203-7.47z" fill="#A3C6F9"/><path d="M28.256 89.643c1.747.569 3.775 1.6 5.509 2.353l9.044 3.876-.015.076c-.367 2.07-.408 4.488-.569 6.608-.278 3.672-.43 7.43-1.078 11.055-1.198 6.713-4.535 12.609-10.14 16.598a29.674 29.674 0 01-2.75 1.702c-.529.285-1.221.502-1.68.877l.062.066c-.335.127-.7.243-1.06.237.019-1.005.048-2.009.088-3.014-2.933-1.159-5.436-3.701-7.193-6.262-2.54-3.701-3.787-8.103-3.826-12.576-.02-2.309.21-4.65.365-6.953l.252-3.908c.042-.654.028-1.385.16-2.024.053-.253.094-.34.32-.476.771-.462 1.711-.774 2.544-1.121a311.452 311.452 0 014.888-2.003c1.446-.585 2.898-1.33 4.369-1.835a.736.736 0 01.485-.022c.153-1.07.008-2.193.225-3.254z" fill="#FEFEFE"/><path d="M28.256 89.643c1.747.569 3.774 1.6 5.508 2.353l9.044 3.876-.014.076c-.367 2.07-.409 4.488-.57 6.608-.278 3.672-.43 7.43-1.077 11.055-1.198 6.713-4.535 12.609-10.14 16.598a29.662 29.662 0 01-2.75 1.702c-.53.285-1.222.502-1.68.877l.061.066c-.334.127-.699.243-1.06.237.02-1.005.049-2.009.089-3.014.61-.133 1.241-.449 1.799-.72 2.623-1.275 4.824-3.085 6.675-5.325 5.154-6.239 5.022-12.388 5.56-20.004.063-.889.48-4.903.356-5.479-.047-.217-.254-.34-.435-.444-.94-.546-2.061-.929-3.06-1.371l-6.634-2.938c-.546-.243-1.355-.487-1.825-.842l-.072-.057c.153-1.07.008-2.193.225-3.254z" fill="#4E4E4E"/><path d="M15.947 98.445c2.213-1.136 5.123-2.17 7.478-3.129 1.247-.508 2.79-1.288 4.025-1.677a1.22 1.22 0 01.576-.047c-.246.8-.182 1.91-.233 2.76l-.363 5.938-1.38 21.373c-.038.692-.403 5.452-.27 5.786-1.197-.158-4.236-2.848-5.035-3.728-3.415-3.764-5.237-8.578-5.49-13.632-.091-1.813.074-3.638.19-5.447.189-2.731.356-5.463.502-8.197z" fill="#999"/><path d="M28.026 93.591a533.997 533.997 0 007.325 3.277c1.355.595 2.827 1.131 4.105 1.877-.088 2.523-.338 5.06-.5 7.581-.131 2.055-.21 4.126-.508 6.165-.763 5.216-3.007 9.711-6.866 13.323-1.626 1.521-3.694 2.873-5.803 3.635-.132-.334.233-5.094.271-5.786l1.38-21.373.363-5.938c.051-.85-.013-1.96.233-2.76z" fill="#4E4E4E"/><path d="M70.62 97.223c.884.163 3.433.043 4.501.044l11.259-.002 40.564-.038c-1.14 2.494-2.519 4.85-4.01 7.148-4.702 7.254-10.38 13.171-17.583 17.985l-.006-10.27c-.004-1.59.074-3.215-.002-4.8-.008-.158-.029-.285-.17-.38-.344-.234-.653.044-.902.269-2.531 2.29-5.098 4.404-8.016 6.195-8.058 4.946-16.257 7.222-25.662 7.544l.027-23.695z" fill="#0273FB"/><path d="M42.808 95.872c.924.404 1.934.788 2.799 1.306 1.498.137 3.056.04 4.563.043 2.867.022 5.734.025 8.601.009l7.201.032c1.312.004 2.653.055 3.96-.05l.688.01-.027 23.696c9.405-.322 17.604-2.598 25.662-7.544 2.918-1.791 5.485-3.905 8.016-6.195.249-.225.558-.503.902-.269.141.095.162.222.17.38.076 1.585-.003 3.21.002 4.8l.006 10.27c-.2.119-.397.236-.607.338-7.515 5.43-18.263 9.009-27.442 10.114-2.24.269-4.504.34-6.758.387-1.413.177-3.34-.022-4.79-.111a56.585 56.585 0 01-1.746-.135 56.422 56.422 0 01-1.74-.186 59.26 59.26 0 01-6.886-1.254 58.273 58.273 0 01-3.376-.929 57.474 57.474 0 01-3.316-1.125 59.412 59.412 0 01-9.47-4.515c-3.559 3.943-7.452 6.468-12.581 7.91l-.061-.066c.458-.375 1.15-.592 1.679-.877a29.688 29.688 0 002.75-1.702c5.605-3.989 8.942-9.885 10.14-16.598.647-3.625.8-7.383 1.078-11.055.16-2.12.202-4.537.57-6.608l.013-.076z" fill="#0C0C0C"/><path d="M43.855 114.469c5.805 2.965 11.704 5.421 18.192 6.433 2.624.409 5.231.569 7.88.694l-.013 11.004a51.018 51.018 0 01-3.93-.108 52.609 52.609 0 01-6.105-.717c-7.298-1.218-13.87-3.692-20.307-7.308 2.358-3.305 3.308-6.143 4.283-9.998z" fill="#FEFEFE"/><path d="M104.664 107.69c.035 3.442.048 6.883.04 10.325-.002 1.421-.181 3.325.04 4.683-7.515 5.43-18.263 9.009-27.442 10.114-2.24.269-4.504.34-6.758.386.077-1.372.029-2.769.032-4.145l.002-7.449c12.382-.083 25.206-5.285 34.086-13.914z" fill="#0273FB"/><path d="M45.607 97.178c1.498.137 3.056.04 4.563.043 2.867.022 5.734.025 8.601.009l7.201.032c1.312.004 2.653.055 3.96-.05-.08 2.536-.016 5.095-.021 7.633l.008 16.112a50.897 50.897 0 01-2.705-.114 55.315 55.315 0 01-4.038-.428 54.824 54.824 0 01-3.994-.733 53.7 53.7 0 01-3.927-1.034 52.64 52.64 0 01-5.092-1.836 55.72 55.72 0 01-1.242-.539c-1.697-.751-3.34-1.623-4.99-2.47.635-2.98.779-6.097 1.043-9.125.217-2.49.536-5.005.633-7.5z" fill="#D4D3D3"/><path d="M16.694 36.643c.915-1.803 2.209-3.52 3.437-5.12A63.925 63.925 0 0137.6 15.621a62.29 62.29 0 016.57-3.545 62.116 62.116 0 018.733-3.28 61.724 61.724 0 019.126-1.929 61.938 61.938 0 013.715-.383c1.29-.084 3.622-.348 4.791-.063 1.402.028 2.81.034 4.208.14 11.299.85 21.684 4.689 31.208 10.727l.003.071c.1 2.538-.188 5.122-.192 7.667-.006 3.838 1.27 7.738 3.239 11 .12.19.241.38.364.567.427.51.796 1.068 1.201 1.596a18.31 18.31 0 002.66 2.824c-.654-.001-1.321-.031-1.973.012l-26.976.059-8.595-.016c-1.692-.015-3.447-.148-5.133-.004-.223-.007-.435.01-.632-.112-.175-1.006-.035-3.18-.03-4.3l-36.42-.01c-5.59 0-11.185-.068-16.774 0z" fill="#0C0C0C"/><path d="M35.272 17.913c.007.006.015.011.02.019.156.25.061 12.608.063 14.236-1.25 1.243-2.49 2.472-3.586 3.855-4.59.05-9.187.004-13.779 0l-.06-.057c.002-.023.001-.046.005-.069.087-.49 1.314-2.092 1.652-2.563a62.553 62.553 0 017.022-8.273 62.518 62.518 0 014.862-4.338c1.224-.986 2.476-1.963 3.8-2.81z" fill="#FEFEFE"/><path d="M109.367 36.594c.427.51.795 1.068 1.2 1.596a18.495 18.495 0 002.66 2.824c-.653-.001-1.321-.031-1.973.012l-26.975.059-8.596-.016c-1.692-.015-3.447-.148-5.132-.004l-.005-4.427 26.307.01 8.056-.003c1.469 0 2.995.077 4.458-.051z" fill="#0273FB"/><path d="M67.895 7.01c.675-.038 1.353-.036 2.028-.046l.003 11.01c-1.866-.016-3.785.187-5.635.417-10.159 1.266-19.424 5.566-27.175 12.21-.376.338-.746.681-1.111 1.03-.036-4.749-.035-9.497.003-14.245C45.494 11.134 56.494 7.34 67.895 7.01z" fill="#FEFEFE"/><path d="M67.903 18.69c.663-.065 1.357-.041 2.025-.058l-.032 17.396-35.016.004-2.297-.005c.121-.16.248-.318.38-.47 1.744-2.006 3.745-3.857 5.798-5.543 8.471-6.951 18.253-10.578 29.142-11.323z" fill="#D4D3D3"/><path d="M70.536 6.422c1.402.028 2.81.034 4.209.14 11.298.85 21.683 4.689 31.207 10.727l.003.071c.1 2.538-.188 5.122-.192 7.667-.006 3.838 1.27 7.738 3.239 11-4.268.053-8.541.015-12.81.013l-25.64.013.006-18.77c.003-3.607.113-7.258-.022-10.86z" fill="#0273FB"/></g><defs><clipPath id="clip0_8_1801"><path fill="#fff" d="M0 0h140v140H0z"/></clipPath></defs></svg>