<svg width="141" height="140" fill="none" xmlns="http://www.w3.org/2000/svg"><g clip-path="url(#clip0_8_1738)"><path d="M.5 0h140v140H.5V0z" fill="#FEFEFE"/><path d="M84.395 48.452c.216-.012.416-.039.623.038.154.84.03 3.133.029 4.14l-.03 10.299a2.53 2.53 0 01-.5.006c-.028-.03-.065-.054-.085-.09-.123-.22-.037-12.91-.037-14.393zm-44.002.006c2.046-.032 4.096.002 6.143.002.717 0 1.82-.117 2.498-.004.187.032.238.134.33.284-.003.17.006.194-.092.33-.537.15-3.25.033-4.018.03l-.008 9.392c-.002 1.337.13 2.784-.016 4.108l-.089.067c-.203.006-.31.013-.497-.083-.161-.745-.029-3.226-.026-4.188l-.027-9.292c-1.352-.054-2.766.102-4.103-.055-.122-.162-.091-.396-.095-.591zm71.871-.04c.175.005.348.02.523.034.167.104 3.043 7.032 3.398 7.853 1.258-2.518 2.271-5.254 3.323-7.867l.671-.01a319.173 319.173 0 01-1.895 4.615c-.467 1.159-1.495 3.093-1.705 4.221-.288 1.553.096 3.75-.086 5.408-.141.128-.266.098-.45.112-.279-.408-.016-4.454-.143-5.37-.119-.861-.582-1.648-.939-2.432-.545-1.2-2.533-5.545-2.697-6.564zm-3.304-.131c1.146.017 1.929.377 2.773 1.135l-.293.54c-.262-.215-.522-.434-.821-.595-.757-.405-1.663-.55-2.489-.276-.842.28-1.446.964-1.827 1.741-1.127 2.298-1.175 6.392-.356 8.783.329.96.891 1.928 1.852 2.365.835.38 1.72.306 2.556-.009.451-.22.782-.525 1.134-.873l.452.528c-.662.682-1.514 1.177-2.47 1.281-.972.107-1.922-.145-2.687-.764-1.354-1.096-1.778-3.095-1.933-4.736-.225-2.402-.161-5.884 1.489-7.84.711-.843 1.542-1.186 2.62-1.28zm-22.019.135c.217-.002.396-.002.603.063.326.586.688 2.304.895 3.032l2.852 10.3c.64-1.798 3.352-12.953 3.794-13.345.177-.012.3-.032.46.065.04.24-.089.48-.168.709-.415 1.476-3.539 13.25-3.862 13.548-.19.021-.357.057-.539-.02-.34-.737-.504-1.619-.72-2.404l-1.221-4.425-1.395-4.88c-.246-.856-.584-1.763-.699-2.643zm12.039.004c.172-.016.334-.037.506-.01.106.017.13.036.18.13.32.593.653 2.141.872 2.89.765 2.618 1.506 5.248 2.302 7.856.183.6 1.057 3.024.946 3.491-.185.05-.296.05-.482.03-.26-.266-.977-3.076-1.169-3.701h-2.616l-3.07.004c-.23.735-.473 1.47-.683 2.211-.11.391-.162.909-.347 1.264a.69.69 0 01-.465.324c-.114.02-.079.02-.167-.042-.046-.188-.005-.377.04-.56.328-1.326.796-2.664 1.19-3.977a540.433 540.433 0 002.963-9.91z" fill="#0C0C0C"/><path d="M99.291 49.535c.33.47 2.315 7.758 2.651 8.912l-2.56.014c-.912.008-1.825.005-2.737-.009.907-2.964 1.732-5.955 2.646-8.917z" fill="#FEFEFE"/><path d="M34.873 48.446c.218-.001.415.009.63.047.362.585 1.274 3.616 1.564 4.462 1.095 3.19 2.331 6.38 3.294 9.612l-.04.071a1.457 1.457 0 01-.565.023c-.219-.377-.304-.87-.444-1.285-.249-.746-.536-1.484-.79-2.23l-3.056-.006-3.747-.002c-.175.518-1.032 3.285-1.278 3.526-.186.014-.35.048-.518-.053.024-.754 2.483-7.207 2.907-8.387.69-1.922 1.32-3.87 2.043-5.778z" fill="#0C0C0C"/><path d="M35.158 49.387c.402.714.627 1.723.897 2.506l2.247 6.618-3.11-.003-3.243-.006c1.07-3.035 2.095-6.098 3.209-9.115z" fill="#FEFEFE"/><path d="M54.273 48.415l.715.021c.443 1.313 4.95 14.03 4.836 14.378-.116.029-.172.07-.288.017-.541-.244-1.324-3.068-1.54-3.698h-2.98l-3.882-.002c-.428 1.173-.796 2.442-1.35 3.559-.186.034-.331-.002-.512-.041-.035-.188.032-.371.09-.549.314-.943.724-1.856 1.048-2.796l3.863-10.889z" fill="#0C0C0C"/><path d="M54.57 49.323c.3.364 2.86 8.09 3.206 9.168-1.033.016-2.068.003-3.101.003-1.095.01-2.19.002-3.286-.026l3.18-9.145z" fill="#FEFEFE"/><path d="M75.439 48.47c1.297-.003 3.062-.188 4.29.195.787.246 1.354.729 1.73 1.467.592 1.162.633 2.828.231 4.056-.348 1.063-1.01 1.69-1.99 2.179.523 1.134.956 2.328 1.43 3.485.354.861.993 2.057 1.138 2.947-.017.014-.033.03-.052.042a.596.596 0 01-.484.037c-.14-.051-.916-2.188-1.047-2.524-.511-1.29-1.004-2.59-1.564-3.858l-3.051.023-.031 4.49c-.004.522.05 1.07.02 1.586a.415.415 0 01-.098.238c-.188.089-.275.074-.474.047-.155-.277-.06-13.085-.048-14.41z" fill="#0C0C0C"/><path d="M76.257 49.115c1.221-.012 3.052-.247 4.042.613.647.564.903 1.44.964 2.27.087 1.18-.123 2.276-.913 3.191-1.218.952-2.824.73-4.273.707a325.102 325.102 0 01-.019-4.236c0-.795-.078-1.691.046-2.471l.153-.074z" fill="#FEFEFE"/><path d="M66.35 48.464c1.662-.01 4.419-.376 5.704.84.839.794 1.101 1.938 1.128 3.051.03 1.243-.165 2.674-1.086 3.595-1.195 1.196-3.505.885-5.06.875-.338.535.144 4.89-.138 5.91-.159.09-.259.074-.436.074a.626.626 0 01-.105-.345c-.035-.438 0-.896-.002-1.337l-.013-3.349.009-9.314z" fill="#0C0C0C"/><path d="M66.961 49.118c1.32-.074 3.358-.28 4.456.55.644.486.947 1.26 1.051 2.038.172 1.292.043 2.64-.768 3.7-1.174 1.085-3.26.795-4.758.79-.013-2.35-.073-4.73.019-7.078z" fill="#FEFEFE"/><path d="M23.68 14.793a4.878 4.878 0 013.13.908c1.083.767 1.867 1.942 2.079 3.259a5.104 5.104 0 01.055 1.025 5.357 5.357 0 01-.212 1.265 5.195 5.195 0 01-.511 1.176 5.286 5.286 0 01-.282.43c-.88 1.188-2.068 1.746-3.497 1.962-1.355.059-2.54-.195-3.616-1.062a5.104 5.104 0 01-.541-.504 5.029 5.029 0 01-.717-1.002 4.883 4.883 0 01-.5-1.388 4.908 4.908 0 01-.073-.489 4.982 4.982 0 011.096-3.706c.91-1.117 2.168-1.74 3.589-1.874z" fill="#0C0C0C"/><path d="M23.351 15.331c1.057-.105 2.123.106 3.024.68a4.503 4.503 0 011.286 1.241 4.34 4.34 0 01.34.58 4.53 4.53 0 01.435 1.505 4.542 4.542 0 01-.108 1.564 4.763 4.763 0 01-.299.847 4.659 4.659 0 01-.33.588c-.736 1.12-1.795 1.726-3.086 1.992-1.132.101-2.142-.05-3.11-.683a4.334 4.334 0 01-.533-.403 4.697 4.697 0 01-.468-.478 4.34 4.34 0 01-.504-.735 4.47 4.47 0 01-.502-1.474 4.363 4.363 0 01-.053-.903 4.483 4.483 0 01.43-1.746 4.548 4.548 0 01.335-.59c.74-1.097 1.861-1.74 3.143-1.985z" fill="#FEFEFE"/><path d="M130.92 47.302c.637.964 1.175 2.486 1.622 3.576a58.443 58.443 0 011.048 2.809 59.365 59.365 0 011.306 4.302 60.568 60.568 0 011.455 7.348 61.881 61.881 0 01.324 2.98 57.45 57.45 0 01.177 2.993 62.403 62.403 0 01.027 2.997l-6.054.021c.238-2.037.086-4.195.089-6.248l-.006-14.01-.014-4.215c-.004-.847-.047-1.71.026-2.553z" fill="#3E9AFF"/><path d="M19.122 48.488c2.383 0 5.326-.4 7.292 1.192 1.488 1.205 2.155 3.056 2.34 4.914.229 2.277-.276 4.488-1.739 6.276l-.103.107c-2.15 2.156-4.975 1.69-7.766 1.704-.067-4.728 0-9.464-.024-14.193z" fill="#0C0C0C"/><path d="M19.93 49.116c2.078-.022 4.43-.297 6.143 1.125 1.335 1.107 1.878 2.843 2.032 4.517.193 2.111-.28 4.137-1.642 5.785-1.883 1.805-4.27 1.513-6.685 1.51l-.004-9.3c0-.882-.117-2.843.028-3.558l.128-.08z" fill="#FEFEFE"/><path d="M104.118 18.732c1.435-2.273 3.243-3.771 5.913-4.362 2.4-.531 4.804-.045 6.866 1.272a9.238 9.238 0 011.424 1.112 8.541 8.541 0 01.622.657 9.088 9.088 0 011.98 4.018c.497 2.338.045 4.94-1.282 6.939a10.833 10.833 0 01-1.487 1.75 9.607 9.607 0 01-3.567 1.986c-2.264.682-4.955.344-7.022-.787a9.67 9.67 0 01-.782-.474 9.564 9.564 0 01-1.075-.852 9.562 9.562 0 01-.935-1.002 9.17 9.17 0 01-1.196-1.943 9.257 9.257 0 01-.473-1.287c-.704-2.502-.226-4.794 1.014-7.027z" fill="#0C0C0C"/><path d="M117.785 29.718c-1.003.876-2.098 1.504-3.381 1.878a9.004 9.004 0 01-1.272.261 8.616 8.616 0 01-1.297.07 8.588 8.588 0 01-1.718-.205 8.236 8.236 0 01-.836-.228 8.83 8.83 0 01-1.584-.698 8.84 8.84 0 01-.719-.44 8.495 8.495 0 01-2.339-2.397 8.447 8.447 0 01-.767-1.497 8 8 0 01-.268-.8c-.671-2.39-.218-4.623.972-6.758 1.291.596 2.402 1.466 3.539 2.306a76.178 76.178 0 019.67 8.508z" fill="#3E9AFF"/><path d="M104.577 18.904c1.298-2.077 3.069-3.466 5.486-4.024 2.256-.52 4.551-.088 6.5 1.144a8.505 8.505 0 012.207 1.985 9.368 9.368 0 01.491.697 8.587 8.587 0 011.131 2.744c.489 2.175.123 4.563-1.081 6.451-.432.679-.958 1.25-1.526 1.817a76.178 76.178 0 00-9.67-8.508c-1.136-.84-2.248-1.71-3.538-2.306z" fill="#FEFEFE"/><path d="M83.963 11.368c3.697.683 7.28 1.52 10.801 2.87 1.624.623 3.208 1.382 4.789 2.106.935.428 1.855.908 2.754 1.408.564.313 1.205.78 1.811.98-1.239 2.233-1.717 4.525-1.013 7.027a9.333 9.333 0 00.472 1.287 9.019 9.019 0 00.66 1.202 8.446 8.446 0 00.536.74 9.006 9.006 0 001.279 1.305 9.722 9.722 0 00.731.55 9.953 9.953 0 00.782.474c2.067 1.131 4.758 1.469 7.022.787a9.607 9.607 0 003.567-1.986c1.016 1 1.809 2.157 2.78 3.185l-30.045-.026-10.868-.003c-1.771-.005-3.58.069-5.345-.036.896-.142 1.98-.035 2.89-.032l6.27.021.01-14.58.014-4.604c.002-.803-.031-1.625.018-2.425a.531.531 0 01.085-.25z" fill="#3E9AFF"/><path d="M15.125 33.373c-1.749-.454-3.428-1.643-4.671-2.925a11.035 11.035 0 01-.738-.852 11.854 11.854 0 01-.8-1.16 11.669 11.669 0 01-.968-2.033 11.62 11.62 0 01-.593-2.462 11.588 11.588 0 01-.089-1.688c.057-3.127 1.258-5.951 3.512-8.122a11.062 11.062 0 012.214-1.664 10.848 10.848 0 012.18-.946 10.973 10.973 0 011.153-.29c1.647-.326 3.399-.21 5.072-.206h5.996l13.863-.01c2.565 0 5.135-.036 7.699.016l.007.51-22.214.008-5.831-.003c-1.507 0-3.087-.115-4.568.194-2.081.434-3.916 1.453-5.424 2.957a10.978 10.978 0 00-1.046 1.225 10.757 10.757 0 00-1.655 3.357 10.877 10.877 0 00-.428 3.46 11.078 11.078 0 003.138 7.463l.195.195a10.913 10.913 0 003.488 2.261c.469.195 2.156.522 2.341.803-.078.2-.075.263-.284.349-.323.133-1.345.095-1.783.172-2.572.453-4.705 1.822-6.034 4.087-.555.946-.967 1.974-1.1 3.068-.166 1.37-.085 2.807-.085 4.186l.002 7.193.015 23.472 63.853-.051 20.815-.009 6.668.005c1.136.001 2.318-.065 3.449.032.341.444.193 4.058.192 4.797l14.254.003 3.727.005c1.269.007 2.602.106 3.848-.165 1.327-.289 2.524-1.017 3.486-1.966 1.931-1.906 2.403-3.892 2.406-6.52l-.006-21.506-.02-5.83c-.007-1.577.096-3.243-.253-4.79-.327-1.446-1.183-2.808-2.226-3.843-1.188-1.179-2.819-2.057-4.492-2.274-1.237-.16-2.543-.092-3.791-.094l-6.313-.007-21.18.005-45.534-.022c-7.253 0-14.513-.073-21.765.007-.393.004-.9.106-1.221-.147l-.002-.159c.394-.368 3.246-.186 3.934-.195 2.704.115 5.457.007 8.166.002l13.905-.017c8.361-.054 16.726.088 25.087-.011 1.764.105 3.574.03 5.344.036l10.869.003 30.044.026c.731-.007 1.485-.048 2.213.017 1.865.168 3.701 1.078 5.032 2.382a8.214 8.214 0 01.606.642 8.611 8.611 0 011.003 1.452 9.43 9.43 0 01.386.794 8.673 8.673 0 01.526 1.684 9.112 9.112 0 01.166 1.313c.008.147.011.295.011.442l-.006 3.506c0 .553-.06 1.23.05 1.767-.073.844-.031 1.706-.027 2.553l.015 4.215.006 14.01c-.004 2.053.149 4.212-.089 6.248-.635 2.54-1.818 4.593-4.116 5.976-.247.147-.496.29-.748.43 1.135.041 10.192-.033 10.308.086.102.105.147.245.2.378l.124.01c-.119 2.42-.906 5.976-1.502 8.363a70.74 70.74 0 01-2.832 8.993c-3.414 8.546-8.938 16.665-15.757 22.855-1.528 1.387-3.297 2.6-4.756 4.022-.029 1.139.11 7.458-.088 7.98-.116.089-.081.098-.239.078-.111-.16-.135-.3-.156-.489-.097-.878-.01-1.833-.014-2.722-.006-1.402-.087-2.84-.004-4.239l-.105-.158c-.697.34-1.346.884-1.996 1.31-1.283.83-2.582 1.633-3.898 2.407-4.845 2.837-10.325 4.932-15.795 6.156-1.055.236-2.123.502-3.201.601-.858-.006-1.73.216-2.586.288-1.053.088-2.14.038-3.196.037l-50.736-.045-14.417.001c-2.482.002-5.308.136-7.744-.043l-.07.053-.003-.103-.283.002c-.008-.023-.018-.044-.025-.067-.2-.673-.064-5.421-.065-6.608l.002-20.758.023-45.405V49.41c-.003-2.438-.116-4.921.005-7.353.076-1.512.476-2.944 1.254-4.248 1.608-2.698 3.78-3.698 6.716-4.436z" fill="#0C0C0C"/><path d="M77.668 133.552a.83.83 0 01-.228-.247.7.7 0 01-.034-.532c.071-.185.177-.27.344-.363.125-.007.195-.032.31.028.272.143.321.383.401.657-.259.177-.5.338-.793.457zm9.974-37.305c.31.002.698-.028.949.185.213.18.224.458.211.713-.003.06-.01.12-.015.18-.152.114-.32.234-.494.313-.168.077-.307.106-.486.045-.297-.315-.174-1.03-.165-1.436zm-.02 17.123c.34-.02.722-.05.982.218.155.16.207.41.178.625a3.068 3.068 0 01-.093.424c-.039.015-.078.028-.116.046-.066.031-.127.072-.193.103a.8.8 0 01-.624.042c-.305-.346-.16-1.016-.134-1.458zM70.481 96.048c.107-.01.222-.026.33-.02.23.012.465.107.606.3a.584.584 0 01.124.477c-.049.28-.22.433-.436.595-.308.009-.557.004-.799-.21a.619.619 0 01-.22-.49c.006-.31.18-.462.395-.652zm.071 16.612c.107-.007.221-.018.327-.008a.753.753 0 01.58.328c.102.154.115.302.083.48-.051.285-.266.447-.489.603-.284-.007-.53-.03-.743-.239a.63.63 0 01-.196-.549c.037-.3.218-.442.438-.615zm-1.434-33.296c.063-.001.126 0 .19.003.252.015.524.096.682.31a.607.607 0 01.13.501c-.038.28-.251.453-.463.61l-.127.011c-.24.018-.491-.028-.663-.211a.687.687 0 01-.198-.57c.037-.316.207-.477.449-.654zm8.149 1.288c.098.007.1.005.208.025.23.04.43.15.56.346a.68.68 0 01.103.525c-.068.324-.261.47-.527.632-.092-.004-.185-.006-.275-.023a.822.822 0 01-.564-.41.713.713 0 01-.047-.537c.088-.298.287-.415.542-.558zm.408 16.543c.095.002.217-.003.31.019.23.053.428.199.533.411a.74.74 0 01.037.556c-.089.306-.264.431-.532.582l-.125-.006c-.246-.017-.496-.111-.641-.322a.733.733 0 01-.126-.577c.062-.333.272-.491.544-.663zm.208 17.581c.093.009.185.02.276.044.211.055.431.176.531.381a.67.67 0 01.04.54c-.1.311-.306.437-.58.59-.118-.01-.257-.014-.371-.047a.76.76 0 01-.23-.114.907.907 0 01-.126-.116.757.757 0 01-.133-.218.731.731 0 01.006-.543c.113-.283.32-.399.587-.517zm5.734 9.703c.127-.008.26-.02.385-.008.2.018.417.155.532.317.13.181.148.365.103.579-.064.302-.294.452-.54.601-.294 0-.606-.079-.81-.302a.658.658 0 01-.175-.563c.037-.304.27-.467.505-.624zm-12.929 5.485c.111.012.22.023.328.056a.743.743 0 01.472.407c.08.175.082.365.014.544-.112.298-.317.42-.593.549-.136-.021-.279-.039-.41-.078-.193-.058-.367-.246-.445-.428a.651.651 0 01.01-.558c.13-.27.36-.382.624-.492z" fill="#FEFEFE"/><path d="M83.481 106.794c.184-.034.412-.064.597-.022a1 1 0 01.607.475.87.87 0 01.055.721c-.111.31-.331.46-.612.605-.088.013-.175.026-.264.025a1.074 1.074 0 01-.78-.354.884.884 0 01-.182-.719c.061-.362.294-.532.58-.731zm-.689-16.824c.177-.013.384-.026.56.014.25.058.502.263.629.484a.988.988 0 01.078.769c-.114.394-.38.569-.721.76a1.504 1.504 0 01-.47-.024 1.062 1.062 0 01-.777-1.15 1.03 1.03 0 01.053-.216c.116-.328.35-.484.648-.637zm-8.474 28.584c.216.019.421.05.621.141.382.174.691.476.829.877a1.433 1.433 0 01.081.451 1.475 1.475 0 01-.177.737c-.256.489-.626.687-1.132.857-.41.008-.74-.015-1.085-.26a1.506 1.506 0 01-.646-1.153 1.507 1.507 0 01.296-1.001c.318-.43.703-.567 1.213-.649zm-.116-17.302c.267-.016.529-.038.788.043.398.124.745.388.938.762a1.361 1.361 0 01.11.284 1.465 1.465 0 01-.042.9c-.214.556-.62.809-1.145 1.033a1.841 1.841 0 01-.763-.051 1.49 1.49 0 01-1.037-1.045 1.536 1.536 0 01-.047-.447 1.474 1.474 0 01.09-.439c.2-.542.602-.813 1.108-1.04zm-.19-16.468c.275-.018.566-.034.83.058a1.701 1.701 0 01.704.482 1.64 1.64 0 01.274.436c.168.4.178.855-.002 1.253-.234.516-.649.76-1.161.944-.376.03-.714.031-1.063-.133a1.596 1.596 0 01-.777-.784 1.655 1.655 0 01-.143-.608 1.622 1.622 0 01.16-.755c.245-.495.669-.739 1.178-.893z" fill="#3E9AFF"/><path d="M102.696 93.403c2.848.024 5.695.022 8.542-.007l-.007 22.4-.019 6.217c-.01 1.339-.076 2.703.034 4.036l-.106-.159c-.697.341-1.345.885-1.996 1.311-1.282.83-2.581 1.633-3.898 2.407-4.844 2.837-10.325 4.932-15.794 6.156-1.055.236-2.124.502-3.202.601.02-.013.045-.021.06-.039.091-.107.06-.14.19-.195.508-.212 1.077-.345 1.6-.526a18.948 18.948 0 003.528-1.603c4.157-2.459 7.699-6.76 9.471-11.245a22.887 22.887 0 00.885-2.758 22.945 22.945 0 00.524-2.848 22.193 22.193 0 00.145-1.926c.064-1.543.018-3.1.009-4.643-.003-.575-.116-1.385.026-1.928.107.056.2.107.319.135.025.006.051.01.076.015a2.224 2.224 0 01-.361-.538c-.171-.391-.059-.724.085-1.103-.029-.04-.068-.074-.086-.12-.139-.359-.018-12.285-.025-13.64z" fill="#3C3B3C"/><path d="M102.807 107.163c.229-.272.444-.477.813-.519.314-.035.62.086.851.295a1.33 1.33 0 01.307.417 1.37 1.37 0 01.108.376c.005.043.008.086.009.13a.9.9 0 01-.263.683c-.26.247-.694.355-1.045.331-.168-.012-.338-.043-.503-.072a2.213 2.213 0 01-.362-.537c-.171-.392-.059-.725.085-1.104zm33.663-25.965l.123.01c-.119 2.42-.906 5.976-1.502 8.363a70.114 70.114 0 01-1.266 4.544 70.027 70.027 0 01-1.566 4.45c-3.414 8.545-8.938 16.664-15.757 22.854-1.527 1.387-3.297 2.6-4.756 4.022.093-1.947.043-3.913.042-5.863v-9.764l.008-10.697c.001-1.833.063-3.695-.009-5.526-.01-.266-.009-.406-.161-.633-.801-.245-7.532-.084-8.955-.084-.06-1.302-.018-2.623-.021-3.928l-.012-7.602h22.267l7.223-.001c1.315-.001 2.649.04 3.961-.023.16-.008.25-.022.381-.122z" fill="#3E9AFF"/><path d="M87.632 76.473c4.819.069 9.638.1 14.457.091l.034 27.24.008 7.05c.014 2.95.118 5.93-.58 8.82-.951 3.944-3.195 7.765-6.078 10.615-3.168 3.131-7.228 5.397-11.706 5.851-2.422.245-4.98.118-7.415.095-1.129-.011-2.275-.027-3.4-.107 4.224-.65 8.513-4.117 10.985-7.469 1.959-2.654 3.268-6.053 3.593-9.345.137-1.398.096-2.821.098-4.225.384-.037.755-.064 1.055-.333.003-.04.023-.084.005-.119.04-.137.075-.282.094-.424.029-.215-.023-.465-.178-.625-.26-.268-.641-.238-.982-.218-.061-.694-.026-1.414-.026-2.112l.02-4.037c.016-3.108-.052-6.226.01-9.333.286-.01.716-.026.952-.206a.46.46 0 00.209-.357c.006-.06.012-.12.015-.18.013-.255.001-.533-.211-.713-.251-.213-.64-.183-.949-.185-.057-1.623-.015-3.256-.011-4.88l.014-9.088c.005-1.932.048-3.875-.013-5.806z" fill="#3C3B3C"/><path d="M88.541 130.022l.064.011c.284.063.529.172.671.443a.68.68 0 01.04.524c-.097.294-.318.414-.58.544-.08-.006-.144-.008-.224-.028a.777.777 0 01-.504-.376c-.106-.196-.103-.394-.035-.601.09-.275.323-.403.569-.517z" fill="#3E9AFF"/><path d="M95.183 114.581c.077.014.122.02.201.044.234.071.421.201.52.432a.7.7 0 01-.006.537c-.121.304-.322.398-.603.529-.108-.016-.22-.032-.323-.067a.773.773 0 01-.5-.761.724.724 0 01.09-.297c.142-.254.356-.339.62-.417zM95.102 81c.094.004.189.007.281.026a.814.814 0 01.542.358.705.705 0 01.08.604c-.092.284-.284.406-.535.538h-.064c-.288-.006-.514-.05-.706-.292a.7.7 0 01-.139-.575c.063-.331.27-.49.54-.66zm-.206 16.62c.116-.01.237-.022.353-.014.213.015.42.15.545.318a.69.69 0 01.128.579c-.064.298-.232.428-.472.588-.105.009-.123.013-.239.01-.24-.007-.487-.095-.644-.283a.664.664 0 01-.141-.507c.04-.318.237-.495.47-.691z" fill="#FEFEFE"/><path d="M91.568 118.686c.242-.008.487-.023.718.058a1.652 1.652 0 011.03 1.038 1.414 1.414 0 01.056.602 1.459 1.459 0 01-.123.438c-.225.488-.605.7-1.084.889-.343.025-.688-.005-.998-.167-.514-.269-.711-.763-.863-1.287.047-.191.094-.386.17-.568.228-.539.563-.794 1.094-1.003zm.108-33.768c.294-.006.561.015.833.138a1.526 1.526 0 01.484.348 1.492 1.492 0 01.392 1.103 1.449 1.449 0 01-.163.577c-.245.47-.626.666-1.112.822-.336.018-.658.019-.967-.135a1.496 1.496 0 01-.57-.494 1.455 1.455 0 01-.251-.712 1.469 1.469 0 01.204-.878c.269-.449.662-.64 1.15-.77zm.06 16.881c.304-.005.562.01.84.144a1.356 1.356 0 01.38.255 1.44 1.44 0 01.29.357 1.59 1.59 0 01.197.58 1.572 1.572 0 01-.045.613 1.49 1.49 0 01-.112.288c-.24.464-.616.672-1.094.834-.273.004-.54.011-.796-.094a1.582 1.582 0 01-.865-.838 1.489 1.489 0 01.006-1.19c.245-.54.66-.764 1.2-.949zM49.534 76.506l17.996-.017c.075 3.31-.002 6.635-.008 9.947l.005 17.184-.006 9.688c-.008 2.383.137 4.875-.325 7.22a19.751 19.751 0 01-1.084 3.611 19.411 19.411 0 01-1.099 2.262 18.823 18.823 0 01-1.01 1.595 21.251 21.251 0 01-.756 1.006 22.01 22.01 0 01-.401.484c-3.509 4.037-8.003 6.237-13.33 6.619.03-3.224.031-6.448.006-9.671 1.417.011 2.834.016 4.25.012.775.001 1.599.055 2.366-.022.26-.027.394-.06.56-.265-.017-.021-.032-.044-.052-.063-.18-.178-.487-.231-.73-.253-.645-.058-1.344.004-1.996.005l-4.364.006c.017-1.916.011-3.832-.017-5.748l8.14-.006c.832-.004 1.686.081 2.513.036.228-.013.403-.043.613-.134.129-.152.133-.154.14-.352-.247-.215-3.327-.104-3.878-.105l-7.53-.01-.018-6.216c1.224.023 10.729.125 11.16-.051a.466.466 0 00.294-.28c-.014-.026-.022-.056-.043-.077-.094-.096-.285-.121-.414-.134-1.108-.115-2.345-.012-3.465-.014l-7.522-.007-.013-6.254 7.228.008c1.224.001 2.483.07 3.704.017.161-.007.263-.058.4-.137l.013-.118.04.081.092-.086-.022-.185c-.203-.103-.43-.124-.655-.134-1.157-.05-2.344.003-3.504.004l-7.28.006c.009-2.142.004-4.284-.013-6.426l7.66.009c.834.001 2.547.124 3.29-.022.2-.04.337-.087.446-.262l-.084-.113a1.706 1.706 0 00-.668-.167c-1.065-.07-2.197.01-3.27.011l-7.366.02-.01-6.422 7.59-.021c1.152-.002 2.362.081 3.507.015a.567.567 0 00.272-.089c.09-.194.065-.227.023-.44-1.066-.168-2.425-.04-3.522-.04l-7.872.026.02-15.531zm-34.846.022l34.248-.027c-.067 3.047-.014 6.108-.016 9.156l.028 18.813-.024 31.622c-2.252-.034-4.507-.008-6.76-.006l-34.491.005.015-59.557 7-.006z" fill="#3E9AFF"/><path d="M13.977 127.166l5.262.012c1.014.005 2.048-.029 3.06.047.109.158.072.345.076.534l-5.615.002c-.875.001-1.858.097-2.717-.04-.1-.185-.067-.347-.066-.555zm-.11-42.418h11.065c1.894 0 3.812-.07 5.703.006.118.175.088.343.097.55l-11.111-.018c-1.763.002-3.9.134-5.625-.02-.124-.171-.108-.31-.129-.518zm.084 7.15c6.708-.081 13.425-.01 20.134-.009h6.206c.963-.002 2.046-.106 2.997.012.12.163.076.321.074.52l-20.2.005-6.093.003c-.978 0-2.07.093-3.034-.031-.141-.16-.088-.294-.084-.5zm-.029 21.034l19.977.033 6.699.009c.688.003 1.824-.09 2.447-.025.084.009.14.037.215.072.119.184.088.298.087.514l-19.873-.053-6.16-.002c-1.093.001-2.234.07-3.321-.028-.098-.163-.067-.332-.07-.52zm.008 7.132l19.968-.008 5.913.006c1.148-.001 2.315-.051 3.46.02.123.142.077.38.08.567l-19.214-.036c-3.357.001-6.758.123-10.11 0-.121-.148-.093-.366-.098-.549zm-.006-21.121l29.401-.013.004.59-20.716-.015-5.62.002c-.956.002-2.055.113-2.992-.046-.109-.15-.073-.335-.077-.518zm.024 7.014l20.22-.004 5.996.001c1.012 0 2.095-.084 3.093.03.153.158.097.331.097.544l-20.388.016-5.862-.025c-1.017-.003-2.063.056-3.075-.028-.101-.146-.072-.358-.081-.534z" fill="#0C0C0C"/></g><defs><clipPath id="clip0_8_1738"><path fill="#fff" transform="translate(.5)" d="M0 0h140v140H0z"/></clipPath></defs></svg>