<svg width="140" height="140" fill="none" xmlns="http://www.w3.org/2000/svg"><g clip-path="url(#clip0_8_1853)"><path d="M0 0h140v140H0V0z" fill="#FEFEFE"/><path d="M103.858 42.16c.087.005.201.002.287.023.19.044.214.081.327.228.116.684.215 2.904-.002 3.535-.067.018-.182.06-.256.059-.176-.002-.206-.037-.318-.155-.131-.808-.163-2.888-.038-3.69zM27.37 54.237c.217.068.289.066.433.247.15.728.44 4.025.398 4.675-.01.162-.073.263-.16.397-.186-.047-.306-.079-.465-.192-.296-.92-.316-2.734-.388-3.765-.031-.454-.135-.997.182-1.362zm76.572-6.609c.24.017.375.018.566.177.219.705.001 5.878-.162 6.803-.104.002-.234.015-.335-.006-.19-.04-.216-.066-.304-.222-.036-.787.085-6.243.235-6.752z" fill="#0C0C0C"/><path d="M102.947 107.363l16.149.025 4.616-.006c.901-.002 1.878-.085 2.765.064-.728.086-2.069.906-2.824 1.219-1.364.565-2.766 1.081-4.201 1.433-5.773 1.415-11.455.321-16.505-2.735z" fill="#393838"/><path d="M81.73 42.68c.902-.075 1.833.096 2.618.552a4.045 4.045 0 01.947.748 4.083 4.083 0 01.487.643 4.04 4.04 0 01.412.918 3.942 3.942 0 01.102.403 4.266 4.266 0 01-.05 1.9 4.268 4.268 0 01-.5 1.172c-.674 1.079-1.716 1.637-2.923 1.908-1.183.059-2.243-.116-3.212-.846a3.987 3.987 0 01-.6-.55 4.075 4.075 0 01-1.001-2.195c-.143-1.147.17-2.34.9-3.242.738-.91 1.7-1.278 2.82-1.41z" fill="#0C0C0C"/><path d="M82.03 43.368c.762.014 1.432.13 2.086.553a3.696 3.696 0 01.419.319 3.296 3.296 0 01.473.516 3.483 3.483 0 01.59 1.263 3.248 3.248 0 01.09.69 3.597 3.597 0 01-.051.691 3.488 3.488 0 01-.417 1.137 3.56 3.56 0 01-.19.29c-.64.887-1.5 1.254-2.543 1.422-.918.004-1.77-.215-2.51-.786a3.255 3.255 0 01-.504-.47 3.428 3.428 0 01-.675-1.197 3.384 3.384 0 01-.143-.675c-.092-.924.205-1.904.816-2.606.677-.778 1.572-1.058 2.56-1.147z" fill="#FEFEFE"/><path d="M32.588 118.569l16.694.004-.013 16.508-.957-.001-16.702-.003c-.061-5.497.005-11.003.014-16.501l.964-.007zm54.406-.006c2.02.069 4.063.012 6.085.014l11.655.012-.019 16.515-17.706.034-.015-16.575zm-24.754.006l5.465-.014c.047 2.331-.013 4.67-.016 7.003l.03 9.537-12.177-.018-5.633.005c.075-5.497.01-11.005.005-16.503 4.103.075 8.22.005 12.325-.01zm6.187-.033c5.96.123 11.93-.031 17.89.044l-.026 16.435-.054.09c-.505.092-1.089.016-1.605.012l-3.471-.019-12.733-.019-.001-16.543zM26.856 50.521c-.854-.483-1.802-.826-2.674-1.283-1.507-.79-2.95-1.879-4.24-2.987a22.079 22.079 0 01-1.963-1.91 22.416 22.416 0 01-4.501-7.458 22.286 22.286 0 01-.994-3.7 22.389 22.389 0 01-.28-2.173c-.453-6.193 1.44-12.153 5.517-16.853 3.852-4.44 9.517-7.413 15.402-7.812a21.996 21.996 0 0111.911 2.646 21.894 21.894 0 013.55 2.414c.138.115.274.231.41.349 3.544 3.122 6.203 7.373 7.209 12.005.391 1.804.532 3.643.649 5.482a72.09 72.09 0 01-12.551 4.808 72.111 72.111 0 01-7.883 1.735 46.384 46.384 0 01-3.764.48c-1.025.088-2.236-.011-3.214.306-.869.282-1.644 1.093-1.926 1.958-.32.984-.298 2.129-.363 3.157-.12 1.843-.2 3.689-.242 5.536-.025 1.097.006 2.207-.053 3.3z" fill="#3E9AFF"/><path d="M56.852 29.241c2.103-1.047 4.19-2.11 6.222-3.292 1-.581 2.974-2.026 3.907-2.344.628-.214 1.511-.242 2.14-.017.99.356 1.794 1.096 2.677 1.647.925.576 1.9 1.1 2.851 1.632a85.953 85.953 0 0012.053 5.554 64.765 64.765 0 0013.95 3.505c1.15.145 2.303.254 3.459.325.838.053 1.751-.026 2.562.21.772.225 1.565.903 1.879 1.657.51 1.226.357 3.196.392 4.532.137 5.237.177 10.537-.338 15.757a81.239 81.239 0 01-.63 4.817c-.144.873-.35 1.75-.468 2.626 5.923-1.87 12.289-1.556 17.836 1.353a23.13 23.13 0 012.432 1.457 21.79 21.79 0 01.919.666 26.91 26.91 0 01.885.71 26.614 26.614 0 01.849.753 23.68 23.68 0 011.2 1.206 21.263 21.263 0 01.749.852 21.506 21.506 0 011.043 1.346 26.414 26.414 0 01.638.938 23.028 23.028 0 011.134 1.965 23.977 23.977 0 01.933 2.068 24.898 24.898 0 01.389 1.065c.06.18.119.36.175.54a25.14 25.14 0 01.421 1.625 25.322 25.322 0 01.216 1.097c.031.184.06.368.088.553a25.822 25.822 0 01.182 1.668 26.041 26.041 0 01.054 1.117 20.86 20.86 0 010 1.12 20.835 20.835 0 01-.1 1.675 20.725 20.725 0 01-.135 1.11 20.672 20.672 0 01-.187 1.103 25.174 25.174 0 01-.382 1.634 24.966 24.966 0 01-.319 1.072 24.45 24.45 0 01-.793 2.092 23.581 23.581 0 01-.725 1.513c-2.007 3.772-4.45 6.383-8.059 8.701-.017.219-.003.282-.139.461l-.335.136c-.887-.149-1.864-.066-2.765-.064l-4.616.006-16.149-.025c-2.117-.166-4.63-.029-6.79-.031-3.595-.003-7.212-.089-10.805.023-3.942 3.507-9.605 6.779-14.377 9.052-1.023.487-2.08 1.046-3.16 1.392-1.374-.416-2.765-1.155-4.04-1.814-3.749-1.939-7.24-4.152-10.65-6.635-.887-.645-1.69-1.403-2.591-2.027-3.18-.07-6.375-.015-9.556-.017l-18.625-.004-6.97.002c-1.104.001-2.23.059-3.33.005-.24-.012-.45-.035-.656-.166-.09-.234-.102-.484-.11-.733-.123-3.499-.018-7.037-.02-10.54l-.005-6.24c-.001-1.048-.038-2.109.003-3.156.01-.25.018-.51.116-.742.2-.114.392-.138.62-.15.717-.035 1.456.004 2.176.002l5.007.003 16.224-.013c-.677-1.482-1.492-2.9-2.157-4.39-1.736-3.885-3.125-8.054-4.127-12.188-.182-.753-.63-1.979-.485-2.75.031-.168.071-.227.213-.317.304.128.41.516.494.813.395 1.412.654 2.87 1.045 4.29a73.496 73.496 0 004.166 11.28c.532 1.113 1.07 2.243 1.758 3.27 1.508.01 3.015.008 4.523-.005-6.897-11.729-9.197-23.047-9.196-36.533a97.278 97.278 0 01.087-5.121c.029-.705-.007-1.506.177-2.187.032-.122.107-.344.208-.428.435-.356 3.763-.62 4.537-.762 9.498-1.749 17.095-4.35 25.651-8.855 1.961-1.033 3.813-2.229 5.75-3.294 7.21 4.55 14.708 8.1 22.946 10.38 1.912.537 3.847.973 5.804 1.309 1.215.21 2.436.376 3.663.5.474.05.977.042 1.444.121.15.026.245.074.37.159.082.156.092.167.069.34-.114.11-.226.14-.378.164-.96.15-3.363-.27-4.392-.436-8.414-1.352-16.512-4.437-23.993-8.465-1.788-.963-3.595-1.924-5.26-3.091l.005 43.561 6.652-.004c.012-5.585-.091-11.191.02-16.775.393-.682.93-1.341 1.485-1.9a7.978 7.978 0 011.22-1.01 8.152 8.152 0 014.483-1.39c2.065.002 4.228.924 5.682 2.384.508.51 1.247 1.328 1.418 2.049.212.892.074 3.87.073 4.986l-.006 11.662 10.836.017c.985-2.777 1.701-5.687 2.263-8.577.233-1.205.432-2.415.596-3.632.083-.618.094-1.274.225-1.882.052-.24.136-.517.314-.696.107-.107.053-.075.218-.077.117.122.161.28.189.442.163.929-.4 3.67-.583 4.675-1.23 6.739-3.201 13.29-6.681 19.235-.629 1.073-1.35 2.104-2.036 3.14 1.563.032 3.13.013 4.694.017.362-.78.826-1.522 1.235-2.28a57.203 57.203 0 001.785-3.637c3.748-8.536 5.522-17.706 5.796-27 .098-3.218.109-6.437.034-9.655-.025-1.29.059-2.738-.183-4.003-.096-.501-.313-1-.677-1.365-.331-.332-.776-.494-1.227-.589-.974-.204-2.109-.14-3.108-.213a49.54 49.54 0 01-5.637-.72 72.785 72.785 0 01-9.333-2.48 74.331 74.331 0 01-9.103-3.74 89.42 89.42 0 01-6.615-3.546c-1.025-.616-2.025-1.445-3.088-1.97-.421-.209-.868-.283-1.336-.28-.582.005-1.11.288-1.588.598a80.8 80.8 0 01-20.36 9.573c-1.027.317-2.06.614-3.1.89a68.06 68.06 0 01-8.836 1.694c-.741.085-1.484.147-2.229.187-.608.029-1.263.004-1.859.137-.488.109-.948.406-1.284.771a2.053 2.053 0 00-.482.855c-.243.856-.232 1.826-.284 2.712-.108 1.69-.182 3.381-.223 5.073-.015 1.125.075 2.303-.035 3.42-.026.265-.047.579-.26.767-.09.08-.122.047-.233.034a1.394 1.394 0 01-.306-.315c.059-1.093.028-2.203.053-3.3.041-1.847.122-3.692.242-5.536.064-1.028.043-2.173.363-3.157.282-.865 1.057-1.676 1.926-1.958.978-.317 2.189-.218 3.214-.306a46.426 46.426 0 003.764-.48 72.437 72.437 0 0010.461-2.508 72.194 72.194 0 009.973-4.035z" fill="#0C0C0C"/><path d="M59.905 107.331c2.536-.076 5.096-.019 7.634-.017l.011 4.236c-2.611-1.179-5.265-2.618-7.645-4.219zM83.9 68.237c.143-.021.126-.03.275.028.144 1.515.059 3.162.013 4.686l-3.678-.008a.478.478 0 01-.251-.066c-.229-.778-.073-2.847-.067-3.77 1.241-.242 2.475-.587 3.709-.87z" fill="#FEFEFE"/><path d="M75.599 107.289c.105 0 .188.008.29.024-.303.572-6.331 3.641-7.331 4.122a.78.78 0 01-.228.053c-.166-.512-.041-3.431-.037-4.171l7.306-.028z" fill="#999"/><path d="M77.325 107.318c2.29-.043 4.588-.008 6.878.014-.814.706-1.707 1.332-2.571 1.974-4.258 3.073-8.938 5.794-13.823 7.741-5.075-2.003-11.872-6.122-16.042-9.712 1.338-.048 2.685-.027 4.025-.031.836-.002 1.835-.11 2.646.069.833.184 2.174 1.235 2.936 1.696.694.421 1.407.816 2.118 1.208 1.435.791 2.909 1.515 4.376 2.243 2.44-.995 4.774-2.331 7.032-3.68.812-.486 1.669-.952 2.425-1.522zm4.593-54.723c.053-.002.105-.006.158-.006 1.977.005 4.018.85 5.414 2.246.432.432.927 1.011 1.083 1.61.234.896.074 3.785.072 4.918l-.016 11.586h-3.685v-9.885c-.002-1.395.093-3.139.01-4.477-.013-.208-.068-.48-.187-.657-.091-.136-.16-.176-.316-.208l-.126.095a1.232 1.232 0 00-.15.493c-.093.99-.014 2.061-.012 3.057l.012 6.08-1.816.398-2.15.53.035-7.212c.003-.864.132-1.89-.015-2.733-.043-.248-.115-.474-.326-.625-.103.015-.135-.003-.207.084-.17.2-.23.497-.25.752-.038.483.005.99.006 1.476l.002 2.996-.009 9.827-3.714-.003.012-16.525c.23-.417.497-.807.803-1.172 1.401-1.67 3.231-2.46 5.372-2.645zM55.027 54.1a7.13 7.13 0 01.252-.007c2.71-.022 5.27.965 7.205 2.883 2.951 2.926 2.733 5.926 2.732 9.746l-.003 6.214h-4.79c-.012-2.83.105-5.686.017-8.511-.01-.342-.06-.54-.315-.782l-.131.01c-.197.238-.235.579-.263.876-.083.882-.011 1.83-.014 2.718l-.012 5.693-2.727-.001-5.912-.005c-.007-1.193.152-7.55-.1-8.183-.06-.153-.082-.165-.225-.226-.07.033-.086.035-.152.093-.107.096-.206.336-.229.476-.097.607.016 1.404.017 2.036l-.001 5.8-4.64-.019-.009-5.942c-.006-3.57-.22-6.545 2.285-9.449 1.8-2.086 4.287-3.224 7.015-3.42zM36.046 73.614c4.066-.089 8.156.014 12.224.02l19.276.019-.02 11.952c-8.596.018-17.21.087-25.806-.024-.526-.73-.95-1.556-1.388-2.342a55.935 55.935 0 01-4.286-9.625z" fill="#FEFEFE"/><path d="M68.282 73.679c10.596.11 21.201-.005 31.799.01-1.188 2.807-2.328 5.614-3.88 8.246-.722 1.271-1.571 2.46-2.36 3.69-3.15.091-6.326.019-9.48.02l-16.073-.02-.006-11.946z" fill="#393838"/><path d="M107.508 65.85c5.923-1.87 12.289-1.556 17.836 1.353a23.13 23.13 0 012.432 1.457 24.755 24.755 0 01.919.666 26.91 26.91 0 01.885.71 27.122 27.122 0 01.849.753 23.314 23.314 0 011.949 2.058 21.506 21.506 0 011.043 1.346 26.792 26.792 0 01.638.938 23.028 23.028 0 011.134 1.965 23.977 23.977 0 01.933 2.068 24.703 24.703 0 01.564 1.605 25.14 25.14 0 01.421 1.625 25.322 25.322 0 01.216 1.097c.031.184.06.368.088.553a25.822 25.822 0 01.182 1.668 26.01 26.01 0 01.054 1.117 20.863 20.863 0 010 1.12 20.81 20.81 0 01-.1 1.675 20.763 20.763 0 01-.135 1.11 20.729 20.729 0 01-.187 1.103 25.303 25.303 0 01-.382 1.634 25.14 25.14 0 01-.319 1.072 24.45 24.45 0 01-.793 2.092 23.581 23.581 0 01-.725 1.513c-2.007 3.772-4.45 6.383-8.059 8.701-.209-.605-.08-3.255-.08-4.065l.011-10.964c.003-1.8.114-3.658.001-5.45-.015-.243-.04-.465-.164-.678-.654-.248-9.429-.087-10.946-.086l-15.595-.022c3.555-5.999 6.034-12.889 7.33-19.734z" fill="#999"/><path d="M67.555 29.473c.111.125.066.565.066.736l-.012 42.745h-1.712c0-1.525.015-3.05.041-4.574.036-4.47.54-8.321-2.922-11.804a10.261 10.261 0 00-1.568-1.32 10.382 10.382 0 00-4.765-1.764 10.416 10.416 0 00-1.025-.06c-2.933-.003-5.587 1.025-7.665 3.12-2.811 2.834-2.951 5.564-2.942 9.312l.008 7.075c-3.094-.003-6.189-.059-9.282-.034a70.351 70.351 0 01-2.605-11.14 70.475 70.475 0 01-.68-6.837c-.222-4.358-.082-8.734.043-13.094 1.121-.226 2.289-.318 3.421-.485a76.145 76.145 0 008.288-1.75A85.259 85.259 0 0054.6 36.116a86.353 86.353 0 006.62-3.045 84.723 84.723 0 006.336-3.597z" fill="#393838"/><path d="M54.78 42.06c1.212-.08 2.313.149 3.317.86a4.979 4.979 0 011.938 2.777 4.952 4.952 0 01.105.482 4.928 4.928 0 01.026 1.202 4.924 4.924 0 01-.272 1.171 4.843 4.843 0 01-.693 1.263c-.82 1.09-1.993 1.653-3.321 1.845-1.216.08-2.368-.125-3.38-.84-1.047-.737-1.736-1.94-1.954-3.194-.214-1.232.066-2.58.8-3.6.824-1.146 2.068-1.75 3.435-1.966z" fill="#0C0C0C"/><path d="M54.992 42.744a4.53 4.53 0 012.759.725 4.108 4.108 0 01.996.973 4.141 4.141 0 01.478.874 3.788 3.788 0 01.18.572 4.087 4.087 0 01.073.401 4.009 4.009 0 01.037.416 4.274 4.274 0 01-.264 1.64 4.326 4.326 0 01-.482.924c-.738 1.067-1.734 1.505-2.965 1.726-1.086.071-2.115-.134-3.005-.792-.873-.646-1.43-1.65-1.59-2.717-.165-1.113.084-2.2.76-3.103.75-1.002 1.814-1.467 3.023-1.639z" fill="#FEFEFE"/><path d="M22.861 94.932H21.74a1.397 1.397 0 00-.177-.49 1.317 1.317 0 00-.758-.59 1.707 1.707 0 00-.525-.078c-.334 0-.63.084-.888.252-.257.166-.46.41-.605.732-.146.32-.219.71-.219 1.172 0 .47.073.865.219 1.187.148.32.35.562.605.726.258.162.553.243.885.243.184 0 .356-.024.516-.072a1.41 1.41 0 00.434-.22 1.337 1.337 0 00.513-.834l1.121.007a2.414 2.414 0 01-.273.822 2.422 2.422 0 01-1.328 1.133c-.3.108-.632.162-.998.162a2.79 2.79 0 01-1.445-.375 2.615 2.615 0 01-1.002-1.082c-.243-.472-.365-1.037-.365-1.697 0-.662.123-1.227.369-1.697.245-.472.58-.832 1.004-1.082a2.78 2.78 0 011.439-.375c.342 0 .66.048.953.144.294.096.556.237.786.423.23.183.418.41.566.677.15.266.248.57.294.912zm3.01 4.158c-.462 0-.86-.096-1.197-.288a1.949 1.949 0 01-.77-.821c-.18-.356-.27-.775-.27-1.257 0-.473.09-.889.27-1.247.182-.36.436-.64.761-.84.326-.201.709-.302 1.149-.302.284 0 .551.046.803.138.254.09.478.23.672.42.196.19.35.431.461.725.112.292.168.64.168 1.044v.332h-3.774v-.731h2.734a1.167 1.167 0 00-.135-.555.981.981 0 00-.369-.387 1.037 1.037 0 00-.545-.14c-.222 0-.417.053-.585.161a1.116 1.116 0 00-.393.42c-.092.172-.139.36-.14.567v.638c0 .268.048.498.146.69.098.19.235.336.411.438.176.1.382.15.618.15.158 0 .3-.023.428-.067a.95.95 0 00.333-.2.838.838 0 00.213-.327l1.013.114a1.58 1.58 0 01-.365.701 1.783 1.783 0 01-.684.462 2.617 2.617 0 01-.953.162zm4.05-2.788V99h-1.084v-4.605h1.037v.782h.054c.106-.257.275-.462.506-.614.234-.152.523-.228.867-.228.318 0 .595.068.83.204.238.136.422.333.552.59.132.258.197.571.195.939V99h-1.085v-2.764c0-.308-.08-.549-.24-.723-.158-.174-.377-.26-.657-.26-.19 0-.359.041-.506.125a.873.873 0 00-.345.357 1.204 1.204 0 00-.123.567zm6.36-1.907v.84h-2.648v-.84h2.648zm-1.994-1.103h1.085v4.323c0 .146.022.258.066.336a.356.356 0 00.18.156.69.69 0 00.246.041c.068 0 .13-.004.186-.014.058-.01.102-.02.132-.027l.183.848a2.035 2.035 0 01-.639.108 1.769 1.769 0 01-.734-.123 1.142 1.142 0 01-.52-.426c-.125-.192-.187-.431-.185-.72v-4.502zM37.188 99v-4.605h1.053v.767h.048a1.148 1.148 0 011.136-.833c.06 0 .127.003.2.009.077.004.14.011.19.021v.998a1.14 1.14 0 00-.22-.042 2.028 2.028 0 00-.284-.02c-.198 0-.376.042-.534.128a.943.943 0 00-.368.351.988.988 0 00-.135.519V99h-1.086zm4.59.093a1.92 1.92 0 01-.788-.156 1.286 1.286 0 01-.552-.468c-.134-.206-.2-.46-.2-.761 0-.26.047-.475.143-.645.096-.17.227-.306.393-.407a1.96 1.96 0 01.56-.231 4.57 4.57 0 01.651-.117c.27-.028.489-.053.657-.075a.973.973 0 00.366-.108c.078-.05.117-.127.117-.231v-.018c0-.226-.067-.4-.201-.525-.134-.124-.327-.186-.579-.186-.266 0-.477.058-.633.174a.864.864 0 00-.311.411l-1.014-.144c.08-.28.212-.513.396-.701a1.72 1.72 0 01.675-.426 2.58 2.58 0 01.881-.144c.222 0 .443.026.663.078.22.052.42.138.602.258a1.3 1.3 0 01.438.482c.112.204.168.46.168.765V99h-1.043v-.633h-.036a1.328 1.328 0 01-.28.36c-.117.11-.266.199-.446.267a1.8 1.8 0 01-.627.099zm.282-.798c.218 0 .407-.043.567-.129a.953.953 0 00.369-.347.887.887 0 00.132-.47v-.544a.508.508 0 01-.174.078c-.08.024-.17.045-.27.063-.1.018-.199.034-.297.048l-.255.036a1.889 1.889 0 00-.434.108.722.722 0 00-.303.21.513.513 0 00-.111.342c0 .2.073.35.219.453a.951.951 0 00.557.152zm4.326-5.435V99h-1.085v-6.14h1.085zM47.503 99v-4.605h1.085V99h-1.085zm.545-5.259a.633.633 0 01-.444-.17.551.551 0 01-.185-.417c0-.164.062-.303.186-.417a.627.627 0 01.443-.174.62.62 0 01.444.174.544.544 0 01.186.417.55.55 0 01-.186.416.626.626 0 01-.444.171zM49.644 99v-.69l2.374-2.977v-.039h-2.296v-.9h3.625v.741l-2.261 2.927v.039h2.339V99h-3.781zm6.707.09c-.461 0-.86-.096-1.196-.288a1.95 1.95 0 01-.77-.821c-.18-.356-.27-.775-.27-1.257 0-.473.09-.889.27-1.247.182-.36.435-.64.761-.84.326-.201.709-.302 1.148-.302.284 0 .552.046.804.138.254.09.478.23.672.42.195.19.35.431.461.725.112.292.168.64.168 1.044v.332h-3.775v-.731h2.735a1.168 1.168 0 00-.135-.555.982.982 0 00-.369-.387 1.037 1.037 0 00-.545-.14c-.222 0-.417.053-.585.161a1.116 1.116 0 00-.393.42c-.092.172-.139.36-.14.567v.638c0 .268.048.498.146.69.098.19.235.336.41.438.177.1.383.15.618.15.158 0 .301-.023.43-.067a.95.95 0 00.332-.2.837.837 0 00.213-.327l1.013.114a1.58 1.58 0 01-.366.701 1.782 1.782 0 01-.683.462 2.617 2.617 0 01-.954.162zm4.675-.01a1.74 1.74 0 01-.971-.278 1.895 1.895 0 01-.678-.81c-.166-.353-.249-.783-.249-1.288 0-.512.084-.944.252-1.296.17-.353.399-.62.687-.8.288-.182.608-.273.962-.273.27 0 .492.046.666.138.174.09.312.199.413.327.103.126.181.245.237.356h.045V92.86h1.089V99H62.41v-.725h-.066c-.056.111-.136.23-.242.356-.106.124-.246.23-.42.318a1.449 1.449 0 01-.657.132zm.303-.89c.23 0 .426-.061.588-.185.161-.126.285-.301.368-.525.084-.224.126-.485.126-.782 0-.298-.042-.557-.126-.777a1.105 1.105 0 00-.365-.513.946.946 0 00-.591-.183.957.957 0 00-.606.19c-.161.125-.283.3-.365.521a2.19 2.19 0 00-.123.761c0 .288.04.545.123.771.084.224.207.4.368.53a.95.95 0 00.603.192zm5.448-5.33h1.361l1.823 4.45h.072l1.823-4.45h1.361V99H72.15v-4.218h-.057l-1.697 4.2h-.797l-1.697-4.21h-.057V99h-1.068v-6.14zm8.929 6.233a1.92 1.92 0 01-.789-.156 1.286 1.286 0 01-.552-.468c-.133-.206-.2-.46-.2-.761 0-.26.048-.475.143-.645.096-.17.227-.306.393-.407a1.96 1.96 0 01.56-.231 4.57 4.57 0 01.651-.117c.27-.028.49-.053.657-.075a.972.972 0 00.366-.108c.078-.05.117-.127.117-.231v-.018c0-.226-.067-.4-.201-.525-.134-.124-.327-.186-.579-.186-.266 0-.476.058-.632.174a.863.863 0 00-.312.411l-1.014-.144c.08-.28.212-.513.396-.701.184-.19.409-.332.675-.426a2.58 2.58 0 01.881-.144c.222 0 .443.026.663.078.22.052.42.138.602.258a1.3 1.3 0 01.438.482c.112.204.168.46.168.765V99h-1.043v-.633h-.036a1.326 1.326 0 01-.726.627 1.8 1.8 0 01-.626.099zm.281-.798c.218 0 .407-.043.567-.129a.952.952 0 00.369-.347.886.886 0 00.132-.47v-.544a.51.51 0 01-.174.078 2.46 2.46 0 01-.27.063c-.1.018-.199.034-.297.048l-.255.036a1.889 1.889 0 00-.434.108.721.721 0 00-.303.21.513.513 0 00-.111.342c0 .2.073.35.219.453a.951.951 0 00.557.152zm4.327-1.993V99h-1.086v-4.605h1.038v.782h.054c.106-.257.275-.462.506-.614.234-.152.523-.228.867-.228.318 0 .594.068.83.204.238.136.422.333.552.59.132.258.197.571.195.939V99h-1.085v-2.764c0-.308-.08-.549-.24-.723-.158-.174-.377-.26-.657-.26-.19 0-.359.041-.507.125a.873.873 0 00-.344.357 1.205 1.205 0 00-.123.567zm5.384 2.79a1.92 1.92 0 01-.788-.155 1.286 1.286 0 01-.552-.468c-.134-.206-.2-.46-.2-.761 0-.26.047-.475.143-.645.096-.17.227-.306.393-.407a1.96 1.96 0 01.56-.231c.21-.054.427-.093.651-.117.27-.028.489-.053.657-.075a.973.973 0 00.365-.108c.078-.05.117-.127.117-.231v-.018c0-.226-.067-.4-.2-.525-.134-.124-.327-.186-.58-.186-.265 0-.476.058-.632.174a.864.864 0 00-.312.411l-1.013-.144c.08-.28.212-.513.396-.701a1.72 1.72 0 01.674-.426c.266-.096.56-.144.882-.144.222 0 .443.026.662.078.22.052.421.138.603.258a1.3 1.3 0 01.438.482c.112.204.168.46.168.765V99h-1.044v-.633h-.036a1.328 1.328 0 01-.278.36c-.118.11-.267.199-.447.267a1.8 1.8 0 01-.627.099zm.282-.797c.218 0 .407-.043.567-.129a.953.953 0 00.368-.347.887.887 0 00.132-.47v-.544a.51.51 0 01-.173.078c-.08.024-.17.045-.27.063-.1.018-.2.034-.297.048l-.255.036a1.889 1.889 0 00-.435.108.722.722 0 00-.303.21.512.512 0 00-.11.342c0 .2.073.35.218.453a.951.951 0 00.558.152zm5.244 2.528c-.39 0-.725-.053-1.005-.159a1.783 1.783 0 01-.674-.42 1.454 1.454 0 01-.354-.584l.977-.237c.044.09.108.179.192.267.084.09.197.163.34.221.143.06.324.09.542.09.307 0 .562-.075.764-.225.202-.147.303-.391.303-.731v-.873h-.054a1.538 1.538 0 01-.246.345 1.257 1.257 0 01-.422.297c-.174.08-.393.12-.657.12-.354 0-.675-.083-.963-.249a1.784 1.784 0 01-.683-.75c-.168-.333-.252-.75-.252-1.252 0-.506.084-.933.252-1.28.17-.35.399-.615.686-.795.288-.182.61-.273.963-.273.27 0 .492.046.665.138.176.09.316.199.42.327a1.8 1.8 0 01.237.356h.06v-.761h1.07v4.68c0 .394-.094.72-.282.977a1.691 1.691 0 01-.77.579 3.014 3.014 0 01-1.11.192zm.009-2.74c.23 0 .425-.056.587-.168.162-.112.285-.273.37-.483.083-.21.125-.462.125-.755 0-.29-.042-.544-.126-.762a1.086 1.086 0 00-.366-.507.946.946 0 00-.59-.183.957.957 0 00-.606.19 1.145 1.145 0 00-.366.518 2.102 2.102 0 00-.123.743c0 .282.041.53.123.741.084.21.207.374.37.492.163.116.364.174.602.174zm5.303 1.007c-.461 0-.86-.096-1.196-.288a1.95 1.95 0 01-.77-.821c-.18-.356-.27-.775-.27-1.257 0-.473.09-.889.27-1.247.181-.36.435-.64.761-.84.326-.201.709-.302 1.148-.302.284 0 .552.046.804.138.254.09.478.23.671.42.196.19.35.431.462.725.112.292.168.64.168 1.044v.332h-3.775v-.731h2.735a1.168 1.168 0 00-.135-.555.982.982 0 00-.369-.387 1.037 1.037 0 00-.546-.14c-.222 0-.416.053-.584.161a1.116 1.116 0 00-.393.42c-.092.172-.139.36-.14.567v.638c0 .268.048.498.146.69.098.19.235.336.41.438.177.1.382.15.618.15.158 0 .301-.023.43-.067a.952.952 0 00.332-.2.838.838 0 00.213-.327l1.013.114a1.58 1.58 0 01-.366.701 1.782 1.782 0 01-.683.462 2.617 2.617 0 01-.954.162zm2.966-.09v-4.605h1.038v.782h.054c.095-.263.254-.47.476-.617.222-.15.487-.225.795-.225.312 0 .574.076.788.228.216.15.368.355.456.614h.048a1.26 1.26 0 01.516-.611c.243-.154.532-.231.866-.231.424 0 .77.134 1.037.402.268.267.402.658.402 1.172V99h-1.088v-2.923c0-.286-.076-.495-.228-.627a.814.814 0 00-.558-.2c-.262 0-.466.081-.614.245-.146.162-.219.373-.219.633V99h-1.065v-2.968c0-.238-.071-.428-.215-.57a.755.755 0 00-.558-.213.788.788 0 00-.426.12.837.837 0 00-.306.333 1.039 1.039 0 00-.113.498V99h-1.086zm9.616.09c-.462 0-.861-.096-1.196-.288a1.95 1.95 0 01-.771-.821c-.18-.356-.27-.775-.27-1.257 0-.473.09-.889.27-1.247.182-.36.436-.64.762-.84.325-.201.708-.302 1.148-.302.284 0 .552.046.803.138.254.09.478.23.672.42.196.19.35.431.462.725.112.292.168.64.168 1.044v.332h-3.775v-.731h2.734a1.167 1.167 0 00-.135-.555.986.986 0 00-.368-.387 1.038 1.038 0 00-.546-.14c-.222 0-.417.053-.585.161a1.116 1.116 0 00-.393.42c-.091.172-.138.36-.14.567v.638c0 .268.049.498.146.69.098.19.235.336.411.438.176.1.382.15.618.15.158 0 .301-.023.429-.067a.956.956 0 00.332-.2.837.837 0 00.213-.327l1.014.114a1.579 1.579 0 01-.366.701 1.784 1.784 0 01-.684.462 2.615 2.615 0 01-.953.162zm4.051-2.788V99h-1.085v-4.605h1.037v.782h.054a1.32 1.32 0 01.507-.614c.234-.152.522-.228.866-.228.318 0 .595.068.831.204.237.136.421.333.551.59.132.258.197.571.195.939V99h-1.085v-2.764c0-.308-.08-.549-.24-.723-.158-.174-.377-.26-.657-.26-.189 0-.358.041-.506.125a.874.874 0 00-.345.357 1.204 1.204 0 00-.123.567zm6.359-1.907v.84h-2.647v-.84h2.647zm-1.994-1.103h1.086v4.323c0 .146.022.258.065.336a.356.356 0 00.18.156.69.69 0 00.246.041c.068 0 .13-.004.186-.014.058-.01.102-.02.132-.027l.183.848a2.039 2.039 0 01-.639.108 1.766 1.766 0 01-.734-.123 1.143 1.143 0 01-.519-.426c-.126-.192-.188-.431-.186-.72v-4.502z" fill="#fff"/></g><defs><clipPath id="clip0_8_1853"><path fill="#fff" d="M0 0h140v140H0z"/></clipPath></defs></svg>