<svg width="32" height="32" fill="none" xmlns="http://www.w3.org/2000/svg"><path fill-rule="evenodd" clip-rule="evenodd" d="M31.43 14.45l-2.55-3a2.39 2.39 0 01-.56-1.35c-.07-1-.22-2.6-.32-3.91A2.38 2.38 0 0025.8 4l-3.91-.32a2.39 2.39 0 01-1.35-.56c-.72-.62-2-1.69-3-2.55a2.38 2.38 0 00-3.1 0l-3 2.55a2.39 2.39 0 01-1.35.56L6.2 4A2.38 2.38 0 004 6.2c-.11 1.32-.24 3-.32 3.91a2.39 2.39 0 01-.56 1.35c-.61.73-1.69 2-2.55 3a2.38 2.38 0 000 3.1l2.55 3c.323.38.519.853.56 1.35.08 1 .22 2.6.32 3.91A2.38 2.38 0 006.2 28l3.91.32c.498.041.97.237 1.35.56l3 2.55a2.38 2.38 0 003.1 0c1-.86 2.27-1.93 3-2.55a2.39 2.39 0 011.35-.56L25.8 28a2.38 2.38 0 002.2-2.2c.11-1.32.25-3 .32-3.91a2.39 2.39 0 01.56-1.35c.62-.72 1.69-2 2.55-3a2.38 2.38 0 000-3.09zm-16.62 6.23l-4.44-4.44 1.69-1.69 2.75 2.74 5.13-5.13 1.69 1.69-6.82 6.83z" fill="url(#paint0_linear_8_1692)"/><defs><linearGradient id="paint0_linear_8_1692" x1="7.997" y1="-22.306" x2="44.145" y2="-11.284" gradientUnits="userSpaceOnUse"><stop stop-color="#66AFFF"/><stop offset="1" stop-color="#007AFF"/></linearGradient></defs></svg>