<svg width="89" height="89" fill="none" xmlns="http://www.w3.org/2000/svg"><path d="M39.432 5.32a7 7 0 0110.136 0l4.256 4.467a7 7 0 005.847 2.128l6.131-.686a7 7 0 017.765 6.515l.389 6.157a7 7 0 003.11 5.389l5.139 3.415a7 7 0 011.76 9.983l-3.66 4.966a7 7 0 00-1.08 6.128l1.74 5.919a7 7 0 01-5.068 8.778L69.9 69.931a7 7 0 00-4.767 4l-2.471 5.653a7 7 0 01-9.525 3.467l-5.527-2.742a7 7 0 00-6.222 0l-5.527 2.742a7 7 0 01-9.525-3.467l-2.471-5.653a7 7 0 00-4.767-4l-5.996-1.452a7 7 0 01-5.068-8.778l1.74-5.919a7 7 0 00-1.08-6.128l-3.66-4.966a7 7 0 011.76-9.983l5.138-3.415a7 7 0 003.111-5.389l.39-6.157a7 7 0 017.764-6.515l6.131.686a7 7 0 005.847-2.128l4.256-4.467z" fill="url(#paint0_linear_203_1578)"/><path d="M57 37L41.187 52.813 34 45.624" stroke="#fff" stroke-width="2.875" stroke-linecap="round" stroke-linejoin="round"/><defs><linearGradient id="paint0_linear_203_1578" x1="22.25" y1="-62.011" x2="122.773" y2="-31.357" gradientUnits="userSpaceOnUse"><stop stop-color="#66AFFF"/><stop offset="1" stop-color="#007AFF"/></linearGradient></defs></svg>