<svg width="140" height="140" fill="none" xmlns="http://www.w3.org/2000/svg"><g clip-path="url(#clip0_8_2016)"><path d="M0 0h140v140H0V0z" fill="#FEFEFF"/><path d="M39.894 18.866c.112-.015.142-.002.246.035.095.175.103.325.112.52.02.479-.022.96-.02 1.438l.012 4.536.012 13.908c-2.3 1.137-4.774 2.007-7.14 3.007-4.02 1.697-8.011 3.462-12.073 5.055-.076-.008-.151-.037-.225-.06-.034-.055-.084-.103-.1-.166-.124-.453-.018-4.042-.017-4.796l.01-15.396c2.416-1.131 4.95-2.102 7.413-3.131l11.77-4.95z" fill="#0C0C0C"/><path d="M39.719 19.343l.097.036c.156.477.066 3.543.068 4.344l-.01 15.375c-2.258 1.053-4.617 1.934-6.914 2.901a940.357 940.357 0 01-11.682 4.91l-.142.022c-.08-.122-.08-.212-.085-.354-.08-2.066.004-4.179.004-6.249V27.145l12.59-5.258c2.025-.844 4.032-1.745 6.074-2.544z" fill="#FEFEFF"/><path d="M31.216 29.278c.518-.04 1.006.022 1.46.292.531.316.829.855.964 1.444.295 1.285-.072 2.691-.768 3.784-.677 1.064-1.59 1.836-2.837 2.114-.483.02-.894-.043-1.323-.279-.587-.32-.94-.873-1.103-1.51-.318-1.236.029-2.609.689-3.674.675-1.089 1.668-1.87 2.918-2.17z" fill="#3E9AFF"/><path d="M114.277 49.673c.7.037 13.411 5.179 15.113 5.93.055 1.221.011 2.463.011 3.685v7.06c-.003 5.44.075 10.891-.012 16.33-1.116-.171-3.491-1.307-4.67-1.788l-10.451-4.299c-.101-1.695-.023-3.44-.022-5.14l.015-10.012-.011-7.629c-.004-1.36-.094-2.785.027-4.137z" fill="#0C0C0C"/><path d="M116.04 75.8c.414.004 11.817 4.8 13.011 5.326l-.029 1.117-.757-.276c-4.462-1.845-9.006-3.553-13.412-5.523.412-.194.799-.404 1.187-.644zm-1.449-25.743c.4.13.793.307 1.183.465-.061 2.335-.03 4.679-.031 7.015l.002 11.726.004 4.669c.002.409.094 1.051.018 1.442-.044.228-.179.281-.351.41l-.834.457c-.09-3.128-.005-6.284-.001-9.413l.01-16.77z" fill="#FEFEFF"/><path d="M108.464 26.006c.146-.008.293-.013.44-.016 4.781-.08 9.185 2.664 12.489 5.89 5.313 5.188 8.108 12.896 8.183 20.24-2.599-.966-5.188-2.046-7.742-3.129a1482.086 1482.086 0 01-19.301-7.7c-.954-.389-4.12-1.517-4.714-1.957-.153-.114-.179-.315-.19-.493-.03-.525.064-1.09.134-1.613.37-2.779 1.44-5.506 3.28-7.643 1.924-2.234 4.516-3.358 7.421-3.58z" fill="#0C0C0C"/><path d="M124.026 36.005c.028.012.058.021.085.036a.845.845 0 01.357.438c-.01.052-.006.11-.031.158-.164.311-8.318 6.753-9.4 7.756l-.14-.014c-.27-.098-.532-.223-.795-.338 1.4-1.354 3.103-2.497 4.62-3.73 1.761-1.43 3.449-2.997 5.304-4.306zm-18.017-8.744c.511.387 5.755 11.938 6.488 13.524.383.83.933 1.71 1.19 2.582.05.17.06.26-.018.416l-.221.01-.124-.047c-.19-.073-.399-.145-.504-.333-.374-.668-.646-1.44-.956-2.14a147.94 147.94 0 00-1.497-3.227c-1.644-3.485-3.416-6.94-4.947-10.473l.589-.312z" fill="#5F5F5F"/><path d="M105.658 26.876l.043.052c-.504.39-1.065.692-1.552 1.11-3.018 2.594-4.332 6.362-4.62 10.223-.46.237-.942.443-1.412.66-.02-.022-.044-.04-.059-.066-.333-.576.402-3.544.609-4.21.206-.656.456-1.295.751-1.917 1.314-2.801 3.324-4.79 6.24-5.852zm-6.12 11.808c.094-.006.2.008.29.038.898.305 1.789.747 2.666 1.112a410.13 410.13 0 005.053 2.043l21.645 8.69.018 1.072-.88-.349a902.67 902.67 0 00-20.932-8.41c-3.029-1.207-6.131-2.347-9.101-3.687l1.241-.509z" fill="#FEFEFF"/><path d="M68.135 11.238c.154-.017.308-.03.463-.036 4.498-.2 8.788 2.04 12.01 5.04 5.254 4.895 8.41 12.595 8.605 19.743.01.373.035.875-.232 1.157-.841-.223-1.674-.636-2.484-.96l-5.13-2.075c-2.744-1.163-5.543-2.206-8.32-3.288l-10.63-4.239c-1.75-.702-3.521-1.363-5.26-2.09.032-3.05 1.029-6.429 2.925-8.84 2.14-2.722 4.652-3.993 8.053-4.412z" fill="#0C0C0C"/><path d="M84.248 21.444c.228.052.405.424.528.617l-10.431 7.4-.699-.428c1.134-.825 2.239-1.686 3.39-2.49 2.407-1.68 4.89-3.303 7.212-5.1zm-18.673-8.673c.02.006.041.008.06.018.178.087.321.43.412.606 1.97 3.849 3.885 7.87 5.742 11.777.346.728 1.565 3.012 1.735 3.633.037.134.038.143-.032.268l-.243-.024-.714-.36c-1.715-3.875-3.655-7.65-5.493-11.47-.581-1.206-1.597-2.958-2.01-4.152.117-.161.363-.222.543-.296z" fill="#5F5F5F"/><path d="M65.788 12.031l.077.011c-.058.125-1.682 1.091-1.966 1.316-2.269 1.794-3.797 4.47-4.433 7.27-.207.915-.296 1.864-.4 2.796-.485.16-.946.402-1.406.622-.086-.004-.038.01-.125-.082a15.24 15.24 0 011.413-5.807c1.474-3.126 3.623-4.965 6.84-6.126zm-6.733 11.756c.816.272 1.609.636 2.406.961 1.447.593 2.897 1.177 4.352 1.751 4.812 1.895 9.644 3.756 14.432 5.71 1.805.742 3.618 1.467 5.437 2.174 1.043.408 2.084.862 3.157 1.184.023.392-.006.785-.027 1.176l-.646-.268-20.237-8.042c-3.372-1.344-6.804-2.626-10.124-4.091l1.25-.555z" fill="#FEFEFF"/><path d="M97.872 43.056c.418.101.866.331 1.272.488 1.259.487 2.499 1.015 3.754 1.511l5.989 2.347c1.064.418 2.172.797 3.199 1.298.05 1.314.001 2.648-.002 3.965l.003 7.369.019 9.998c.001 1.562.058 3.143.01 4.703-.008.251-.029.48-.131.712-.591.236-12.704-5.219-14.21-5.638l-.081-.021c-1.502.707-3.018 1.38-4.55 2.019 3.299 1.129 6.516 2.609 9.737 3.946a1554.643 1554.643 0 0017.278 7.14c2.091.945 4.271 1.689 6.363 2.636.627-.28 5.092-2.268 5.395-2.161.286.523.101 1.65.076 2.249-.757.373-1.583.663-2.364.985-1.05.432-2.089.894-3.151 1.296-.996-.307-1.971-.777-2.935-1.178l-4.824-1.986c-2.687-1.101-25.658-10.308-25.987-10.75-.354-.474-.171-1.712-.143-2.291.78-.387 1.604-.703 2.396-1.066.895-.41 1.778-.878 2.704-1.215l-.002-17.425v-5.632c0-.952-.06-1.948.012-2.895.014-.18.063-.265.173-.404z" fill="#0C0C0C"/><path d="M131.651 83.757c.134.435.037 1.14.035 1.605-1.641.755-3.343 1.384-4.998 2.11-.081-.527-.032-1.1-.025-1.635 1.641-.738 3.319-1.41 4.988-2.08zM98.043 43.506l1.106.45c-.107 1.425-.04 2.894-.039 4.324l.006 7.827-.001 8.115c0 1.528-.065 3.083.04 4.607 1.377.854 3.145 1.377 4.655 1.977l7.943 3.199c.006.376-.011.753-.022 1.13-2.363-.764-4.66-1.88-6.948-2.846-2.236-.944-4.521-1.787-6.736-2.779-.062-1.15-.026-2.326-.027-3.478l-.004-6.121c-.002-5.467-.043-10.94.027-16.405zM92.9 72.078c5.36 2.12 10.664 4.364 15.987 6.575l17.401 7.12c.014.545-.003 1.093-.008 1.638-.858-.116-1.884-.687-2.688-1.024l-5.076-2.118a1658.241 1658.241 0 01-17.71-7.224 361.233 361.233 0 01-5.524-2.288c-.728-.307-1.57-.564-2.239-.977-.277-.457-.16-1.18-.143-1.702z" fill="#FEFEFF"/><path d="M57.272 28.271c1.02.485 2.084.883 3.13 1.31 2.505 1.021 5.03 1.981 7.544 2.98 1.245.495 2.633.927 3.805 1.573.161 1.628.039 3.376.037 5.015l.002 9.56.028 7.958c.005 1.148.133 2.51-.014 3.63-.026.201-.06.352-.22.48-1.036-.149-2.663-.947-3.7-1.358a524.104 524.104 0 01-5.792-2.31c-1.62-.671-3.227-1.407-4.877-2.004l-1.789.762c1.728 1.293 2.86 2.66 3.864 4.567 1.335-.67 2.724-1.464 4.13-1.96 1.73.761 3.468 1.504 5.213 2.228 2.065.841 12.731 4.947 13.67 5.898.775.787.877 1.825.895 2.868.96.373 1.94.722 2.876 1.15 1.5-.625 3.06-1.11 4.545-1.769-.856-.374-1.677-.83-2.534-1.202-2.444-1.063-4.955-2.018-7.432-3.004l-3.796-1.495c-.844-.333-1.74-.64-2.534-1.081-.054-2.294-.008-4.599-.008-6.894l.005-13.096.004-4.81c0-.599-.117-1.376.017-1.953.033-.144.037-.16.162-.244a.844.844 0 01.318.039c1.894.639 3.734 1.533 5.595 2.269 1.959.764 3.911 1.544 5.857 2.34.948.389 2.02.735 2.891 1.272l.043 26.797c.598.354 1.614.527 2.042 1.052.159.426.154 1.465-.015 1.883-.428.384-4.344 1.942-5.069 2.209-.987-.424-1.98-.833-2.978-1.226-.022 2.42.003 4.844.007 7.265.002 1.512.166 3.208-.18 4.684 4.25 1.51 8.37 3.413 12.633 4.883-.108-.614-.317-1.345-.228-1.958.076-.123.133-.211.26-.285.239-.136.442-.134.7-.065.377.26.426.937.52 1.356.412-.15.852-.247 1.277-.36.014-.445.015-.825.287-1.201.093-.128.226-.255.39-.268a.595.595 0 01.43.156c.517.425.531 1.205.6 1.811.218.01.579.06.785-.017.442-.165.221-1.12.487-1.496.075-.107.233-.163.361-.17.2-.01.434.048.585.184.138.124.185.24.18.428-.009.324-.546 2.626-.719 2.79a6.26 6.26 0 00-.41.024c-.114.291-.653 3.338-.586 3.577.031.109.092.12.18.177l.073-.146.023.11.003-.07c.564-.17 1.159-5.131 1.714-5.555a.419.419 0 01.387-.074c.166.053.305.212.38.365.077.157.12.365.098.54-.059.449-.544 1.91-.702 2.454.968.324 1.915.75 2.865 1.124l4.867 1.886 17.396 6.765 3.675 1.444c.824.323 1.676.707 2.542.893-1.83.668-3.627 1.449-5.428 2.19l-10.357 4.279-35.808 14.727c-4.345 1.781-8.654 3.678-13.028 5.384-1.05-.343-2.079-.822-3.096-1.256l-4.83-2.067-14.675-6.239c-1.193-.505-3.49.27-4.344-.517-.382-.352-.341-.889-.356-1.365a1931.251 1931.251 0 01-18.895-7.981l-5.388-2.282c-1.209-.505-2.462-.966-3.63-1.561a12.943 12.943 0 01-3.185.115c-.353-.03-.705-.076-1.056-.135-1.236-.204-3.043-.68-3.793-1.789-.17-.251-.248-.532-.173-.831.124-.499.51-.849.925-1.112a22.618 22.618 0 01-.411-3.2c-.031-.579.038-1.278-.075-1.838-.066-.325-.262-.616-.332-.944-.066-.311.034-.628.216-.882.817-1.139 3.085-1.414 4.376-1.607.02-2.514.08-5.073.486-7.558-1.413-.039-3.675-.345-4.86-1.12-.24-.157-.568-.431-.607-.736-.07-.556 1.39-8.465 1.652-9.503.08-.32.224-.907.473-1.119.99-.843 3.723-.938 5-.968.175-.496.362-.988.56-1.475 1.815-4.432 4.755-8.847 8.838-11.472 1.694-1.09 3.748-1.766 5.61-2.54a806.185 806.185 0 018.523-3.563 5.485 5.485 0 01.638-2.166c.724-1.312 2.076-2.223 3.498-2.621 1.25-.35 2.714-.363 3.864.301 1.33.769 1.864 2.073 2.262 3.484 1.024.35 2.014.86 3.046 1.17.49.146 1.08.051 1.593.13 1.323.203 2.523.736 3.702 1.343.72-.304 1.434-.619 2.144-.944.06-6.372-.022-12.75-.012-19.122l.013-4.434c.004-.913-.083-1.97.125-2.86z" fill="#0C0C0C"/><path d="M54.06 77.06c.324-.025 1.127-.104 1.389.076l-.106.113c-.23.104-.486.246-.745.204-.248-.04-.4-.198-.538-.392z" fill="#3E9AFF"/><path d="M53.198 77.612c.023-.002.047-.006.07-.007.416-.026 1.128-.002 1.44.326.179.19.186.404.16.647-.558-.23-1.205-.505-1.696-.853l.026-.113zm44.855 9.985c.122.151.14.426.13.624-.003.065-.017.094-.036.149-.174.082-.22.083-.413.03-.038-.01-.074-.027-.11-.04a.63.63 0 00-.082.295c-.065.033-.12.066-.191.083-.232-.252-.263-.57-.334-.894.344-.132.669-.21 1.036-.247z" fill="#FEFEFF"/><path d="M46.67 53.331c.64.23 1.383.51 1.968.855l-.051.08c-.605.042-1.207.162-1.805.26a25.551 25.551 0 01-.112-1.195z" fill="#3E9AFF"/><path d="M101.491 86.33c.189.052.271.05.405.2.115.563-.37 1.799-.517 2.391l-.113.092-.089-.013c-.01-.023-.021-.046-.028-.07-.151-.527.1-2.1.342-2.6zm1.195 1.524c.16.051.245.088.364.207.085.786-.762 3.19-1.012 4.056l-.113-.005-.125-.148c-.114-.64.703-3.238.886-4.11zm-1.963.184l.095.083c.102.67-.433 4.543-.766 5.071l-.318.049-.056-.033c-.021-.046-.056-.087-.064-.137-.02-.127.398-4.045.466-4.364.094-.442.286-.448.643-.669zM83.186 69.865c.902.28 1.78.7 2.67 1.027l.017 1.523c-.862-.408-1.789-.728-2.69-1.041l.003-1.509zm15.321 23.34c-.25-.015-.563.01-.748-.165-.24-.866-.585-3.32-.548-4.206l.14-.097.157.17c.242.072.477-.048.705-.129a61.5 61.5 0 01.294 4.427zm-2.33-6.76c.128.065.094.023.154.133.211.39 1.08 6.084.975 6.42l-.225.083c-.024-.02-.05-.036-.071-.058-.452-.476-1.226-5.39-1.248-6.266.105-.203.213-.215.415-.312zm-36.848 21.433c.715-.048 1.682.461 2.35.714-.008 1.264-.034 2.521-.59 3.679a4.577 4.577 0 01-.631.703c-.057-1.547-.03-3.107-.037-4.655-.211-.03-.44-.049-.646-.104-.253-.067-.316-.113-.446-.337zm39.393-21.675c.22.007.382 0 .57.133.592 1.013.164 5.57-.059 6.883a.4.4 0 01-.257-.032 1.179 1.179 0 01-.088-.249c-.135-.655-.06-1.399-.104-2.069-.06-.95-.58-3.915-.062-4.666zm-18.7 21.622c.207-.025.24-.049.417.054.145.251.12.534.127.816-1.92.243-3.136 1.019-5.135.591a6.99 6.99 0 01-1.063-.375c1.841-.529 3.766-.784 5.654-1.086zM65.9 99.599c.02.006.042.006.06.018.376.262.732.542 1.121.795-.843.325-3.117 1.483-3.864 1.431l-1.225-.174.19-1.682c1.377.105 2.423.156 3.719-.388zm-10.646 2.318c.142.131.286.252.445.364 1.213.849 2.937.963 4.35.671.572-.119 1.12-.329 1.697-.425l.07-.011c-.631.292-1.27.55-1.916.804-.904.341-2.224.601-3.016 1.098-.27.17-.298.365-.36.656a10.127 10.127 0 01-.44-.173c-.48-.203-.942-.49-1.132-1.002-.242-.653.047-1.378.302-1.982zm35.604-32.812l.101.075c.064.437.034.89.027 1.33-1.507.723-3.097 1.31-4.633 1.973-.247-.294-.15-1.135-.147-1.535 1.545-.592 3.16-1.132 4.652-1.843z" fill="#FEFEFF"/><path d="M59.956 75.143l.03.073c-.545 1.145-1.645 3.672-2.348 4.573-.162.207-.369.35-.586.494a28.912 28.912 0 00-1.393-.59l-.475-.157c.114-.664.167-1.148-.075-1.798l4.847-2.595zm-9.182 14.375h.01l.024.04c-.903.427-1.894.686-2.827 1.043a405.669 405.669 0 01-6.647 2.542 75.166 75.166 0 01.002-2.781c3.175.228 6.313-.34 9.438-.844z" fill="#3E9AFF"/><path d="M18.145 102.166c.03.019.058.038.087.059.327.239.736.687.756 1.116.017.344-.204.642-.44.868-1.528 1.465-4.769 1.898-6.787 1.848-1.738-.042-3.95-.372-5.212-1.688-.086-.213-.15-.408-.133-.641.028-.417.348-.674.642-.926.078.21.154.426.258.625.393.754 1.247 1.198 2.029 1.445 2.096.663 5.319.626 7.298-.414 1.006-.528 1.184-1.295 1.502-2.292zm34.639-25.469c.386.022.62.269.895.508-.252.037-.503.078-.753.123-.211.041-.42.098-.547.284.155.606 2.245.85 2.528 1.5-.031.25-.127.309-.29.495a.411.411 0 000 .287c.031.109.066.216.095.326-.15.287-.688.47-.983.602-1.334.212-2.278-.496-3.535-.659-.095-.92-.1-1.85-.125-2.773.292.038.588.057.88.085.587-.321 1.2-.571 1.835-.778z" fill="#FEFEFF"/><path d="M66.63 92.01c2.29-.835 4.502-1.89 6.797-2.72.691.21 1.376.461 2.06.693-.1.127-.206.246-.346.33-.762.46-1.722.773-2.546 1.117-1.956.815-3.958 1.76-6.02 2.265l.054-1.684z" fill="#3E9AFF"/><path d="M58.662 54.2c.551.125 1.126.42 1.653.632l3.53 1.436 4.702 1.863c.96.386 1.966.76 2.868 1.271.005.331-.028.66-.055.99l-.625-.214a724.616 724.616 0 01-9.139-3.666c-1.36-.561-2.861-1.067-4.144-1.771l1.21-.542zM11.686 94.29l.146.042c.095.224.039.524.024.763-1.14.096-3.61.246-4.46.992-.119.104-.115.14-.13.288.07.098.136.172.234.246 1.488 1.124 4.541 1.166 6.31.957.992-.118 2.97-.264 3.623-1.09.039-.162.072-.236-.04-.384-.484-.635-3.37-.933-4.17-.965-.016-.246.002-.505.004-.752.546.018 1.083.097 1.623.172.511.095 1.023.19 1.526.322.58.152 1.614.478 1.887 1.057.091.194.108.368.02.567-.244.558-1.014.953-1.564 1.155-2.53.934-6.657 1-9.13-.153-.413-.193-.994-.511-1.116-.989a.745.745 0 01.127-.596c.834-1.209 3.7-1.416 5.086-1.632zm64.648-32.91c1.912.566 3.818 1.45 5.676 2.18 2.254.889 4.605 1.702 6.79 2.744-.006.395-.02.79-.03 1.183l-.672-.253c-2.436-.913-4.838-1.939-7.257-2.897-1.901-.753-3.903-1.433-5.735-2.336.404-.218.814-.421 1.228-.62zM11.643 73.446c1.617-.106 4.71-.08 6.03.864.176.126.292.25.334.47a.456.456 0 01-.136.266c-.659.692-2.977.818-3.915.88-.02-.27-.061-.537-.102-.805-.23-.262-.551-.388-.895-.408a1.187 1.187 0 00-.882.349c-.272.26-.246.529-.254.878-1.078-.099-2.44-.182-3.396-.741-.24-.14-.386-.269-.462-.542.02-.134.036-.207.125-.316.528-.655 2.766-.84 3.553-.895zm68.157 31.84l.05.007c.234.308.094 1.729.09 2.157-1.723.324-3.452.602-5.175.94-1.49.293-3.142.697-4.644.85a1.674 1.674 0 01-.636-.074l.005-.215c.015-.501-.02-.803-.246-1.257 3.482-.925 7.058-1.537 10.556-2.408z" fill="#FEFEFF"/><path d="M26.738 101.426c2.814 1.164 5.63 2.357 8.476 3.44-.01.469-.16 1.467.224 1.808.1.09.248.159.366.224-.325.092-.58.082-.908-.005-1.371-.367-2.741-1.072-4.047-1.626a200.032 200.032 0 00-6.795-2.752c.895-.359 1.799-.705 2.684-1.089z" fill="#3E9AFF"/><path d="M42.404 114.301c1.185-.063 2.383-.029 3.57-.029l5.73.008.01 2.476-9.34.025c-.017-.821-.047-1.663.03-2.48z" fill="#FEFEFF"/><path d="M18.55 97.98c1.002.303 1.994.795 2.958 1.205 1.64.693 3.275 1.396 4.906 2.109-.778.379-1.628.661-2.436.974l-4.969 1.993c.205-.416.35-.803.224-1.27-.143-.533-.581-.873-1.032-1.144.26-1.252.307-2.59.35-3.866z" fill="#3E9AFF"/><path d="M57.534 28.793c.318.118.632.252.947.378.073 1.675.02 3.375.02 5.053l-.004 9.62.007 6.45c0 1.18.064 2.403-.033 3.58l-.183.12-.78.324c-.08-5.48-.007-10.971-.008-16.453l-.004-5.796c0-1.08-.053-2.2.038-3.276zm17.153 6.657c.352.155.712.288 1.071.425.092 6.585.023 13.177.037 19.763.002.809.107 5.153.016 5.445-.07.227-.18.258-.367.377l-.746.307c-.075-2.163-.023-4.35-.028-6.515-.016-6.598.116-13.205.017-19.801zm-22.595 80.086c.603.043 1.214.003 1.818-.016.01 1.29.006 2.58-.012 3.87-.958.055-1.939.017-2.9.019a375.496 375.496 0 00-6.628.01c-.241.007-.483.016-.725.015-.318-.001-.708-.043-.923-.311-.341-.423-.209-1.438-.204-1.967 3.184-.005 6.38.045 9.562-.065.014-.517.008-1.037.012-1.555zm43.996-22.572c.698.29 1.369.512 2.12.615 1.315.18 2.719.175 3.815-.65-.153 1.742-.502 3.493-.78 5.22-.044.263-.12.521-.186.78-.343.23-.671.4-1.078.489-1.005.222-2.09.062-2.965-.48-.177-.678-.232-1.407-.34-2.1-.2-1.29-.427-2.578-.586-3.874zm-44.416 16.68l.081.006c.48.248 1.41 1.811 1.803 2.309.972.19 1.916.435 2.867.709-1.381.771-2.852 1.38-4.239 2.15-.061-.114-.05-.284-.006-.41.06-.173.285-.216.439-.283-.892-.442-2.578-.233-3.577-.222-2.17.012-4.339.005-6.508-.023 3.06-1.383 6.069-2.872 9.14-4.236zm5.185-4.812c2.17.676 4.305 1.531 6.436 2.323l13.299 5.083c-.03.547-.023 1.097-.027 1.644-1.556-.788-3.25-1.331-4.882-1.941-2.924-1.092-5.832-2.236-8.767-3.302-2.015-.731-4.147-1.346-6.09-2.251-.014-.518.014-1.039.03-1.556zm-11.676 3.271c1.894.507 3.792.993 5.696 1.459l-.086.053c-1.24.75-2.757 1.266-4.078 1.884l-2.962 1.406c-.407.194-.92.511-1.349.618-.163.041-.389-.039-.549-.079l-5.845-1.524c1.262-.574 2.563-1.077 3.844-1.611a408.452 408.452 0 015.33-2.206zm.912-55.478l.057.013c.186.327.432 2.86.456 3.367.045.951-.1 2.057-.789 2.768-.722.745-2.028.986-2.993.64-.329-.118-.688-.367-1.038-.369.008.019.014.038.023.056.263.48.883.682 1.371.825-.145.356-.287.623-.605.854-.803.584-1.853.513-2.776.35-.334-.094-.644-.238-.96-.378.244-.14.478-.277.674-.48.983-1.027.838-2.634.81-3.946-.289-.263-.542-.545-.682-.915-.099-.259-.149-.553-.024-.813.111-.233.374-.425.618-.5.747-.228.553.878.987 1.14l.134-.038c.028-.133.052-.28.1-.407a.532.532 0 01.23-.293c.478-.325 1.225-.53 1.768-.735.909-.341 1.783-.678 2.64-1.14z" fill="#FEFEFF"/><path d="M44.435 58.024c.329.036.658.018.988.027l.077.084-.07.17c-.257.088-.534.223-.81.176-.154-.159-.144-.243-.184-.457zm.387-3.169c.062.015.115.024.172.058.22.127.528.744.62.984.128.33.212.829.047 1.159-.13.259-.33.313-.587.398a.567.567 0 01-.308-.129c.009-.432.41-.231.659-.478.102-.673-.571-1.288-.603-1.992z" fill="#0C0C0C"/><path d="M77.097 101.801l.144-.003c.566.491 1.999 2.444 2.458 3.116-3.515.928-7.11 1.582-10.64 2.459-.158.057-.078.054-.242.007-.292-.283-1.924-2.401-2.09-2.733-.097-.193-.127-.33-.06-.534.851-.478 2.163-.594 3.118-.796 2.426-.514 4.909-.923 7.312-1.516z" fill="#FEFEFF"/><path d="M67.155 76.41c2.535.343 4.865 1.07 7.101 2.324.541.304 1.138.631 1.587 1.066-1.696.735-3.43 1.399-5.144 2.094-1.458.57-2.909 1.158-4.352 1.764-.548-1.807-1.134-3.126-2.598-4.36.914-.521 2.333-1.124 2.965-1.951.198-.258.317-.637.441-.937z" fill="#3E9AFF"/><path d="M112.4 97.339c.062.011.021-.001.106.075.029.488-.052.998-.1 1.485-3.112 1.233-6.18 2.611-9.27 3.899L76.99 113.759c-.075-.016-.027 0-.128-.079-.04-.459-.002-.923.018-1.382 1.928-.737 3.818-1.597 5.72-2.399a723.078 723.078 0 009.674-4.075l20.126-8.485zM68.962 70.06c.14-.012.08-.015.23.008.148.023.122.037.205.149.02.313-.108.636-.22.927-.405 1.052-.98 2.054-1.448 3.082-.47 1.034-.84 2.124-1.375 3.127-2.41 1.429-4.923 2.746-7.279 4.257l-.746-.44-1.095-.533a3.04 3.04 0 00.758-.69c.429-.576.706-1.264 1.012-1.908.533-1.124 1.04-2.266 1.641-3.356.95-.47 1.854-1.04 2.775-1.564 1.822-1.038 3.676-2.105 5.542-3.058z" fill="#FEFEFF"/><path d="M63.62 74.761c.11.005.207.027.315.05.121.116.191.166.178.353-.029.414-.456.807-.735 1.081a.687.687 0 01-.372-.07c-.082-.128-.117-.164-.101-.322.042-.42.417-.826.715-1.091z" fill="#0C0C0C"/><path d="M73.241 94.373c1.055.248 2.145.779 3.165 1.164 2.292.865 4.616 1.708 6.858 2.697l.01 3.589c.002.683.043 1.394-.035 2.073a111.94 111.94 0 00-5.41-2.039c-.081-.118-.168-.272-.27-.371-.147-.142-.292-.131-.482-.119-.864.054-2.984-.87-3.898-1.191-.056-.713.001-1.443.01-2.157.015-1.215.01-2.431.052-3.646z" fill="#3E9AFF"/><path d="M72.772 98.372c.145.465-.118 1.497.075 1.833.32.556 2.695 1.194 3.397 1.447-1.26.195-9.284 1.705-9.75 2.142-1.105 1.035 2.715 3.811 2.616 5.033l-.064.042c-1.376-.337-2.773-.971-4.087-1.502l-4.6-1.7c-1.018-.374-2.063-.815-3.123-1.045 1.542-.406 3.093-1.1 4.577-1.683 3.684-1.446 7.302-3.053 10.959-4.567zm11.387-7.531c2.91 1.03 5.823 2.075 8.75 3.052-2.984 1.133-6.03 2.484-8.954 3.789l-.18.089c-.145.067-.243.128-.404.08-.775-.234-1.566-.647-2.325-.945a397.786 397.786 0 00-5.882-2.242c3.006-1.25 6.032-2.473 8.995-3.823zM18.12 97.277c.012.015.025.03.035.046.28.53-.25 4.358-.427 5.018-.205.769-.507 1.4-1.233 1.798-1.787.978-5.033 1.007-6.945.432-.815-.246-1.52-.592-1.933-1.37-.746-1.746-.737-3.824-.784-5.695.918.53 1.901.809 2.941.989 2.565.443 6.146.339 8.346-1.218z" fill="#FEFEFF"/><path d="M63.29 58.85c.1.004 15.74 6.475 17.174 7.13-1.715.175-2.629 1.098-3.708 2.324-4.531-1.875-9.14-3.56-13.664-5.45-1.124-.47-2.271-.891-3.377-1.404-.112-.224-.2-.465-.296-.697 1.285-.646 2.596-1.237 3.87-1.903zm20.793 30.978c.686.149 1.364.426 2.03.655l3.583 1.246c1.627.573 3.35 1.043 4.932 1.72.154 1.843.047 3.773.048 5.626-3.64 1.644-7.43 3.013-11.01 4.778-.035-1.874-.003-3.754 0-5.629 1.693-.843 3.476-1.53 5.224-2.248 1.252-.516 3.77-1.352 4.725-2.19-.82-.4-1.742-.658-2.603-.954l-4.369-1.498c-.757-.26-1.614-.478-2.312-.87-1.136.305-2.264.892-3.352 1.349l-6.326 2.668-.884-.331c.689-.306 1.407-.555 2.103-.845l4.026-1.713c1.4-.58 2.809-1.129 4.185-1.764zM18.092 73.585c1.517.334 3.054 1.115 4.505 1.681 3.22 1.243 6.43 2.515 9.627 3.817 1.076.429 2.154.85 3.236 1.264.699.27 1.509.514 2.14.918-.869.1-1.433.374-2.17.822-.858.609-1.342 1.257-1.825 2.181-3.308-1.434-6.717-2.703-10.065-4.044-1.453-.583-2.98-1.081-4.361-1.822-.246-1.091-.658-3.556-1.099-4.442-.058-.116-.007-.247.012-.375zm45.358 5.902c.448.178 1.27 1.317 1.54 1.76 2.002 3.286 1.325 10.663 1.068 14.45-.049.712-.098 2.77-.305 3.32-.092.246-.411.417-.64.505-.665.255-2.129.39-2.779.086l-.055-.155c.315-3.044.6-6.143.462-9.206-.146-3.24-.923-6.17-3.378-8.406l4.087-2.354zM36.288 54.419l.046.084c.034 1.273-.274 2.594-.961 3.673-2.453 1.134-5.06 1.955-7.481 3.173-4.483 2.255-8.582 7.806-10.146 12.521-1.136-.447-2.257-.644-3.462-.786-.346-.006-.693-.03-1.038-.05.13-.43.303-.844.477-1.258 1.866-4.433 4.807-9.08 9.044-11.572 1.654-.973 3.59-1.631 5.357-2.374a872.799 872.799 0 018.164-3.411zM7.756 75.252a6.18 6.18 0 001.84.748c2.43.575 6.324.654 8.522-.686.283 1.202 2.064 8.46 1.815 9.176-.18.514-.819.761-1.274.968-2.63.982-6.183.929-8.952.523-.97-.142-2.856-.347-3.45-1.205-.151-.218-.144-.41-.124-.666.086-1.1.401-2.258.61-3.349l1.013-5.51z" fill="#3E9AFF"/><path d="M82.975 83.812a1328.99 1328.99 0 0012.703 5.013c.14.943.317 1.879.53 2.808-.306.31-.495.577-.49 1.028.002.174.015.348.027.522l-.11-.017-.061.049c-.191.149-.314.22-.55.272-.14-.185-.271-.327-.48-.434-1.252-.644-2.866-1.034-4.207-1.493-2.075-.71-4.147-1.517-6.252-2.127l-7.39 3.094c-1.07.454-2.223.866-3.25 1.403-.197.104-.421.213-.505.43-.261.675-.135 2.798-.135 3.635a443.83 443.83 0 00-5.327 2.197c-.487-.284-.963-.552-1.349-.972.176-1.84.325-3.681.445-5.525 2.063-.505 4.065-1.45 6.022-2.265.823-.344 1.783-.657 2.545-1.116a1.34 1.34 0 00.347-.33c.852.34 2.184 1.05 3.098.94.198-.025.397-.118.503-.293.17-.28.047-.636-.017-.933-.656-.758-1.94-1.177-2.836-1.577.923-.38 1.844-.783 2.789-1.105-.01.865-.04 1.729.104 2.585.15.202.291.333.555.354a.657.657 0 00.532-.218c.431-.466.206-2.561.233-3.267 1.34-.627 1.995-1.29 2.526-2.658z" fill="#3E9AFF"/><path d="M102.424 92.89c2.106.829 4.219 1.638 6.34 2.427 1.041.39 2.133.739 3.145 1.197.182.083.327.15.454.308-.14.21-.442.327-.671.43-2.084.934-4.228 1.756-6.334 2.64-4.233 1.816-8.476 3.61-12.728 5.381l-9.78 4.112c-2.016.849-4.031 1.784-6.096 2.506-1.986-.742-4.18-1.745-6.182-2.33 1.144-.224 2.296-.458 3.453-.598.432.555 1.325.718 1.992.805.412.053.81.067 1.224.027.57-.055 3.037-.627 3.597-.815.027-.46.145-1.077-.198-1.452-.085-.093-.19-.171-.289-.248-.105-.606.002-1.21-.035-1.819-.055-.895-1.568-2.35-2.132-3.072 1.745.565 3.422 1.391 5.183 1.88.778-.259 1.528-.624 2.28-.951 1.048-.455 2.1-.902 3.156-1.341l3.911-1.648c.765-.323 1.624-.618 2.327-1.06l.032-3.537c.007-.728.067-1.527-.05-2.245.237-.052.36-.123.551-.272l.062-.05.109.017c.106.904.708 5.308.97 5.864.05.104.15.2.24.271.656.524 1.89.61 2.7.506.509-.066 1.37-.252 1.674-.689.433-.62.978-5.24 1.095-6.245z" fill="#FEFEFF"/><path d="M34.947 58.728c.153.128.235.344.399.484.814.693 2.038 1.05 3.022 1.428-.61.385-1.208.785-1.758 1.253-5.19 4.417-4.914 10.306-5.382 16.427-2.242-1.004-4.59-1.842-6.875-2.744a189.075 189.075 0 00-6.036-2.337c.017-.037.032-.074.05-.11 2-4.34 4.72-8.61 8.94-11.095 1.106-.65 2.33-1.108 3.51-1.605 1.37-.578 2.738-1.175 4.13-1.7zm45.343 7.595c.356-.036.692-.043 1.031.085.589.222.98.652 1.228 1.224.173.398.255.828.285 1.26.114 1.646-.03 3.492-.019 5.169l.006 5.32c.002 1.048.058 2.128-.028 3.172a5.41 5.41 0 01-.401 1.64c-.24.566-.558 1.034-1.078 1.378-.91.602-2.094.904-3.105 1.326a384.968 384.968 0 01-9.661 3.918c-.635.249-1.26.527-1.889.791.1-2.568.053-5.035-.237-7.588 2.245-.99 4.555-1.858 6.834-2.769.99-.396 2.02-.756 2.974-1.227.06-.787.014-1.604.011-2.394v-4.227c.003-1.018-.035-2.066.176-3.067a5.828 5.828 0 01.874-2.073 4.53 4.53 0 01.757-.856 4.584 4.584 0 011.576-.912 4.581 4.581 0 01.666-.17zM49.497 54.512c.974.022 1.924.115 2.863.384 2.76.789 4.926 2.597 6.29 5.103a11.69 11.69 0 011.173 3.188c.3 1.398 1.07 10.18.791 11.12-.486.16-4.731-.321-5.59-.402-1.991-.053-4.018-.303-6.006-.45l-.164-4.127c-.042-.88-.054-1.788-.222-2.654-.403-2.075-1.762-3.816-3.407-5.078-.363-.277-1.682-1.033-1.822-1.334.392-.559 2.098-.464 2.832-1.403.848-1.083.764-2.692.588-3.978a18.363 18.363 0 012.674-.369zM37.453 81.638c.883.044 1.59.19 2.242.842.585.583.986 1.382 1.159 2.186.217 1.013.114 2.167.111 3.2-.004 1.93-.041 3.865 0 5.795 1.123-.364 2.231-.85 3.334-1.276l4.7-1.768c1.065-.405 3.004-1.354 4.097-1.356.478 0 .99.122 1.333.478.856.89.55 4.671.528 5.891a328.637 328.637 0 01-5.226 2.128l-8.862 3.665c-1.404.578-3.14 1.473-4.607 1.749-.72.136-1.341.003-1.944-.424-.476-.336-.87-.851-.958-1.435-.133-.874-.081-1.794-.083-2.677l-.006-4.125-.006-5.202c0-1.237-.084-2.534.132-3.753.127-.712.585-1.48 1.013-2.054.744-.997 1.81-1.678 3.043-1.864z" fill="#3E9AFF"/><path d="M55.1 80.392c1.467.5 2.862.818 4.101 1.814 2.046 1.646 2.821 4.378 3.079 6.882.098.925.145 1.853.14 2.784-.017 1.465-.475 9.593-.995 10.179-.51.574-1.862.676-2.592.696-.997.027-2.382-.162-3.117-.904a1.14 1.14 0 01-.326-.64c-.205-1.125-.083-2.406-.066-3.547a234.9 234.9 0 00.035-5.106c-.015-.971.087-2.264-.606-3.032-.345-.382-.873-.585-1.379-.62-1.317-.09-2.833.309-4.132.517-2.642.423-5.217.791-7.9.64a157.69 157.69 0 01-.012-3.226c0-2.138-.105-3.295-1.661-4.875 2.697.016 5.428-.468 8.075-.952.824-.151 1.743-.259 2.523-.567.758.255 1.543.604 2.333.733 1.033.167 1.698-.195 2.5-.776z" fill="#3E9AFF"/><path d="M43.182 60.698c2.347 1.22 4.404 3.167 5.03 5.821.327 1.391.36 4.132.373 5.623.003.384-.064 1.192.181 1.5.116.145.45.16.628.182 1.309.163 2.656.197 3.971.295 2.201.174 4.4.362 6.599.563-1.252.72-2.516 1.42-3.79 2.1-.797-.056-1.6-.133-2.395-.012-.26-.173-.533-.318-.806-.468-.812.203-1.584.533-2.363.839-.643-.105-1.271-.29-1.923-.343-.724-.058-1.476.01-2.203.022-1.475.03-2.95.028-4.425-.007a126.98 126.98 0 00-.653-6.397l-.014-.129c-.033-.286-.117-.576-.35-.761l-.05.03c-.05.145-.053.288-.043.441.055.758.24 1.54.317 2.308.157 1.572.19 3.27.503 4.814 1.9.339 6.444-.331 7.84.216.135.156.106.238.114.44.008.82.048 1.637.12 2.453l-.07.016c-1.321.304-2.691.51-4.03.732-1.94.323-4.087.773-6.06.617-.492-.039-.958-.133-1.379-.406-2.476-1.602-1.86-6.909-2.478-9.493-.052-.22-.091-.39-.287-.512l-.066.087c-.041.893.172 1.863.278 2.753.275 2.314.283 4.572 1.429 6.665-1.847-.77-3.705-1.51-5.575-2.221.099-2.918.156-5.976.828-8.83.873-3.704 2.971-6.759 6.217-8.758.733.543 1.57.771 2.48.704.749-.055 1.551-.296 2.052-.884z" fill="#FEFEFF"/><path d="M102.655 91.054c1.325.474 2.632 1.024 3.948 1.529a855.162 855.162 0 0111.049 4.296l10.397 4.052c1.779.692 3.584 1.339 5.345 2.077-2.25.99-4.55 1.877-6.819 2.822l-19.363 7.898-18.859 7.729a762.563 762.563 0 00-12.244 5.052c-2.08.874-4.608 2.082-6.698 2.752a1065.166 1065.166 0 01-11.26-4.762c-3.722-1.573-7.465-3.106-11.17-4.721 1.177-.041 6.517.234 7.21-.216.263-.79.072-3.428.06-4.394-.637.009-1.273.014-1.91.015.762-.46 1.546-.881 2.35-1.262.748-.359 1.68-.688 2.326-1.213v-.141c-.44-.392-2.595-.778-3.285-.925a61.027 61.027 0 00-1.736-2.366c-1.074.122-5.57-1.175-6.86-1.548-.899.288-9.387 3.851-9.719 4.157-.103.096-.078.048-.083.182.518.268 1.24.364 1.813.511 1.542.396 3.131.736 4.654 1.198.157.048.34.09.417.238-.495 1.053-.21 2.69-.114 3.828-.942-.513-1.939-.878-2.93-1.283l-3.813-1.583-13.175-5.564c-2.466-1.042-5.06-1.988-7.44-3.21.84-.2 1.691-.43 2.482-.784.684-.307 1.334-.679 2.025-.974 1.585-.676 3.2-1.293 4.8-1.929 2.283.875 4.548 1.793 6.796 2.752 1.306.554 2.676 1.259 4.047 1.626.328.087.583.096.908.005.278.011.54.008.762-.184.219-.19.282-.506.294-.782.018-.413-.022-.827.01-1.241 1.5-.732 3.092-1.281 4.636-1.912a628.797 628.797 0 017.507-3.08c1.982-.802 3.993-1.564 5.931-2.465-.025 1.418-.123 2.856.118 4.259-.333.779-.773 1.695-.439 2.546.304.773 1.14 1.12 1.85 1.425-.02.461-.096.83.25 1.191.529.55 1.65.725 2.363.974-.065 1-.016 2.007-.023 3.009-.006.877-.101 1.849.024 2.713.034.234.108.549.287.721a.532.532 0 00.434.158.773.773 0 00.5-.267c.118-.161.153-.401.193-.592.998-.805 1.297-1.743 1.434-2.976.062-.558.093-1.133.098-1.693a422.57 422.57 0 016.446 2.396c1.424.547 2.864 1.178 4.321 1.626 1.05.406 2.133.765 3.15 1.25a3.169 3.169 0 01-.279.112c-.23.538-.06 4.134-.1 5.016-.016.449-.053.801.288 1.154.13.135.213.163.396.185a.695.695 0 00.436-.315c.064-.1.11-.215.156-.324.102-1.842.026-3.749-.014-5.595l18.756-7.856c1.525-.631 3.027-1.318 4.561-1.925 3.127-1.284 6.241-2.6 9.341-3.948-.001.827-.114 5.229.041 5.716.053.167.232.341.397.409.192.079.237.049.414-.028.178-.229.252-.435.296-.722.118-.763.035-1.635.026-2.406-.013-1.147-.003-2.295-.002-3.442.662-.245 1.411-.516 2.013-.881.125-.693.346-1.587.103-2.266-.068-.19-.153-.345-.334-.449-.918-.523-2.06-.842-3.048-1.215-2.349-.887-4.754-1.72-7.037-2.767.086-.459.196-.916.295-1.373z" fill="#3E9AFF"/><path d="M72.8 112.724c1.05.406 2.133.765 3.15 1.25a3.169 3.169 0 01-.279.112c-.23.538-.06 4.134-.1 5.016-1.337-.133-2.972-.893-4.013-1.735-.513-.414-.986-.95-1.04-1.636-.136-1.751 1.54-2.08 2.205-2.907l.077-.1zm4.034 1.483l18.755-7.856c1.525-.631 3.027-1.318 4.561-1.925.02.027.039.054.06.08.242.285 1.165.512 1.533.65 1.142.429 2.257.931 3.388 1.391.965.392 2.251.712 3.075 1.34.411.313.657.673.651 1.199-.005.401-.124.864-.43 1.144-.448.411-21.702 9.485-23.478 10.003-1.414.413-2.834.489-4.3.363a16.028 16.028 0 01-3.802-.794c.102-1.842.026-3.748-.013-5.595z" fill="#3E9AFF"/></g><defs><clipPath id="clip0_8_2016"><path fill="#fff" d="M0 0h140v140H0z"/></clipPath></defs></svg>