<svg width="140" height="140" fill="none" xmlns="http://www.w3.org/2000/svg"><g clip-path="url(#clip0_8_2104)"><path d="M0 0h140v140H0V0z" fill="#FEFEFE"/><path d="M36.586 124.106c.705-.185 2.77-.202 3.646-.274l12.67-.966 45.95-3.494 7.37-.536c2.334-.163 4.897-.11 7.114-.907-.991 1.216-3.065 2.604-4.334 3.525-9.063 6.576-20.213 10.575-31.326 11.713a63.11 63.11 0 01-4.26.318 63.423 63.423 0 01-3.205.058 63.435 63.435 0 01-3.204-.098 63.27 63.27 0 01-4.257-.371 62.86 62.86 0 01-2.116-.289 62.538 62.538 0 01-3.156-.56 74.027 74.027 0 01-2.087-.459 62.234 62.234 0 01-3.1-.813 72.49 72.49 0 01-2.043-.625 71.18 71.18 0 01-2.022-.691 70.696 70.696 0 01-1.998-.756 59.577 59.577 0 01-1.974-.82 68.498 68.498 0 01-6.569-3.358c-.297-.175-.769-.541-1.099-.597zm80.621-97.032c11.913 11.958 18.311 26.635 18.283 43.603a60.57 60.57 0 01-.174 4.426 65.875 65.875 0 01-.295 2.939 65.87 65.87 0 01-.2 1.463 59.612 59.612 0 01-.814 4.354 59.111 59.111 0 01-.717 2.865 58.169 58.169 0 01-1.333 4.224 57.512 57.512 0 01-1.057 2.758 60.961 60.961 0 01-6.351 11.646 60.765 60.765 0 01-3.605 4.678 60.396 60.396 0 01-2.991 3.267c-.39.388-.802.831-1.252 1.146.588-1.97.474-3.903.473-5.933l-.006-4.703v-12.7l-.014-48.257.053-15.776z" fill="#3E9AFF"/><path d="M121.345 53.2c.041.02.084.033.121.057.661.427 2.603 6.107 2.902 7.118 2.626 8.894 2.079 19.018-1.417 27.598-.432 1.061-.864 2.151-1.412 3.16-.097-.063-.224-.126-.267-.243-.075-.202.216-.826.31-1.017a39.607 39.607 0 001.647-4.005 38.975 38.975 0 00.854-2.758 39.693 39.693 0 00.902-4.235 40.236 40.236 0 00.338-2.498 43.985 43.985 0 00.184-2.514 40.756 40.756 0 00-.209-6.294 40.445 40.445 0 00-.351-2.496 40.08 40.08 0 00-.503-2.47c-.096-.41-.199-.817-.308-1.223a39.422 39.422 0 00-.726-2.414 43.711 43.711 0 00-1.188-3.155c-.257-.599-.916-1.659-1.022-2.211-.037-.193.043-.248.145-.4z" fill="#FEFEFE"/><path d="M120.947 39.474c.066.004.119.005.183.024.861.264 4.544 6.38 5.165 7.53 6.537 12.085 7.407 26.188 3.513 39.26-.131-.054-.265-.096-.359-.21-.072-.087-.024-.213.002-.314.556-2.08 1.105-4.134 1.477-6.259 1.901-10.872.29-22.572-5.068-32.278a44.203 44.203 0 00-2.96-4.737c-.395-.553-.781-1.118-1.189-1.66-.224-.299-.498-.568-.698-.883-.121-.19-.117-.26-.066-.473z" fill="#FEFEFE"/><path d="M57.167 8.166a66.982 66.982 0 018.387-1.134 67.596 67.596 0 018.463-.072 67.393 67.393 0 0117.77 3.4 67.967 67.967 0 013.408 1.247 76.846 76.846 0 014.666 2.064c.495.238 1.083.456 1.541.75.82-.043 1.783-.212 2.583.006 1.151.314 2.466 1.157 3.544 1.704 1.622.816 3.234 1.651 4.836 2.505.76.4 1.544.771 2.284 1.205.283.166.551.351.795.57 1.15 1.03 1.701 2.404 1.775 3.932.043.874.072 1.861-.012 2.73l-.053 15.777.014 48.257v12.7l.005 4.703c.002 2.03.115 3.963-.472 5.933-.848 1.627-1.73 2.637-3.366 3.486-2.216.797-4.78.744-7.114.907l-7.37.536-45.949 3.494-12.67.966c-.876.072-2.942.088-3.646.274-.996.082-1.995.182-2.993.237-.358.019-.726.025-1.07-.089-1.193-.397-2.51-1.2-3.653-1.768-1.76-.875-3.594-1.681-5.301-2.649-.275-.156-.595-.348-.816-.576-.418-.434-.247-4.575-.25-5.488-.96-.843-1.829-1.865-2.662-2.832a63.497 63.497 0 01-5.92-8.024 63.371 63.371 0 01-1.686-2.868 60.25 60.25 0 01-2.728-5.51 61.045 61.045 0 01-3.97-12.909 60.874 60.874 0 01-.893-15.922 60.946 60.946 0 01.388-3.67c.31-2.196.67-4.417 1.277-6.553.549-1.82 1.008-3.65 1.652-5.442a65.8 65.8 0 0110.468-18.856 65.616 65.616 0 011.982-2.377c.661-.754 1.31-1.54 2.014-2.256.146-1.319.445-2.471 1.168-3.6 1.151-1.796 3.047-3.048 5.186-3.238.793-.07 1.657-.007 2.392-.35.668-.313 1.304-.835 1.918-1.245 1.137-.758 2.298-1.502 3.495-2.161 1.266-.698 2.54-1.425 3.834-2.068 5.394-2.683 10.88-4.434 16.75-5.726z" fill="#0C0C0C"/><path d="M102.418 15.068c.533-.036 1.005-.049 1.525.102.963.279 1.89.855 2.78 1.316 1.779.906 3.534 1.856 5.267 2.848-1.444.028-2.909.196-4.349.305l-7.715.569c-.936.07-3.221.38-4.039.207-3.286-1.374-6.56-2.744-9.818-4.186 5.435-.461 10.903-.87 16.349-1.161z" fill="#5F5F5E"/><path d="M89.807 21.633l.148.008c.018.042.043.083.056.128.058.19.037 14.788-.083 15.55a4.32 4.32 0 01-.63 1.64 4.276 4.276 0 01-.352.471c-1.131 1.336-2.516 1.432-4.147 1.557l-2.546.199c-.064.008-.016.006-.136-.036-.205-.7-.069-4.455-.067-5.533l.023-13.39c2.568-.055 5.166-.427 7.734-.594z" fill="#FEFEFE"/><path d="M27.791 87.218c1.577.738 3.121 1.58 4.684 2.35l-.077 33.814c-1.556-.654-3.051-1.542-4.588-2.256l-.019-33.908z" fill="#5F5F5E"/><path d="M57.209 8.294c.373.738.593 2.136.81 2.975l1.622 6.244c-9.436.725-18.877 1.393-28.321 2.004a68.924 68.924 0 0110.755-6.248 68.759 68.759 0 016.933-2.78c2.693-.892 5.435-1.57 8.2-2.195z" fill="#FEFEFE"/><path d="M84.038 16.366l.763-.041c.962.563 2.013.995 3.03 1.45 2.215.989 4.464 1.884 6.693 2.84l-31.28 2.322c-3.786.28-7.58.52-11.363.84-.366.02-.812.133-1.169.044-1.018-.255-2.823-1.239-3.877-1.73-1.834-.854-3.73-1.643-5.522-2.578 1.548-.034 3.113-.216 4.659-.33l8.882-.65 29.184-2.167z" fill="#A9C6F6"/><path d="M6.414 55.623c2.389-10.039 8.748-21.497 16.022-28.81l.037 32.528c-.063 0-.086 0-.156-.01-.633-.096-1.28-.289-1.906-.425l-4.551-1-4.962-1.13c-1.329-.293-2.682-.55-3.994-.911-.188-.052-.362-.083-.49-.242z" fill="#FEFEFE"/><path d="M57.167 8.166A67.155 67.155 0 0167.97 6.903a67.376 67.376 0 0120.347 2.395 67.454 67.454 0 016.879 2.309 76.818 76.818 0 014.665 2.064c.495.238 1.083.456 1.541.75-3.735.363-7.502.543-11.247.811l-20.27 1.492a493.87 493.87 0 00-10.244.79l-1.622-6.245c-.217-.84-.437-2.237-.81-2.975l.035-.042-.077-.086z" fill="#3E9AFF"/><path d="M22.503 113.773c-.96-.843-1.829-1.865-2.662-2.832a63.497 63.497 0 01-5.92-8.024 63.371 63.371 0 01-1.686-2.868 59.907 59.907 0 01-2.227-4.387 61.423 61.423 0 01-2.275-5.712 61.174 61.174 0 01-2.412-9.53 60.984 60.984 0 01-.29-18.382c.31-2.196.672-4.417 1.278-6.553l.105.139c.128.158.302.189.49.24 1.312.362 2.665.619 3.994.913l4.962 1.129 4.55 1c.628.136 1.274.33 1.907.425.07.01.093.01.156.01l-.027 39.724c.008 4.9.12 9.81.057 14.708z" fill="#0D5ADB"/><path d="M38.8 19.716c.278-.02.603-.068.875-.003.907.217 1.818.746 2.669 1.133 2.214 1.009 4.403 2.133 6.654 3.051-2.472.347-5.046.405-7.54.579-1.284.09-2.674.1-3.912.47a6.833 6.833 0 00-1.507.667 6.757 6.757 0 00-1.3 1.012c-1.028 1.033-1.875 2.462-2.112 3.914-.323 1.983-.15 4.258-.15 6.284l-.004 11.203.011 40.748c-1.044-.51-4.137-2.224-5.05-2.418-.17-.036-.193-.042-.33.053a.682.682 0 00-.095.29c-.049.838.005 1.712.004 2.553l-.008 5.481-.003 17.102.013 8.921c-1.197-.714-2.553-1.176-3.72-1.932-.122-1.988-.034-4.029-.03-6.022l-.013-9.996-.018-34.337-.013-27.97-.022-9.396c-.002-1.706-.095-3.492.069-5.19.115-1.2.73-2.454 1.515-3.358.645-.743 1.499-1.421 2.43-1.766 1.691-.626 3.799-.55 5.583-.667l6.004-.406z" fill="#5F5F5E"/><path d="M94.65 21.288c.196-.033.423-.023.624-.03-.028 7.543.06 15.088-.025 22.631-1.805.152-3.618.237-5.424.368-5.28.402-10.562.77-15.846 1.105l-22.843 1.652.006-19.004-.005-3.457c1.266-.181 2.58-.22 3.858-.317l7.321-.534 19.097-1.433.01 19.683c.96-.07 1.92-.165 2.88-.249 1.78-.155 3.563-.159 4.907-1.52a5.005 5.005 0 00.98-1.428 4.917 4.917 0 00.328-.989c.299-1.43.135-4.048.134-5.571V21.586c1.317-.156 2.673-.201 3.997-.298z" fill="#A9C6F6"/><path d="M50.136 24.57c.095-.009.174.002.268.013.175.363.06 20.38.045 22.501-1.757.038-3.536.234-5.289.364-1.324.098-2.983.081-4.246.422-.59.16-1.173.5-1.593.944a3.905 3.905 0 00-1.011 2.178c-.194 1.75-.067 4.035-.069 5.84l-.01 11.244-.004 17.064c-.007 3.138-.135 6.336 0 9.469.039.872.328 1.64.998 2.224.398.347.891.62 1.419.695 1.184.17 2.565-.062 3.757-.152l6.045-.444-.047 25.459c-1.63.087-3.26.222-4.889.335-1.268.132-2.554.19-3.826.288l-8.558.645.162-64.178-.001-19.014-.005-6.02c-.001-1.118-.06-2.277.05-3.389.131-1.33.727-2.577 1.603-3.575.676-.769 1.54-1.411 2.512-1.751 1.58-.554 3.854-.536 5.551-.66l7.138-.501z" fill="#999"/><path d="M42.119 32.906c.662.013 1.304.178 1.855.555a2.916 2.916 0 01.37.303 3.171 3.171 0 01.581.758 3.073 3.073 0 01.325.899c.01.052.019.105.026.157.143.938-.152 1.907-.712 2.662-.681.92-1.55 1.291-2.64 1.472-.82-.01-1.572-.188-2.217-.724a3.197 3.197 0 01-.424-.434 3.19 3.19 0 01-.33-.51 3.076 3.076 0 01-.337-1.344 3.732 3.732 0 01.858-2.503c.716-.846 1.572-1.183 2.645-1.291z" fill="#0C0C0C"/><path d="M41.748 33.652c.564-.056 1.122.016 1.617.304.56.328.944.902 1.089 1.53.175.76-.003 1.568-.437 2.212-.477.708-1.137 1.094-1.96 1.257-.535.03-1.017-.03-1.495-.289a2.4 2.4 0 01-1.158-1.488c-.199-.742-.034-1.57.372-2.213.46-.731 1.14-1.138 1.972-1.313z" fill="#FEFEFE"/><path d="M41.625 108.504c.72-.069 1.454.028 2.09.391.75.429 1.263 1.153 1.468 1.988.224.913.037 1.855-.443 2.654-.582.969-1.49 1.524-2.573 1.774-.81.04-1.51-.014-2.218-.463a3.017 3.017 0 01-.68-.588 3.44 3.44 0 01-.185-.237 3.268 3.268 0 01-.23-.387 3.238 3.238 0 01-.216-.56 3.532 3.532 0 01-.036-.146c-.22-.981.012-2.042.564-2.875.607-.917 1.409-1.342 2.459-1.551z" fill="#0C0C0C"/><path d="M41.688 109.188c.545-.028 1.012-.008 1.518.233.581.277.997.795 1.2 1.4a2.51 2.51 0 01.075.274 2.626 2.626 0 01.066.563 2.816 2.816 0 01-.119.84 2.768 2.768 0 01-.22.522c-.45.839-1.144 1.291-2.026 1.57-.574.087-1.136.013-1.654-.265a2.356 2.356 0 01-.59-.444 2.345 2.345 0 01-.43-.599 2.344 2.344 0 01-.18-.459c-.204-.737-.06-1.589.327-2.244.47-.794 1.164-1.176 2.033-1.391z" fill="#FEFEFE"/><path d="M111.297 20.057c1.353-.087 2.527-.114 3.643.811.93.77 1.428 2.069 1.519 3.25.135 1.727.048 3.533.052 5.266l-.011 10.29-.003 30.542-.002 28.417.007 8.805c.001 1.623.091 3.299-.051 4.914-.108 1.232-.63 2.549-1.447 3.484a5.519 5.519 0 01-.823.768 5.478 5.478 0 01-.628.414 5.828 5.828 0 01-.676.327c-.116.047-.234.09-.353.129-1.547.508-3.422.485-5.042.606l-8.13.566c.122-3.705.038-7.442.043-11.151l-.022-14.036 5.753-.418c1.149-.08 2.455-.058 3.569-.35.605-.159 1.103-.418 1.548-.862a3.25 3.25 0 00.386-.446 3.492 3.492 0 00.64-1.633c.219-1.7.069-3.563.062-5.28l-.009-9.142.038-28.545c-.007-1.193-.123-2.146-1.037-3.02-.398-.381-.913-.657-1.463-.73-1.299-.173-2.839.095-4.149.191-2.905.215-5.826.495-8.736.608l-.035-22.656c5.107-.47 10.241-.772 15.357-1.119z" fill="#999"/><path d="M107.809 102.976c.631-.01 1.213.12 1.749.468.722.469 1.21 1.244 1.37 2.085.012.057.021.114.029.172.009.057.015.115.021.172a3.385 3.385 0 01-.032.867 3.2 3.2 0 01-.249.831 3.216 3.216 0 01-.248.459 4.49 4.49 0 01-.097.143c-.589.808-1.378 1.142-2.333 1.29-.819.006-1.534-.14-2.196-.653-.679-.527-1.084-1.321-1.163-2.174-.086-.925.165-1.887.786-2.592.637-.723 1.433-.989 2.363-1.068z" fill="#0C0C0C"/><path d="M107.662 103.654c.532-.036 1.027.05 1.485.335.554.346.925.93 1.071 1.561.01.044.02.088.028.132a2.836 2.836 0 01.045.402c.001.045.002.09.001.135a2.024 2.024 0 01-.018.269 2.056 2.056 0 01-.019.134c-.007.044-.016.088-.025.132l-.032.131a2.429 2.429 0 01-.085.257 2.688 2.688 0 01-.243.481c-.435.675-1.022.97-1.777 1.14-.598.011-1.111-.033-1.637-.355a1.788 1.788 0 01-.299-.218l-.092-.082c-.029-.029-.059-.058-.087-.088-.028-.03-.056-.06-.082-.091a2.293 2.293 0 01-.279-.406 2.26 2.26 0 01-.247-.694 2.772 2.772 0 01.411-2.071c.454-.664 1.106-.977 1.881-1.104z" fill="#FEFEFE"/><path d="M98.486 93.546l.126.006c.078.106.082.183.088.31.038.828-.004 1.667-.006 2.496l-.001 5.171-.028 17.157c-15.752 1.273-31.531 2.251-47.274 3.622-.129-.019-.12-.029-.212-.107-.106-.614-.022-1.304-.026-1.931l-.023-4.585-.009-18.815c1.442-.15 2.901-.218 4.348-.32l10.175-.687 32.842-2.317z" fill="#A9C6F6"/><path d="M107.346 43.71c.022-.004.044-.008.066-.01.816-.09 1.668-.083 2.342.45.593.47.768 1.047.83 1.769.072.838.03 1.704.03 2.547l-.002 4.466-.016 14.272.009 14.971.006 4.68c.002.87.048 1.762-.015 2.63-.046.635-.262 1.22-.682 1.704a2.73 2.73 0 01-1.666.93c-.677.116-1.404.115-2.091.155-1.179.066-2.358.144-3.536.236-4.856.376-9.715.721-14.575 1.037l-45.68 3.263c-.825.103-1.737.148-2.448-.358-.575-.41-.81-.966-.903-1.645-.205-1.475-.06-3.74-.056-5.28l.08-11.753-.012-17.788-.007-5.609c0-1.059-.043-2.14.023-3.197a2.91 2.91 0 01.634-1.67 2.998 2.998 0 011.688-1.024c.829-.16 1.713-.186 2.555-.25l4.198-.317 13.403-.972 30.501-2.135a954.634 954.634 0 0015.324-1.103z" fill="#FEFEFE"/><path d="M96.78 70.963c.07.013.221.029.29.067.148.082.159.144.194.294-.073.204-.152.253-.32.375l-.312-.079c-.135-.125-.15-.136-.192-.315.106-.207.149-.224.34-.342zm-.194 2.189c.119-.002.233.002.351.013.163.016.102-.02.195.093.11 1.138.114 3.238-.01 4.368a1.88 1.88 0 01-.51-.006c-.144-1.242-.08-3.18-.026-4.468zM66.097 58.185c.148.007.08-.02.196.093a.84.84 0 01-.078.498c-.13.073-.081.059-.207.088-.262.06-.49.122-.722.263-1.58.956-.548 3.62-.921 5.12-.173.075-.262.062-.444.04-.142-.181-.096-.333-.096-.559.001-1.026.003-2.053-.015-3.078-.011-.662-.08-1.35-.01-2.009.111-.119.128-.109.29-.133.193.228.192.74.238 1.042.488-.754.877-1.166 1.77-1.365zm14.181 14.071c.093.004.226-.002.312.029.155.055.175.109.233.246a.495.495 0 01-.134.231c-.194.201-.503.176-.762.2-1.562 1.515-1.013 2.86-1.086 4.764-.007.206-.007.553-.108.733-.046.081-.056.053-.167.078a.858.858 0 01-.295-.164l-.028-.29c.005-.925-.176-4.914.12-5.416.061-.103.054-.07.188-.102l.131.098c.142.292.106.648.11.967.427-.616.802-1.046 1.486-1.374zm20.166.562c.37-.02.756-.037 1.111.093.207.076.388.21.466.425a.629.629 0 01-.025.535c-.285.006-.675-.357-.941-.48a1.31 1.31 0 00-1.039-.053c-.27.107-.686.429-.76.725-.026.103-.032.18.02.274.305.556 1.63.649 2.194.889.312.132.647.349.748.692.089.298-.029.658-.203.904-.351.498-1.013.658-1.578.754-.37.022-.756.004-1.112-.11-.248-.08-.522-.236-.63-.486a.546.546 0 01-.01-.468c.04-.012.078-.037.12-.035.245.012.784.682 1.772.604.351-.028.65-.16.866-.446.128-.171.212-.34.177-.556-.517-.833-1.7-.495-2.442-.981-.268-.177-.411-.448-.469-.759a.969.969 0 01.153-.754c.364-.518.999-.66 1.582-.767zM87.99 56.894c.385-.029.9-.073 1.27.056.21.073.45.188.554.385-.323.326-1.704.036-2.215.192-.56.172-.993.598-1.248 1.118-.38.775-.432 1.928-.136 2.74.182.499.527.92 1.019 1.135.728.319 1.513.123 2.217-.152.114-.067.23-.152.366-.153.094-.002.158.089.225.146l.009.16c-.207.33-.648.46-1.01.547-.776.184-1.737.232-2.429-.216-.593-.384-.936-.95-1.081-1.636-.216-1.015-.102-2.266.487-3.138.49-.723 1.148-1.02 1.972-1.184zM57.295 73.638c.186-.014.37-.008.556.005.414.027.99.097 1.273.423.036.181.022.206-.046.38-.007.003-1.292-.345-1.775-.272-.618.093-1.136.373-1.493.893-.48.697-.58 1.726-.416 2.547.117.58.416 1.142.931 1.46.614.38 1.225.286 1.882.111.298-.144.516-.303.847-.21l.06.113c-.01.024-.016.048-.028.071-.17.323-.632.518-.963.612-.713.201-1.462.193-2.11-.193-.642-.382-1.053-.963-1.227-1.687-.228-.95-.126-2.135.407-2.964.502-.778 1.23-1.11 2.102-1.29zm13.455-.703c.157-.005.291 0 .445.028.068.107.085.09.078.201-.017.247-.194.523-.286.756-.385.966-.78 1.936-1.139 2.912-.193.527-.341 1.078-.556 1.595-.077.187-.188.472-.348.605-.145.12-.18.118-.355.102a.978.978 0 01-.342-.405c-.245-.483-.409-1.037-.603-1.546l-1.197-3.119c-.092-.221-.236-.485-.26-.723-.01-.103.038-.124.097-.2.1-.009.135-.025.231.023.207.102.337.287.441.486.237.452.374 1.007.55 1.488.396 1.08.797 2.157 1.205 3.232.275-.58.464-1.239.687-1.841.444-1.201.895-2.399 1.353-3.594zm32.893-2.187c.173.004.323.017.494.051.323.392.005 3.44.034 4.174l.004.085c.805-.547 2.067-2.28 2.87-2.482.144-.037.15-.038.282.04-.237.554-1.694 1.84-2.192 2.344.375.267.721.564 1.07.863.432.439.874.866 1.329 1.28-.183.023-.483.085-.654.028-.378-.128-1.705-1.475-2.213-1.842-.16.137-.295.3-.434.458.008.387.079.905.01 1.279-.035.187-.115.212-.264.299-.168-.008-.184.002-.311-.104-.082-.828-.043-1.678-.04-2.51l.015-3.963zm-8.869-14.095c.207-.002.437-.03.632.049-.42.93-.713 1.917-1.044 2.882-.271.792-.58 1.572-.855 2.363-.292.84-.54 1.813-1.03 2.56-.243.367-.537.658-.987.733-.14.023-.164.042-.28-.045.182-.506.772-.98 1.042-1.475.147-.27.222-.601.304-.897l-.708-2.104c-.258-.758-.51-1.52-.785-2.272-.136-.375-.392-.802-.458-1.185a.496.496 0 01.036-.321c.174-.115.17-.108.378-.08.432.308 1.633 4.463 1.877 5.23.64-1.807 1.22-3.639 1.878-5.438zm-8.581 15.491c.204-.006.402-.041.59.046-.52 1.35-2.727 7.413-3.314 8.146-.164.097-.263.114-.448.132l-.061-.083c.144-.696.535-1.383.765-2.065a78.306 78.306 0 01-1.184-2.97c-.154-.419-1.093-2.751-.982-2.994l.43-.058c.355.196 1.788 4.674 2.059 5.399.571-1.246.983-2.587 1.455-3.875.2-.546.38-1.185.69-1.678zM82.097 57.23a2.26 2.26 0 01.243-.003c.447.027.878.152 1.176.506.231.275.334.62.388.968.125.799.084 3.611.025 4.462-.11.098-.224.167-.382.148a.557.557 0 01-.166-.055c-.38-.424.34-3.946-.314-4.955a1.113 1.113 0 00-.732-.516c-.523-.098-1.015.172-1.42.471l-.073.056c-.24.232-.453.503-.672.756 0 .708.087 3.956-.131 4.358-.175.093-.253.075-.447.069l-.059-.08c-.067-.496-.07-5.364.105-5.71.065-.13.028-.085.175-.142.055.035.084.049.13.103.17.205.118.616.118.87.593-.67 1.133-1.119 2.036-1.307zm-35.985.29c.203-.021.366-.025.568 0l.073.105c-.016.18-.007.246-.11.391-1.097.194-2.26.118-3.374.218l-.004 3.032c.448.001 2.993-.249 3.232-.11.083.175.076.203.051.397-.35.266-2.732.232-3.281.248l-.013 3.321.923-.065c.745-.075 1.543-.149 2.291-.135.243.005.506.004.686.186-.587.591-3.62.568-4.568.6l.026-7.988c1.166-.073 2.333-.14 3.5-.2zm7.997 1.422c.466-.047.918-.056 1.317.23.442.317.594.86.652 1.376.06.522.127 4.026-.093 4.311-.17.062-.238.057-.411.007-.45-.608.268-3.822-.283-4.809a1.136 1.136 0 00-.72-.563c-.433-.11-.92.027-1.281.273-.261.177-.485.42-.595.72-.184.502-.112 2.766-.105 3.445.004.293.053.686-.032.963-.053.173-.158.236-.307.316l-.146-.052c-.289-.467-.133-2.579-.127-3.243.013-.342.044-.71-.015-1.049-.066-.383-.28-.777-.611-.992a1.181 1.181 0 00-.911-.15c-.588.13-1.054.582-1.377 1.067-.003.732.132 3.976-.11 4.394-.087.15-.166.193-.326.241l-.086-.052c-.178-.266-.175-5.236-.129-5.81.092-.132.11-.154.254-.223l.135.093c.127.239.136.49.163.754l.05-.052c.514-.526 1.216-1.002 1.981-.988.673.013 1.099.353 1.546.808.459-.533.91-.795 1.567-1.015zM74.734 72.62c.485.016.954.12 1.31.473.645.64.633 1.777.642 2.624-1.366.125-2.742.103-4.11.208.02.269.054.535.102.8.092.499.338 1.014.774 1.299.658.43 1.545.268 2.27.137.167-.065.375-.175.555-.152.102.013.077.033.136.137-.008.023-.013.048-.025.07-.16.308-.71.484-1.026.548-.737.149-1.7.138-2.331-.306-.574-.405-.859-1.085-.974-1.757-.174-1.023.014-2.218.653-3.053.536-.703 1.18-.933 2.024-1.028z" fill="#0C0C0C"/><path d="M74.266 73.158l.097-.01c.426-.033.858.013 1.19.307.487.433.516 1.17.553 1.776-.564.028-1.13.034-1.695.05-.592.048-1.186.048-1.78.057.092-.397.184-.814.37-1.179.286-.564.69-.797 1.265-1.001z" fill="#FEFEFE"/><path d="M59.879 58.594c.609-.048 1.157-.024 1.641.401.728.639.791 1.757.824 2.656-1.417.027-2.852.157-4.266.261.087.692.224 1.45.817 1.899.59.446 1.308.386 1.996.283.202-.076.416-.17.626-.22a.54.54 0 01.426.06l.012.112c-.21.287-.536.423-.87.52-.743.219-1.626.26-2.317-.132-.584-.332-.966-.91-1.14-1.55a3.919 3.919 0 01.404-2.951c.447-.754 1.025-1.115 1.847-1.34z" fill="#0C0C0C"/><path d="M59.991 59.076c.416.013.764.046 1.097.322.52.43.585 1.151.657 1.776-.57.001-1.14.04-1.709.069-.642.05-1.286.077-1.93.079.1-.446.237-.878.48-1.27.336-.544.787-.84 1.405-.976z" fill="#FEFEFE"/><path d="M51.282 73.984c.592.01 1.123.1 1.563.532.694.684.735 1.674.74 2.585l-4.249.197c.01.265.03.547.085.806.11.523.412 1.017.865 1.31.624.403 1.283.318 1.969.177.322-.123.607-.277.954-.167l.027.112c-.228.357-.692.522-1.086.616-.737.176-1.524.195-2.182-.232-.674-.436-1.056-1.106-1.195-1.888-.174-.981-.043-2.093.553-2.913.496-.681 1.139-1.01 1.956-1.135z" fill="#0C0C0C"/><path d="M51.32 74.456c.37.029.684.09.976.334.534.447.658 1.184.708 1.841l-2.01.087c-.555.041-1.115.036-1.671.045.09-.465.193-.89.45-1.297.37-.59.884-.867 1.548-1.01z" fill="#FEFEFE"/><path d="M75.527 57.573c.056-.005.111-.01.167-.012.606-.022 1.18.11 1.628.542.705.682.745 1.676.767 2.591-1.421.104-2.852.13-4.276.15l.015.181c.06.694.196 1.413.774 1.872.605.48 1.334.402 2.049.319.243-.074.816-.355 1.024-.314a.66.66 0 01.043.4c-.15.213-.315.288-.56.36-.832.247-1.992.31-2.755-.145-.585-.348-.935-.938-1.091-1.588-.245-1.018-.105-2.265.463-3.154.432-.678.988-1.018 1.752-1.202z" fill="#0C0C0C"/><path d="M75.637 58.051c.415-.013.741.047 1.07.318.356.293.835.888.832 1.377-.002.194-.05.288-.171.432-.471.116-1.024.092-1.51.113-.678.012-1.355.018-2.032.017.086-.384.19-.78.375-1.13.325-.62.778-.93 1.436-1.127z" fill="#FEFEFE"/><path d="M44.884 72.286c.538-.03 1.12.003 1.609.246a1.843 1.843 0 011.022 1.353 2.09 2.09 0 01.023.619 2.137 2.137 0 01-.245.786c-.377.681-1.015.985-1.73 1.19l.059.045c.219.175.436.369.602.596.425.58 1.406 2.494 1.477 3.17-.163.115-.275.1-.47.117-.339-.18-.944-1.918-1.153-2.396-.19-.331-.4-.662-.707-.9-.63-.484-1.376-.364-2.104-.263-.003.57.101 3.477-.135 3.764-.186.034-.246.065-.424-.012a1.022 1.022 0 01-.144-.497c-.053-.648.033-1.351.03-2.006l-.022-5.678c.77-.035 1.541-.088 2.312-.134z" fill="#0C0C0C"/><path d="M44.911 72.832c.348-.005.753.016 1.076.152.378.159.689.44.828.83a1.589 1.589 0 01-.113 1.292c-.325.594-.869.85-1.494 1.026-.634.121-1.302.114-1.947.14l.001-3.332c.542-.075 1.102-.08 1.65-.108z" fill="#FEFEFE"/><path d="M62.545 73.301c.545-.033 1.054.016 1.54.29.593.335.97.932 1.142 1.58.264.995.112 2.225-.431 3.105-.465.752-1.089 1.11-1.928 1.292-.565.04-1.075-.005-1.576-.293-.624-.36-.997-1-1.153-1.689-.23-1.019-.104-2.237.492-3.108.478-.698 1.108-1.015 1.914-1.177z" fill="#0C0C0C"/><path d="M62.276 73.85c.38-.053.746-.08 1.116.049.481.166.85.516 1.071.97.388.79.365 1.873.054 2.687-.28.735-.721 1.138-1.428 1.439-.39.069-.779.103-1.158-.041-.468-.179-.803-.542-.999-.998-.35-.817-.332-2.004.005-2.824.279-.682.684-1.007 1.339-1.283z" fill="#FEFEFE"/><path d="M71.873 57.86c.075.028.137.072.205.113.021.08.032.103.029.195-.008.188-.146.465-.192.658a6.786 6.786 0 00-.145 1.07c-.115 1.55.378 4.775-.741 5.88-.63.623-1.57.728-2.413.715-.418-.006-1.09-.057-1.39-.37-.064-.195-.068-.23-.026-.43.24-.135 1.025.213 1.33.263.28.046.58.046.86.01.61-.076 1.073-.391 1.442-.87.336-.694.285-1.42.276-2.166-.337.396-.65.726-1.127.96a2.02 2.02 0 01-1.582.107c-.567-.204-.995-.672-1.237-1.215-.405-.906-.363-2.13.001-3.045.265-.663.756-1.252 1.427-1.527.969-.397 1.944-.091 2.85.305.127-.235.27-.441.433-.653z" fill="#0C0C0C"/><path d="M69.101 58.604c.85-.112 1.4.034 2.134.442-.112 1.057.112 2.515-.356 3.46-.272.55-.723.864-1.285 1.067-.291.025-.563.05-.845-.042a1.701 1.701 0 01-1.015-.91c-.374-.785-.318-1.852-.007-2.646.276-.705.705-1.07 1.374-1.37z" fill="#FEFEFE"/><path d="M91.708 70.918c.567-.047 1.215-.008 1.743.208a2.44 2.44 0 011.356 1.366c.402.984.291 2.299-.103 3.271-.379.934-1 1.531-1.917 1.915-1.012.278-2.071.28-3.113.336l.014-6.995c.673-.02 1.347-.066 2.02-.1z" fill="#0C0C0C"/><path d="M91.696 71.465c.407-.018.82-.05 1.216.067.528.155.943.51 1.198.995.426.808.395 1.987.116 2.844-.267.82-.704 1.347-1.46 1.746-.814.284-1.638.295-2.49.324l.022-5.887c.46-.057.935-.063 1.398-.089z" fill="#FEFEFE"/></g><defs><clipPath id="clip0_8_2104"><path fill="#fff" d="M0 0h140v140H0z"/></clipPath></defs></svg>