<svg width="140" height="140" fill="none" xmlns="http://www.w3.org/2000/svg"><g clip-path="url(#clip0_8_2161)"><path d="M0 0h140v140H0V0z" fill="#FEFEFE"/><path d="M37.087 22.482c.323-.288 8.274-1.765 9.2-1.948l32.833-6.428 10.584-2.1c1.186-.224 2.449-.619 3.641-.715.112-.01.28-.03.358.06.432.496.238 5.003.239 5.903-.01 1.441.001 2.883.032 4.324 1.659-.284 3.442-.586 5.065-1.029.498-.089 1.724-.494 2.15-.232.32.43.184 1.325.187 1.854.001 1.998-.025 4 .007 5.997 2.142-.418 4.287-.9 6.437-1.271.531-.122 1.748-.554 2.211-.277.197.118.176.264.196.47.123 1.259.032 2.614.034 3.882l.007 7.966.005 24.807c.673-.167 1.335-.287 2.03-.3 2.421-.043 5.915.835 7.969 2.077 2.761 1.67 4.333 4.61 5.072 7.67.818 3.384.542 6.838.635 10.283 1.266.3 2.527.623 3.781.969.583.16 1.202.292 1.761.522-.009 1.148-.117 2.302-.187 3.449l-.307 5.372-.845 16.142-.339 6.188c-.058 1.093-.008 2.357-.274 3.418-1.118.667-2.395 1.161-3.579 1.708l-7.4 3.401-11.509 5.317-3.494 1.6c-.602.276-1.213.602-1.835.824a456.945 456.945 0 01-6.704-1.877c-1.043-.299-2.189-.541-3.194-.946-.032-2.509.016-5.024.037-7.533l.003-4.916-23.353 4.522c-4.534.889-9.066 1.844-13.612 2.668l-17.456 3.417c-2.147.424-4.296.836-6.447 1.237-1.072.202-2.157.464-3.24.597-.492.061-.965.076-1.449-.061-.86-.243-1.5-.839-1.915-1.615-.566-1.055-.76-2.483-1.033-3.643l-1.07-4.541-4.328-18.068-5.329-22.081-2.197-8.989c-.444-1.809-.961-3.63-1.305-5.46-.19-1.008-.2-1.995.102-2.984.501-1.647 1.589-2.688 3.067-3.488l-1.353-6.7c-.234-1.14-.82-3.137-.753-4.251.416-.304 9.5-1.99 10.802-2.266 5.41-1.063 10.794-2.318 16.22-3.282l-.108-12.362c-.01-2.41.118-4.881-.05-7.281z" fill="#0C0C0C"/><path d="M38.41 73.38c4.533-1.008 9.155-1.733 13.714-2.628l27.551-5.446 15.967-3.194 4.494-.88c.862-.168 1.742-.383 2.614-.48.794-.09 1.654.06 2.324.507.708.47 1.156 1.237 1.306 2.065.117.642.087 1.32.09 1.97l-.591.324c.02-1.218.195-2.698-.739-3.647a2.373 2.373 0 00-.558-.417 2.352 2.352 0 00-.658-.23 2.334 2.334 0 00-.464-.04c-.886.023-1.777.242-2.645.407l-3.562.67a825.262 825.262 0 00-14.229 2.743l-30.475 6.048-7.687 1.456c-2.135.388-4.285.751-6.395 1.256l-.094-.071c.314-.1 1.04-.148 1.27-.331.106-.084.07-.042.093-.194-.4-.078-.817.193-1.222.13a1.736 1.736 0 01-.104-.019z" fill="url(#paint0_linear_8_2161)"/><path d="M109.769 72.591c.069.07.068.146.076.246.101 1.244-.001 2.573 0 3.828.001 3.181-.048 6.376.034 9.555l-4.244 1.84-.084-.089c-.105-.969-.032-2.005-.032-2.982-.001-1.418-.05-2.86.041-4.276.203-3.174 1.85-6.054 4.209-8.122z" fill="#3E9AFF"/><path d="M89.042 61.751c.1.014.137.006.222.075.28.225.3.697.354 1.03-1.503.363-3.057.604-4.575.904l-9.125 1.802-24.68 4.885c-4.136.81-8.308 1.485-12.426 2.384-.136.034-.258.066-.4.075-.125.008-.123-.026-.214-.102a1.15 1.15 0 01-.085-.506c.14-.138.267-.17.454-.222 1.526-.424 3.134-.676 4.685-1.017l11.417-2.436a2258.85 2258.85 0 0134.373-6.872z" fill="#C4C3C4"/><path d="M51.743 35.17c.191.339.203 5.87.224 6.699-3.986.84-7.98 1.642-11.981 2.406l-.11-.056c-.109-1.122-.055-2.305-.072-3.435-.014-.919-.114-1.928-.005-2.837.016-.135.052-.275.15-.376.099-.102.248-.155.382-.187 1.74-.414 3.543-.7 5.298-1.046 2.026-.4 4.072-.874 6.114-1.167z" fill="#FEFEFE"/><path d="M38.467 73.864a5.743 5.743 0 00-.824.397c-1.066.65-2.034 1.69-2.422 2.897-.48 1.496-.492 3.284-.649 4.853l-.58 5.425-2.626 25.947-.833 7.934c-.167 1.68-.196 3.525-.61 5.156-.246.963-.8 1.819-1.68 2.318-.59.335-1.26.453-1.916.253-.687-.209-1.244-.735-1.557-1.373-.377-.766-.525-1.68-.722-2.506l-.918-3.951-3.547-14.801-6.44-26.654-2.279-9.286c-.451-1.836-.967-3.69-1.323-5.546a5.455 5.455 0 01.186-2.846c.439-1.27 1.34-2.367 2.559-2.962.162.024.169.01.271.136-.132.449-.808.694-1.107 1.06-.48.586-.88 1.387-1.097 2.111-.254.852-.265 1.632-.09 2.499.32 1.575.775 3.15 1.152 4.715l2.859 11.681 7.074 29.396 2.702 11.361c.28 1.186.907 4.617 1.383 5.445.333.577.895.785 1.5.956 1.017-.204 1.835-.704 2.234-1.698.483-1.205.46-2.817.582-4.111l.487-5.047 2.78-27.111c.283-2.931.585-5.86.905-8.788.145-1.39.192-2.828.441-4.201.148-.812.42-1.502.91-2.169.785-1.066 1.816-1.78 3.138-1.975l.104.02c.405.062.821-.21 1.222-.13-.022.151.013.11-.092.193-.23.183-.957.23-1.271.33l.094.072z" fill="#C4C3C4"/><path d="M113.409 71.05c.479-.041.937-.03 1.417-.001a5.66 5.66 0 011.096.88c2.065 2.081 2.135 4.445 2.13 7.188l-.001 3.59-4.489 1.955c-1.078.462-2.162.91-3.253 1.342l-.033-13.783c1.018-.594 1.959-1.006 3.133-1.17z" fill="#FEFEFE"/><path d="M117.97 83.263l.061.058c.112.701.031 1.519.026 2.233 1.393.622 2.906 1.085 4.442 1.128.916.025 2.437-.038 3.118-.725.482-.486.327-1.363.312-1.998 1.565.333 3.171.727 4.696 1.21-2.722 1.07-5.403 2.237-8.105 3.355l-17.747 7.298c-.862.398-1.765.702-2.629 1.098-1.216-.468-2.576-.728-3.833-1.08-1.74-.486-3.508-1.086-5.278-1.435 1.352-.81 2.996-1.382 4.452-1.996l-.007 1.483c1.226.964 3.202 1.254 4.722 1.244.9-.006 2.334-.075 2.989-.776.167-.18.268-.374.315-.614.111-.57.044-1.228.041-1.81l-.019-3.324c1.09-.566 2.293-1.005 3.424-1.495 3.001-1.297 6.038-2.516 9.02-3.854z" fill="#3E9AFF"/><path d="M85.679 56.694c.487-.05.928 0 1.352.264 1.289.807 1.545 2.968 1.821 4.328-2.08.53-4.263.85-6.374 1.26l-11.323 2.248a2745.612 2745.612 0 00-31.423 6.577c-.653.133-1.301.286-1.945.457a26.822 26.822 0 01-.752-3.06c-.11-.626-.04-1.187.347-1.708.297-.4.728-.713 1.205-.857.685-.207 1.423-.316 2.126-.459l3.754-.766 12.96-2.62 18.475-3.76c3.237-.652 6.513-1.41 9.777-1.904zm28.412 7.796c.355-.044.737-.033 1.094-.026 2.504.052 5.057 1.19 6.773 3.012 2.275 2.415 3.227 6.029 3.446 9.263.092 1.372.048 2.765.047 4.14-.001 1.532.045 3.074-.005 4.604-.119.082-.24.16-.364.233-1.414.823-3.483.469-4.969.079-.022-2.011 0-4.024.004-6.035.002-1.27.097-2.61-.142-3.861-.331-1.732-1.221-3.403-2.712-4.403-1.3-.872-2.963-1.15-4.492-.84-2.358.476-4.372 2.252-5.681 4.2-2.231 3.39-2.042 6.27-2.037 10.11l.001 6.245c-.002.627.155 2.037-.064 2.582-.102.254-.298.405-.54.517-1.239.572-3.377.444-4.638-.004-.035-2.715-.014-5.432-.016-8.148-.002-1.976-.096-3.995.074-5.962a18.14 18.14 0 01.296-2 18.475 18.475 0 01.729-2.593 17.798 17.798 0 01.789-1.861 17.214 17.214 0 01.637-1.188 18.551 18.551 0 011.523-2.222c2.548-3.167 6.188-5.397 10.247-5.841z" fill="#C4C3C4"/><path d="M92.568 94.705c1.104.215 2.231.63 3.318.94 2.014.584 4.039 1.129 6.074 1.636.037.985-.006 1.985-.014 2.971l-.079 6.667-.282 24.921c-.664-.015-1.938-.488-2.615-.678a292.846 292.846 0 01-6.683-1.936l.187-21.896c.036-4.207-.017-8.42.094-12.625z" fill="#3E9AFF"/><path d="M68.202 89.306c2.475-.162 5.312.869 7.216 2.43a11.763 11.763 0 012.212 2.374 11.427 11.427 0 01.773 1.26 11.254 11.254 0 01.5 1.073 12.098 12.098 0 01.545 1.688 11.807 11.807 0 01.285 1.751c.287 3.092-.671 6.334-2.674 8.719-2.174 2.589-4.951 3.796-8.272 4.098-2.629.188-5.657-.987-7.641-2.678-2.289-1.952-3.746-5.029-3.96-8.015a12.238 12.238 0 01.027-2.078 12.226 12.226 0 01.554-2.61 12.102 12.102 0 012.333-4.11c2.1-2.397 4.94-3.698 8.102-3.902z" fill="#FEFEFE"/><path d="M67.856 91.083c2.243-.21 4.625.571 6.42 1.903 2.095 1.555 3.376 4.006 3.732 6.567a10.116 10.116 0 01.083 2.021 10.37 10.37 0 01-.456 2.485 10.23 10.23 0 01-1.622 3.134c-1.683 2.22-3.949 3.392-6.68 3.758-2.46.16-4.888-.524-6.81-2.1a10.163 10.163 0 01-1.08-1.024 10.325 10.325 0 01-.914-1.173 9.636 9.636 0 01-.732-1.295 10.159 10.159 0 01-.66-1.868 10.238 10.238 0 01.327-5.941 10.349 10.349 0 01.877-1.818 10.19 10.19 0 01.883-1.23c1.683-2 4.038-3.19 6.632-3.419z" fill="#0C0C0C"/><path d="M68.06 91.492c2.108-.153 4.37.593 6.02 1.901 2.064 1.638 3.314 4.034 3.588 6.649.256 2.445-.61 5.218-2.172 7.111-1.657 2.008-3.852 3.14-6.435 3.398-2.245.159-4.573-.631-6.303-2.062a9.749 9.749 0 01-1.634-1.748 9.283 9.283 0 01-.526-.802 9.855 9.855 0 01-1.253-3.602 9.858 9.858 0 01-.055-.476c-.215-2.558.7-5.27 2.361-7.21 1.635-1.911 3.927-2.954 6.408-3.159z" fill="#6BDD71"/><path d="M74.548 95.526c.141.074.215.108.289.252-.039.405-6.8 9.809-7.447 10.562-.49-.569-.92-1.21-1.367-1.813l-2.46-3.302c-.038-.05-.077-.099-.113-.15-.105-.151-.166-.268-.137-.451l.158-.07c.042.01.087.011.126.03.139.07 3.423 4.543 3.806 5.022 2.478-3.17 4.883-6.745 7.145-10.08z" fill="#0C0C0C"/><path d="M39.038 42.198a.599.599 0 01.272.012c.261.493.074 1.503.118 2.081l.008.089c-2.953.426-6.214 1.223-9.162 1.818-3.382.682-6.858 1.254-10.214 2.027a1.077 1.077 0 00-.416.17c-.142.889.271 3.844.374 4.957l1.091 11.91 5.643 61.956c-.778-1.794-1.331-5.121-1.781-7.16-.176-1.066-.457-2.135-.679-3.195l-1.2-5.894-2.7-13.736-9.768-49.27c2.806-.648 5.658-1.137 8.48-1.716l19.934-4.05z" fill="#FEFEFE"/><path d="M100.735 20.663c.066-.008.124.01.188.024.142.693.033 1.61.034 2.324l.001 5.257c-2.015.285-4.046.817-6.043 1.224l-11.885 2.39-15.272 3.068c-3.26.648-6.575 1.212-9.802 2-.12 2.466.037 5 .097 7.47.059 3.143.1 6.285.12 9.427-1.801.368-3.595.78-5.404 1.11-.095-1.046-.09-2.125-.116-3.175l-.137-5.327c-.156-5.398-.357-10.808-.358-16.208l48.577-9.584z" fill="#3E9AFF"/><path d="M93.428 11.716c.16.231.108 8.879.117 9.952l-41.832 8.248.053 4.81c-1.548.301-11.718 2.084-12.227 2.607-.3.309-.132 3.724-.124 4.331-.55.14-1.116.239-1.671.354-.028-.037-.063-.07-.082-.112-.07-.156-.13-17.327-.126-19.177a3498.19 3498.19 0 0138.69-7.636l11.503-2.283c1.893-.373 3.793-.796 5.7-1.094z" fill="#FEFEFE"/><path d="M130.905 85.514l.132.013c.15.4-.354 6.722-.407 7.684l-.729 14.357-.395 7.038c-.09 1.553-.216 3.111-.248 4.666-4.826 2.142-9.577 4.446-14.385 6.627l-7.975 3.684c-1.558.715-3.162 1.36-4.683 2.15l-.097.026c-.076-.124-.068-.217-.071-.358-.073-3.654.089-7.34.135-10.995l.23-23.109 28.493-11.783z" fill="#3E9AFF"/><path d="M116.936 97.148c.55-.038 1.003.01 1.482.306.808.501 1.21 1.493 1.397 2.389.528 2.527-.356 5.096-1.72 7.198-.104 3.139-.018 6.288-.082 9.43-.93.464-1.891.866-2.844 1.28l-.87.355a309.846 309.846 0 01-.057-9.641c-.84-.402-1.374-1.084-1.686-1.95-.632-1.754-.212-3.858.568-5.494.8-1.678 2.021-3.229 3.812-3.873z" fill="#0C0C0C"/><path d="M51.871 42.335c.425.483.094 12.06.631 12.928.056.033.104.083.166.097.455.101 4.723-.922 5.537-1.097.03 2.495.115 4.988.107 7.484-1.58.267-3.152.625-4.722.943a736.998 736.998 0 00-8.415 1.718c-2.069.429-4.824.796-6.763 1.411a2.54 2.54 0 00-.378.149 2.682 2.682 0 00-1.23 1.214 2.421 2.421 0 00-.246 1.09c.013 1.2.78 3.53 1.196 4.736-1.583.63-2.814 1.601-3.466 3.215-.585 1.45-.58 3.213-.733 4.76l-.507 5.08-2.78 27.018-.833 8.423c-.149 1.503-.235 3.045-.489 4.532a2.58 2.58 0 01-.548 1.204c-.211.193-.466.417-.745.502-.137.043-.158.027-.278-.035-.215-1.039-.282-2.116-.377-3.171l-.39-4.3-1.31-14.047-3.368-37.288c-.606-6.738-1.11-13.512-1.9-20.23 1.61-.256 3.209-.62 4.807-.94l8.427-1.696 18.607-3.7z" fill="#FEFEFE"/><path d="M109.381 27.023a1.12 1.12 0 01.342.002c.092.18.092.325.1.525.049 1.325.012 2.666.013 3.993l-.009 8.126-.004 24.197c-1.013.325-1.974.745-2.94 1.19.018-.627.065-1.273-.041-1.894-.158-.916-.657-1.744-1.431-2.27-.641-.433-1.433-.633-2.203-.627-1.366.011-2.878.482-4.223.742l-8.924 1.739c-.023-.193-.043-.39-.082-.58-.09-.43-.29-.632-.641-.877-.322-1.5-.603-3.785-2.01-4.692-.367-.237-.83-.402-1.27-.392-.728.016-1.495.228-2.208.373l-2.943.582-12.6 2.524-9.563 1.971c-.015-2.636-.1-5.269-.136-7.904a1144.41 1144.41 0 00-.255-16.448c2.166-.522 4.363-.933 6.547-1.368l10.088-2.004 34.393-6.908z" fill="#3E9AFF"/><path d="M102.638 46.564c.03-.004.06-.013.091-.011.175.009.183.097.279.223-.158.174-.351.219-.571.273-1.26.31-2.56.517-3.834.769l-6.991 1.393-23.685 4.776-.212.002-.12-.137.017-.12c.142-.138.359-.176.546-.22.662-.151 1.339-.243 2.004-.382 2.541-.54 5.088-1.053 7.64-1.54l14.927-3.022c3.302-.664 6.62-1.281 9.909-2.004zm.148-3.687l.082-.002c.144.094.14.085.182.25-.037.04-.065.095-.113.12-.375.2-6.378 1.284-7.452 1.502-9.191 1.86-18.374 3.82-27.589 5.56l-.202.026-.108-.106.025-.23.118.013-.082-.036c1.176-.358 2.491-.512 3.7-.765a665.06 665.06 0 019.279-1.872l22.16-4.46zm-.339-7.25l.33-.029c.131.085.132.085.181.233-.167.15-.387.194-.601.244-3.563.827-7.201 1.445-10.789 2.165l-23.671 4.75c-.163.03-.297.045-.462.035l-.076-.116.047-.124c.203-.153.435-.214.679-.272 1.004-.24 2.037-.4 3.049-.606l7.632-1.523 23.681-4.757zm.322 3.637c.151.005.16.033.281.113l.019.13c-.121.126-.244.172-.411.212-.374.089-.766.096-1.142.177-2.671.572-5.357 1.067-8.036 1.604l-11.428 2.318a784.13 784.13 0 00-14.294 2.877c-.147.024-.12.04-.268-.037-.015-.182-.042-.212.064-.357 1.446-.446 3.07-.637 4.558-.925l8.654-1.72L95.6 40.675c2.378-.474 4.77-1.069 7.169-1.41z" fill="#0C0C0C"/></g><defs><linearGradient id="paint0_linear_8_2161" x1="75.068" y1="75.006" x2="71.423" y2="63.32" gradientUnits="userSpaceOnUse"><stop stop-color="#C0C0BE"/><stop offset="1" stop-color="#F0EEF6"/></linearGradient><clipPath id="clip0_8_2161"><path fill="#fff" d="M0 0h140v140H0z"/></clipPath></defs></svg>