<svg width="140" height="140" fill="none" xmlns="http://www.w3.org/2000/svg"><g clip-path="url(#clip0_8_2189)"><path d="M0 0h140v140H0V0z" fill="#FEFEFF"/><path d="M127.969 52.455a4.43 4.43 0 013.677 1.682 4.813 4.813 0 01.393.571 4.084 4.084 0 01.214.41 5.38 5.38 0 01.172.43 5.541 5.541 0 01.129.444 4.352 4.352 0 01.121.915 4.46 4.46 0 01-.011.463 4.431 4.431 0 01-.308 1.347 4.173 4.173 0 01-.303.623 4.867 4.867 0 01-.253.388 4.624 4.624 0 01-.14.183c-.812 1.019-1.892 1.5-3.164 1.642a4.064 4.064 0 01-.763-.022 4.232 4.232 0 01-2.094-.862c-1.009-.779-1.616-1.907-1.778-3.165a4.488 4.488 0 01.929-3.347c.828-1.069 1.853-1.543 3.179-1.702z" fill="#0C0C0C"/><path d="M127.941 52.858a4.005 4.005 0 011.505.205 4.126 4.126 0 01.826.392 4.916 4.916 0 01.334.232 4.33 4.33 0 01.456.405 4.555 4.555 0 01.268.306 4.93 4.93 0 01.238.33 3.933 3.933 0 01.293.535 4.218 4.218 0 01.264.768 3.759 3.759 0 01.076.422 3.814 3.814 0 01.035.642 3.831 3.831 0 01-.061.64 3.787 3.787 0 01-.094.42 4.846 4.846 0 01-.135.406 3.7 3.7 0 01-.175.392 5.69 5.69 0 01-.213.372c-.678 1.041-1.665 1.555-2.864 1.797-.933.044-1.796-.091-2.587-.63-.941-.642-1.615-1.712-1.807-2.834a4.603 4.603 0 01-.046-.406 4.638 4.638 0 01-.006-.409c.002-.068.006-.136.012-.204a3.464 3.464 0 01.053-.405 3.433 3.433 0 01.092-.398 4.351 4.351 0 01.296-.76 4.22 4.22 0 01.315-.526c.715-1.018 1.742-1.482 2.925-1.692z" fill="#3E9AFF"/><path d="M126.539 15.633c1.31.056 2.657.278 3.962.433.375.045 1.297.061 1.516.34l-.039.23c-.123 1.916.018 3.89.013 5.816l.007 14.934c.001 2.619.111 5.285-.045 7.896-1.511 1.502-3.176 2.852-4.732 4.31-.406.38-.923.777-1.283 1.194a1.773 1.773 0 01-.158.349c-.369.175-5.456-.564-6.214-.699-.024-.724-.006-1.455-.007-2.18a17.055 17.055 0 01-2.466 2.02c-.106.097-.219.179-.334.263-1.575-.036-3.522-.403-5.124-.576l-4.28-.458c-.821-.088-1.688-.127-2.492-.323-.11-1.172-.042-2.413-.044-3.594l-.006-6.649c-.679 2.515-1.16 5.098-1.762 7.634-.155.655-.278 1.742-.63 2.302-.059.095-.128.11-.237.128-.365.062-6.426-.682-6.6-.81a1.19 1.19 0 01-.034-.545c.077-.531.239-1.07.354-1.596.242-1.103.474-2.208.696-3.315 1.113-5.47 2.398-10.918 3.428-16.403.377-.375.843-.7 1.256-1.04a173.7 173.7 0 012.798-2.261c1.142-.909 2.247-1.918 3.443-2.752.736.05 5.503.465 5.84.732.158.262.164.55.196.849 1.385-1.058 2.684-2.258 4.126-3.234 1.53.212 3.063.387 4.601.526l4.251-3.521z" fill="#0C0C0C"/><path d="M112.984 21.517c.013.012.029.021.039.036.107.153.117.282.115.462-.282.605-1.697 1.544-2.261 2.01-.024 1.386-.001 2.778-.001 4.165a53.832 53.832 0 01-4.115-.471c-.253-.022-.617-.03-.804-.213.013-.048.012-.104.041-.144.227-.304 1.46-1.15 1.822-1.441 1.704-1.374 3.63-2.857 5.164-4.404z" fill="#FEFEFF"/><path d="M117.745 19.07c1.318.156 2.635.322 3.951.5-.467.437-1.795 1.285-2.057 1.739-.076.131-.093.35-.116.498-.052.338-.81.902-1.074 1.122-.464.388-1.512 1.327-2.081 1.422-.202.034-.449-.005-.653-.024a105.437 105.437 0 01-3.949-.45c.682-.639 1.465-1.206 2.192-1.795a155.178 155.178 0 013.787-3.011zm8.919-3.007c1.497.05 3.157.325 4.646.552-.598.528-5.445 4.887-5.619 4.942-.042.014-.088.004-.131.006-1.628-.132-3.267-.393-4.89-.59.574-.506 1.209-.951 1.802-1.436l4.192-3.474zm-19.075 4.647c1.317.03 3.788.3 5.064.592-2.198 1.9-4.404 3.819-6.717 5.579-1.682-.297-3.451-.44-5.153-.595 2.169-1.956 4.556-3.71 6.806-5.577z" fill="#FEFEFF"/><path d="M116.659 24.81a22.923 22.923 0 002.916-2.319l-.031 16.066c.002 3.23.065 6.47.015 9.699a17.11 17.11 0 01-2.466 2.02c-.114-.063-.245-.102-.367-.149.093-1.695.013-3.432.005-5.132l-.026-9.014-.007-7.32c-.001-1.265.083-2.595-.039-3.852z" fill="#3E9AFF"/><path d="M105.219 27.976c1.878.266 3.806.35 5.671.685.116 3.884.017 7.797.02 11.683.003 2.976.135 6.175-.002 9.124-1.878-.188-3.78-.322-5.647-.597-.1-3.848-.047-7.712-.045-11.562.002-3.108-.061-6.225.003-9.333z" fill="#FEFEFF"/><path d="M100.425 26.645c1.688.265 3.416.317 5.091.653a5.994 5.994 0 00-.716.525l.015 5.983c.002 1.083.078 2.229-.049 3.302-.154 1.3-.563 2.618-.863 3.893-.596 2.535-1.214 5.078-1.752 7.626l-1.1-.153a60.409 60.409 0 01-5.128-.587c.338-1.744.757-3.474 1.113-5.215a1069.676 1069.676 0 013.389-16.027zm10.883-2.399c1.468.21 3.929.667 5.351.563.122 1.257.038 2.587.039 3.853l.008 7.32.025 9.014c.008 1.7.089 3.436-.004 5.131-1.79-.232-3.589-.46-5.387-.607l-.032-25.274z" fill="#C3D7FD"/><path d="M120.046 21.374c1.828.124 3.663.391 5.481.619l.001 19.019.005 6.051c.001 1.246.045 2.515-.046 3.757-1.837-.25-3.677-.544-5.52-.744V31.88c.003-3.494-.082-7.015.079-10.505z" fill="#FEFEFF"/><path d="M131.978 16.636c-.123 1.916.018 3.89.013 5.816l.007 14.934c.001 2.619.111 5.285-.045 7.896-1.511 1.502-3.176 2.852-4.732 4.31-.406.38-.923.777-1.283 1.194-.068-1.121-.015-2.268-.014-3.393l.011-6.404.028-19.053c.748-.744 1.578-1.431 2.37-2.129 1.205-1.07 2.42-2.126 3.645-3.171z" fill="#3E9AFF"/><path d="M71.856 9.954c1.809-.032 3.739.31 5.545.476l11.385 1.053c10.55 1.014 21.123 1.871 31.66 3.003.25.027.51.047.711.213l-.012.098c-.148.113-.3.14-.483.136-.435-.011-.892-.102-1.328-.143l-3.224-.301-9.173-.88-22.477-2.095c-4.097-.385-8.194-.817-12.295-1.147-.04 2.08.004 4.167.007 6.247l.02 11.153 1.249-.048c.013-.281-.012-.715.141-.954a.652.652 0 01.389-.272c.368-.096.96.032 1.34.066 2.678.24 5.216 1.041 7.494 2.49a16.76 16.76 0 013.204 2.62 16.754 16.754 0 012.468 3.323 16.83 16.83 0 011.478 3.462c.157.52.367 1.083.458 1.616.017.098.037.246-.032.325-.214.24-.75.255-1.055.298a18.254 18.254 0 01.105 4.199 15.006 15.006 0 01-.222 1.502 16.01 16.01 0 01-.367 1.473 15.84 15.84 0 01-.658 1.78 16.267 16.267 0 01-.68 1.359 16.285 16.285 0 01-.808 1.285 16.35 16.35 0 01-.686.91 15.024 15.024 0 01-1.015 1.129 15.83 15.83 0 01-.832.779c-3.367 2.904-7.627 4.124-12.023 3.8a35.475 35.475 0 01-.305 2.37l22.25 2.25a5.29 5.29 0 01.218-.84c.287-.84.89-1.548 1.698-1.922 2.316-1.072 3.081.762 4.633 1.211.846.245 2.419-.14 3.351-.202 1.382-.092 2.975.137 4.28.6 1.851.659 2.836 1.919 3.646 3.647 2.493.332 5.019.524 7.521.774 1.79.179 3.611.448 5.406.528 1.547.07 2.678-.535 4.356-.245a6.541 6.541 0 011.863.617 6.937 6.937 0 01.842.508 6.724 6.724 0 011.413 1.36c.066.088.131.176.193.266 1.043 1.492 1.423 3.43 1.102 5.212a7.53 7.53 0 01-.15.661 6.177 6.177 0 01-.214.643 7.078 7.078 0 01-.617 1.206 7.428 7.428 0 01-.396.55 6.174 6.174 0 01-.449.509 6.695 6.695 0 01-2.809 1.716 6.071 6.071 0 01-.636.16 6.527 6.527 0 01-1.632.12 6.658 6.658 0 01-.976-.122c-1.73-.352-3.188-1.417-4.138-2.895-1.029-1.6-1.3-3.6-.876-5.444.437-1.903 1.628-3.357 3.255-4.37-1.356-.084-2.719-.266-4.072-.404-2.93-.315-5.863-.605-8.798-.87.303 1.33.454 2.726.663 4.076.665 4.314 1.1 8.68 1.874 12.975.916.289 1.82.83 2.626 1.344 3.247 2.069 4.119 4.561 5.025 8.126.467 1.837.858 3.686 1.266 5.536.97-1.884 1.924-3.762 2.757-5.712 1.183-2.774 2.125-5.62 3.013-8.498.072-.231.165-.596.394-.716l.081.082c.17 1.514-3.286 9.754-4.069 11.452-.614 1.333-1.278 2.68-2.053 3.929.68 3.838 2.061 7.289.188 11.049-.997 1.799-2.295 2.89-4.123 3.797l-.021 7.544c-.004 1.288.093 2.674-.062 3.949a4.408 4.408 0 01-.471 1.46c-.646 1.259-1.68 2.2-3.041 2.615-1.526.465-5.511.238-7.268.231-1.523-.005-3.141-.117-4.654.033-1.149.114-2.136.573-3.329.502-.997-.058-1.966-.353-2.958-.46l-10.214-1.044c-2.002-.211-4.075-.555-6.084-.611-.98-.027-1.972.286-2.933.456a49.711 49.711 0 01-3.305.456 56.16 56.16 0 01-17.31-.657c-7.032-1.347-13.147-4.231-19.73-6.858l-5.45-2.192c-.94-.377-1.93-.693-2.825-1.166.154-.938.642-1.825 1.053-2.673-2.424.836-4.898 1.56-7.334 2.369-.97-.248-1.926-.56-2.891-.827l-7.807-2.155c-3.494-.961-7.033-1.828-10.504-2.864.119-1.69.014-3.408.015-5.103l.03-10.485c3.293-.828 6.561-1.792 9.843-2.666-.776-2.241-1.514-4.493-2.062-6.803C9.03 81.097 8.7 74.77 9.239 68.742c1.2-13.397 7.24-25.618 16.634-35.156 2.005-2.036 4.17-3.838 6.358-5.668a11.088 11.088 0 01-.593-4.745 11.08 11.08 0 01.16-1.125 11.344 11.344 0 01.542-1.911 11.06 11.06 0 01.456-1.041 11.156 11.156 0 01.71-1.23 11.029 11.029 0 01.675-.914 11.548 11.548 0 01.957-1.038 11.178 11.178 0 011.52-1.23 11.337 11.337 0 012.49-1.264 11.453 11.453 0 011.89-.5 11.035 11.035 0 011.67-.165c.133 1.69.037 3.433.037 5.13 0 1.877.077 3.777.023 5.65-.007.24-.03.49-.117.715-.361.924-.842 1.803-1.295 2.685-1.172 2.282-2.515 4.579-3.5 6.942 1.274.648 2.823 1.004 4.249 1.028 2.744.047 5.481-1.113 7.445-3.01 2.12-2.052 3.27-4.81 3.308-7.749l-5.717-.013c-.83.003-2.803.15-3.53-.055-.136-.04-.16-.084-.225-.214-.177-.354-.128-9.607-.093-10.71.01-.28.034-.546.128-.813.151-.137.298-.156.495-.155 3.437.01 6.243 1.767 8.555 4.157 5.98-2.052 13.005-2.846 19.307-2.549.014-1.07-.171-2.844.078-3.84z" fill="#0C0C0C"/><path d="M42.352 113.185c.02.077.03.099.033.189.026.753-.315 1.229-.8 1.757-.066-.74.316-1.404.767-1.946zM29.837 38.888l.044.044c.168.569-.124 1.626-.311 2.193-.602 1.815-1.95 3.583-3.677 4.454l-.042-.03c.072-.4 1.44-1.436 1.785-1.822 1.206-1.348 2.064-3.025 2.201-4.84zm-8.799 57.788c2.984 1.033 5.933 1.089 9.048.846.94-.074 1.884-.195 2.824-.235l-.04.064.172-.028.016-.097c.084.08.046.036.114.134-.052.13-.056.16-.193.22-.43.185-1.07.103-1.535.151-3.556.372-7.112.484-10.516-.76l.11-.295zm15.623-51.611c.256.076.48.2.691.363.491.376.79.893.858 1.51.084.755-.177 1.356-.64 1.93-.296.237-.56.404-.906.563.118-1.461.058-2.905-.003-4.366zM18.417 83.287c1.407.8 2.81.936 4.341 1.329-.57.128-1.132.299-1.694.46a23.34 23.34 0 00-3.114 1.17c.196-.978.297-1.976.467-2.96zm17.48 3.676c.618.032 1.237.145 1.849.241 1.822.29 3.605.68 4.94 2.051.927.953 1.57 2.227 1.835 3.526.413 2.021.118 4.69.028 6.773-.139 3.227-.326 6.464-.368 9.694-.044-.013-.089-.021-.13-.037-.081-.031-.167-.071-.197-.156-.103-.289.025-1.203.039-1.569l.34-8.399c.075-1.8.253-3.685.072-5.48a7.083 7.083 0 00-.647-2.38c-1.107-2.296-3.053-3.222-5.472-3.602-.626-.098-1.487-.125-2.07-.362-.166-.066-.158-.143-.22-.3zM23.945 112.15c.615.421 1.186 1.162 1.731 1.69a31.538 31.538 0 002.528 2.175l-1.02.319c-1.05.405-2.16.711-3.237 1.034a118.036 118.036 0 01-.002-5.218zm10.56-66.745c.378-.033.679.001 1.01.198.426.254.683.685.795 1.16.15.64.071 1.338-.304 1.887-.337.495-.757.711-1.33.833-.37-.035-.66-.083-.976-.29-.449-.293-.733-.762-.838-1.284-.114-.573-.018-1.211.313-1.699.34-.501.752-.688 1.33-.805z" fill="#FEFEFF"/><path d="M34.434 46.81c.174.017.363.022.493.16a.516.516 0 01.14.432c-.025.218-.159.352-.31.495-.165-.031-.344-.07-.473-.189a.5.5 0 01-.168-.432c.017-.204.179-.338.318-.467z" fill="#0C0C0C"/><path d="M72.08 120.08c.882.133 1.8.454 2.661.688 1.773.476 3.543.962 5.31 1.457 3.015.84 6.078 1.511 9.094 2.351.62.172 1.24.382 1.867.528.383.089.796.11 1.166.242.1.036.077.037.17.127.033.187.037.219-.03.395-.322.102-4.78-1.197-5.45-1.367l-6.17-1.593c-.153.653-1.485 4.922-1.752 5.209-.15.063-.147.102-.306.039a.603.603 0 01-.048-.391c.08-.472.318-.992.472-1.447.396-1.166.817-2.33 1.147-3.517-.723-.28-1.504-.457-2.252-.662l-3.79-1.037c-.674-.184-1.379-.34-2.024-.609-.115-.154-.077-.226-.064-.413zm-38.049-8.104c2.59.004 5.187.128 7.776.206-.125.939-.403 1.874-.64 2.79a2.65 2.65 0 01-.173.371c-.19.135-.35.164-.578.148-1.256-.09-3.955-1.55-4.988-2.277a8.07 8.07 0 01-1.397-1.238zm8.959.256h6.764c.009.939.226 3.374-.34 4.045-.131.045-.264.09-.4.117-1.442.285-5.05-1.139-6.301-1.935.055-.749.12-1.491.276-2.227zm-15.84-58.58c1.386 1.078 2.562 1.616 4.327 1.678.037.451.128 2.409.303 2.678.059.089.21.098.307.126.089.367.077.756.006 1.126-.134.701-.444 1.136-1.029 1.531-.467.215-.953.327-1.47.284-1.405-.116-2.48-1.39-3.316-2.403.724-1.509.62-3.382.872-5.02zM12.637 94.22c.284.304 1.396 2.996 1.684 3.591.356.727.73 1.444 1.122 2.152-2.29-.598-4.57-1.232-6.84-1.901-1.6-.471-3.23-.883-4.807-1.422 1.135-.416 2.344-.706 3.51-1.027 1.769-.486 3.544-.98 5.331-1.393z" fill="#FEFEFF"/><path d="M16.389 100.647c2.368.649 4.787 1.281 7.117 2.053.063 2.731-.004 5.48.016 8.213-.432-.332-.842-.943-1.185-1.376-2.223-2.803-4.12-5.82-5.948-8.89z" fill="#3E9AFF"/><path d="M70.803 101.345c.293.174.298.737.483 1.02.397.61 1.046 1.131 1.499 1.72.624.812 1.047 1.695 1.606 2.536l.034.05a56.303 56.303 0 00-.491 4.495c-.049.726.02 1.473-.07 2.191-.15.089-.164.047-.326.008-.448-.131-.912-.227-1.367-.336a307.914 307.914 0 00-1.344-4.378c-.436-1.409-1.122-3.075-1.124-4.558-.001-1.041.356-2.008 1.1-2.748zm-28.393 13.4c1.463.849 5.076 2.452 6.779 2.018.473-.121.68-.363.92-.774.74.501 1.547.897 2.337 1.312 2.096 1.099 4.27 2.162 6.026 3.776l.008.134c-.766.1-2.243-.147-3.092-.208-2.542-.185-5.114-.292-7.646-.576-1.165-1.124-2.435-2.107-3.725-3.081-.739-.557-1.523-1.093-2.203-1.722.176-.304.396-.591.596-.879zm42.52-23.047c.361-.05.748-.025 1.113-.027.44.521.608 1.171.994 1.72-.13.813-.136 1.654-.332 2.454-.44-.949-.924-1.881-1.39-2.818-1.925-.008-3.904.214-5.829.324l-10.005.517c.376 1.05.99 2.086 1.469 3.098a605.926 605.926 0 003.427 7.172c.35.708.7 1.413 1.003 2.142-.263-.04-.526-.096-.787-.146-.5-.935-1.05-1.86-1.698-2.699-.33-.427-.804-.779-1.079-1.243-.502-.848-.857-1.895-1.275-2.799l-1.687-3.674c-.4-.879-.829-1.753-1.11-2.678.02-.056.03-.101.069-.15.117-.15.334-.21.514-.231 1.52-.18 3.127-.172 4.66-.263a881.19 881.19 0 0011.943-.7z" fill="#FEFEFF"/><path d="M77.477 92.325c.245-.019.536-.087.758.013.063.157.08.154.017.308-.518.172-1.195.132-1.741.164-.225.02-.4.026-.594-.097-.03-.18-.046-.096.05-.25.47-.138 1.02-.103 1.51-.138z" fill="#0C0C0C"/><path d="M96.196 69.246c.753.64 2.013 2.734 2.575 3.086.052-.024.119-.03.156-.073.032-.038.102-1.173.421-1.598a.947.947 0 01.664-.39c.437-.048.99.135 1.313.43.429.394.645 1.03.645 1.602 0 .47-.152.962-.497 1.295-.413.4-.697.283-1.201.278-.151.632-.118 1.386-.179 2.036-.063.682-.198 1.36-.318 2.033a95.187 95.187 0 01-.685 2.872c-.646.058-1.515.225-2.112-.08-.59-.712-.862-4.34-.946-5.408-.266-.026-.54-.045-.803-.09-.288-.05-.618-.147-.787-.403-.135-.206-.038-.425.06-.628.166-.347.39-.665.554-1.015.606-1.29.876-2.56 1.14-3.947zm-58.662-8.842c.26.185.356.538.438.833.44 1.58.64 3.297.944 4.915a255.36 255.36 0 001.618 7.996c.814-.294 1.588-.85 2.33-1.297a87.806 87.806 0 012.59-1.506c-.517 2.075-1.04 4.14-1.512 6.227-.019.1-.032.177-.086.266-.055.09-.178.067-.276.067-1.683 0-3.017-.157-4.694.291.326-.163.908-.302 1.096-.621-.04-.082-.038-.147-.137-.169-.425-.095-1.265.434-1.648.636a24.428 24.428 0 01-1.73-.136c.016-1.312.016-2.666.445-3.922.412-1.206 1.008-2.308 1.311-3.561.53-2.186-.256-7.7-.689-10.02zm2.779 17.89c1.45-.182 3.087.032 4.569-.02-.193.62-.508 1.066-.897 1.575-.519-.012-1.79-.308-2.197-.065l-.002.113c.26.245.666.227 1.012.264.535.057 1.104.152 1.64.104.712-.064 2.973-.847 3.43-.597a.67.67 0 01-.005.323c-.319 1.453-2.868.802-3.508 1.206l-.031.162.116.114c.81.231 2.012-.012 2.784-.321.279-.112.533-.29.826-.358.053.029.127.065.169.107.13.133.13.216.128.386-.264.563-.917.86-1.462 1.096-.465.202-.98.248-1.479.32-.056.003-.133.002-.187.019-.159.048-.201.104-.281.235l.054.113c.967.39 3.043-.903 3.28-.892.02.066.034.098.034.173.002.226-.163.439-.29.616-1.093 1.525-2.586.895-3.226 1.557l.024.112c.531.266 1.75-.152 2.285-.307a6.65 6.65 0 01-.255.197c-2.407 1.751-6.013.38-8.666-.052.19-1.984.693-4.024 1.118-5.972.333-.099.674-.15 1.017-.208zm-6.671 33.879c1.487 1.503 3.889 2.96 5.94 3.545.603.172 1.183.258 1.755-.055.536.651 1.237 1.121 1.907 1.621 1.489 1.11 3.648 2.544 4.688 4.098.178.266.535.824.44 1.154-.025.083-.086.085-.157.119-.368-.033-.728-.238-1.064-.387-3.423-1.361-6.805-2.861-10.206-4.281l-3.197-1.322c-.735-.298-1.504-.56-2.195-.95.432-1.227 1.362-2.463 2.09-3.542z" fill="#FEFEFF"/><path d="M17.895 92.79c.562 1.673 1.55 3.08 3.143 3.886l-.11.296c-.03.187-.056.246.017.417 2.048 1.517 9.493.945 12.162.694l.025 1.441c-3.087 1.009-6.263 1.767-9.33 2.822a191.923 191.923 0 00-7.7-2.168c-1.216-1.864-2.122-4.028-2.994-6.07 1.57-.502 3.203-.852 4.787-1.318zm100.749-6.267c.06.038.111.07.166.113.775.617 1.479 1.716 1.872 2.618.619 1.42.982 2.975 1.353 4.475a154.04 154.04 0 011.615 7.455c.266 1.367.627 2.775.742 4.163a8.108 8.108 0 01-.146 2.466 9.039 9.039 0 01-.212.798 9.02 9.02 0 01-.135.391 9.016 9.016 0 01-.329.757 7.941 7.941 0 01-.63 1.066 7.887 7.887 0 01-.505.654c-.764.856-1.683 1.464-2.699 1.981-.085-1.817-.018-3.665-.018-5.485l.034-11.252c.009-2.713.205-5.63-.31-8.305-.132-.689-.466-1.287-.798-1.895zM43.751 12.597c2.803.163 5.32 1.088 7.407 3.006 2.259 2.075 3.477 5.06 3.599 8.1l-11.003.003-.003-11.109z" fill="#3E9AFF"/><path d="M30.309 38.747c.312.4.505 1.111.724 1.583 1.175 2.537 2.56 3.415 5.096 4.35l.124 1.047c-.46-.402-.974-.718-1.601-.748a1.975 1.975 0 00-1.442.549c-.522.487-.791 1.216-.8 1.92-.006.652.216 1.305.683 1.769.41.406 1.031.658 1.61.651.691-.008 1.151-.4 1.61-.863-.273 1.784-.844 3.587-2.246 4.817-.977.857-2.102 1.122-3.379 1.037-1.413-.155-2.674-.94-3.658-1.937-1.597-1.618-2.092-3.355-2.071-5.564-.186.71-.142 1.287-.112 2.012.011.268.03.588-.177.788a.49.49 0 01-.386.11c-.458-.044-.943-.352-1.222-.71-.354-.454-.47-1.07-.376-1.633.112-.668.444-1.121.977-1.516.583.116 1.33.616 1.906.503.218-.142.325-.342.455-.563.431-.73 1.213-1.146 1.81-1.736 1.656-1.635 2.46-3.54 2.475-5.866z" fill="#FEFEFF"/><path d="M33.358 51.24c.027.014.057.022.08.04.1.087.154.2.126.332-.072.342-.532.634-.802.805-.64.054-.983.03-1.555-.287-.008-.015-.017-.03-.023-.046-.045-.135-.086-.193-.02-.32l.13-.025c.393.184.736.343 1.179.268.435-.074.654-.432.885-.767zm-4.425-6.11c.552-.056 1.083-.025 1.592.214a2.465 2.465 0 01.507.324 2.287 2.287 0 01.408.442 2.104 2.104 0 01.186.31 2.46 2.46 0 01.136.334c.214.657.16 1.441-.164 2.054-.321.608-.828.954-1.473 1.15-.451.058-.845.072-1.278-.093a2.501 2.501 0 01-1.433-1.452 2.486 2.486 0 01-.159-.64 2.527 2.527 0 01.03-.788 2.492 2.492 0 01.154-.504c.296-.7.803-1.083 1.494-1.35z" fill="#0C0C0C"/><path d="M29.317 45.468a2.088 2.088 0 01.81.109 1.928 1.928 0 011.251 1.31 2.305 2.305 0 01-.215 1.81c-.327.543-.776.78-1.369.942a2.065 2.065 0 01-1.215-.36 2.125 2.125 0 01-.716-.816 2.137 2.137 0 01-.156-.41 2.19 2.19 0 01.23-1.677c.326-.535.788-.771 1.38-.908z" fill="#FEFEFF"/><path d="M29.206 47.084c.172-.004.37-.02.524.071.17.1.195.169.25.343-.044.226-.096.294-.256.46-.137.007-.305.01-.432-.046a.433.433 0 01-.197-.173.44.44 0 01-.053-.15c-.031-.19.074-.35.164-.505z" fill="#0C0C0C"/><path d="M19.899 107.063c.46.32 1.66 2.146 2.1 2.708.488.617.991 1.223 1.509 1.816.05 1.919.012 3.847.014 5.767-4.182-1.117-8.329-2.361-12.52-3.446-2.4-.675-4.799-1.431-7.22-2.018 1.596-.582 3.286-.996 4.914-1.493a559.99 559.99 0 0111.203-3.334z" fill="#FEFEFF"/><path d="M88.817 40.77l.069.008c.133.243.128.563.148.836.355 4.796-.965 8.562-4.094 12.195-1.548-1.82-3.3-3.523-4.958-5.248-1.816-1.974-3.655-4.005-5.602-5.848 4.818-.591 9.627-1.287 14.437-1.944z" fill="#C3D7FD"/><path d="M32.984 100.011c.206.065.127.675.124.862-.019 1.316-.207 10.506-.081 10.854.019.052.158.171.203.219-.169.523-1.491 2.446-1.87 3.077l-2.699.859c-.769-.669-1.574-1.291-2.334-1.973a37.724 37.724 0 01-2.34-2.402c-.06-2.932-.074-5.863-.04-8.795.87-.319 1.806-.534 2.697-.789 2.12-.608 4.257-1.185 6.34-1.912zm94.848-32.581c1.357-.02 2.733.35 3.843 1.142a6.29 6.29 0 011.328 1.305 6.72 6.72 0 01.505.785 5.826 5.826 0 01.269.562c.04.096.078.193.114.29a7.335 7.335 0 01.183.596 6.35 6.35 0 01.168.936 7.177 7.177 0 01.041.655 7.187 7.187 0 01-.062.982 7.096 7.096 0 01-.122.644 6.925 6.925 0 01-.301.937 7.66 7.66 0 01-.277.595 6.393 6.393 0 01-.335.565 6.06 6.06 0 01-.188.27c-1.112 1.494-2.661 2.215-4.465 2.489-1.614.027-3.032-.31-4.301-1.362-1.32-1.094-2.113-2.72-2.251-4.42-.143-1.744.422-3.596 1.572-4.924 1.173-1.355 2.524-1.914 4.279-2.048z" fill="#3E9AFF"/><path d="M42.02 13.224c.09-.01.137.004.223.027.01.024.023.048.032.074.176.537.037 3.294.04 4.06l.021 4.124c.004.767.088 1.636-.057 2.388-.21 1.087-1.446 3.154-1.999 4.232l-2.827 5.528c-1.058-.636-1.938-1.408-2.782-2.307-1.436-1.741-2.398-3.843-2.6-6.104a11.884 11.884 0 01-.045-1.096 10.886 10.886 0 01.096-1.367 11.833 11.833 0 01.196-1.079 11.612 11.612 0 01.301-1.054 10.862 10.862 0 01.519-1.268 10.37 10.37 0 01.384-.728 10.743 10.743 0 01.756-1.143 10.714 10.714 0 011.26-1.402 10.894 10.894 0 013.121-2.041 12.038 12.038 0 01.75-.29 11.99 11.99 0 01.767-.234 10.948 10.948 0 011.845-.32z" fill="#C3D7FD"/><path d="M3.058 96.909c2.23.512 4.45 1.284 6.652 1.923 2.033.59 4.116 1.068 6.12 1.747 1.232 2.057 2.524 4.067 3.813 6.088-1.262.434-2.559.781-3.84 1.156a805.492 805.492 0 00-12.727 3.824 519.2 519.2 0 01-.018-14.738zm81.896-3.431c.674.525.985 2.295 1.689 2.994-.123 1.771-.446 3.566-.67 5.33-.25 1.964-.413 3.967-.742 5.917-.044.259-.078.577-.24.785-.832.093-7.771-1.754-9.083-2.118-.174-.405-.367-.804-.552-1.204a984.008 984.008 0 00-5.244-10.906l14.843-.798z" fill="#FEFEFF"/><path d="M73.906 26.864c3.027.064 6.107.926 8.675 2.535 3.924 2.46 6.403 6.295 7.431 10.766-.585.12-1.19.18-1.781.26-4.776.6-9.543 1.44-14.331 1.912-.082-2.86-.025-5.737-.026-8.598 0-2.284-.08-4.595.032-6.875z" fill="#C3D7FD"/><path d="M37.546 44.072c1.298.197 3.038 1.032 4.256 1.58 5.58 2.504 10.024 5.892 14.17 10.374.707.763 1.327 1.591 2.018 2.364-1.737-.33-3.458-.752-5.182-1.15-1.254-.289-2.52-.537-3.754-.904-.496 1.317-.71 2.864-1.038 4.235-.81 3.397-1.563 6.828-2.46 10.201-1.488 1.021-3.164 1.84-4.705 2.795a268.121 268.121 0 01-1.604-8.042c-.274-1.48-.435-3.114-.905-4.534-.148-.445-.405-.812-.697-1.172-1.457-1.796-3.344-1.987-5.523-2.207-.077-.777-.112-1.556-.202-2.333.746-.176 1.41-.378 2.045-.822 1.484-1.036 2.257-2.782 2.573-4.512.613-.224 1.117-.512 1.525-1.04a2.824 2.824 0 00.285-.456 2.596 2.596 0 00.19-.504 2.824 2.824 0 00.09-.665 2.625 2.625 0 00-.024-.403c-.122-.9-.618-1.468-1.308-1.998.13-.276.224-.5.25-.806zM12.912 93.675c-1.205-3.381-2.174-6.755-2.754-10.302a57.007 57.007 0 01-.024-18.278 57.929 57.929 0 01.792-4 58.114 58.114 0 011.076-3.934 58.31 58.31 0 011.356-3.847 57.264 57.264 0 01.78-1.885c1.173-2.728 2.583-5.553 4.323-7.968.567.174 1.279.152 1.873.21.883.092 1.765.188 2.647.29a7.363 7.363 0 00.08 2.291c-.433.569-.784 1.141-.834 1.874-.058.821.282 1.407.788 2.011-1.423.404-2.6.9-3.482 2.147a4.858 4.858 0 00-.546 1.029 4.638 4.638 0 00-.245.9 4.624 4.624 0 00-.065.93 4.652 4.652 0 00.072.696c.262 1.478 1.138 2.483 2.336 3.315-.854.57-1.673 1.176-2.328 1.976-.687.84-1.237 1.827-1.521 2.877-.546 2.016-.654 5.526-.837 7.7l-.338 4.124c-.084 1.102-.223 2.239-.103 3.34.151 1.375.962 2.883 2.046 3.742-.08.8-.607 3.34-.553 3.826l.149.073c.142.213-.125 1.94-.146 2.355-.054 1.089.095 2.129.294 3.195-1.612.446-3.212.907-4.836 1.313zm49.989-25.942c.583 1.13.922 2.49 1.258 3.712 2.016 7.339 1.956 15.898-.375 23.16-2.124 6.622-5.811 12.454-10.674 17.406-.945.963-1.87 1.953-2.94 2.78l-.003-2.546c.641 0 1.27-.02 1.902-.126.047-.909-.03-1.845-.052-2.757l-.22-6.756-.165-6.512c-.038-1.243-.054-2.501-.187-3.738a13.47 13.47 0 00-.724-3.144c-.707-1.933-1.894-3.385-3.763-4.256.398-.373.614-.862.983-1.258a7.49 7.49 0 00.451-.547c3.37.74 6.801 1.43 10.124 2.349.577-1.52.904-3.386 1.296-4.98l2.018-8.253c.36-1.508.66-3.039 1.071-4.534z" fill="#3E9AFF"/><path d="M49.292 56.895c2.532.552 5.06 1.122 7.584 1.709 2.478.553 4.972 1.059 7.439 1.659L60.26 76.967c-.657 2.675-1.285 5.365-2.009 8.023l-.677-.178c-2.933-.74-5.915-1.283-8.85-2.017.008-.105.017-.212.017-.317 0-.367.038-1.298-.063-1.618-.032-.102-.139-.192-.21-.265-.008-.008-.154-.152-.166-.168-.187-.227.023-.461.014-.714a.548.548 0 00-.227-.437c-.577-.376-2.85.513-3.633.614.285-.356.66-.838.76-1.284.04-.175.025-.359-.092-.504-.199-.248-.558-.219-.847-.236 1.07-4.607 2.18-9.204 3.333-13.791.584-2.388 1.078-4.798 1.681-7.18z" fill="#FEFEFF"/><path d="M51.032 60.669c3.412.7 6.82 1.531 10.215 2.32a32.3 32.3 0 00-.47 2.207c-3.438-.686-6.828-1.606-10.27-2.275.215-.741.39-1.492.525-2.252z" fill="#C3D7FD"/><path d="M72.377 28.191c.354-.04.729-.03 1.086-.042.033 4.728-.117 9.486.03 14.209.483.735 1.77 1.822 2.453 2.532l4.982 5.27c1.229 1.284 2.618 2.55 3.666 3.989-.468.426-.954.846-1.455 1.233-3.355 2.597-7.454 3.524-11.62 3.004-2.48-.431-4.79-1.394-6.759-2.978a15.286 15.286 0 01-3.21-3.62 15.252 15.252 0 01-1.485-3.01 15.49 15.49 0 01-.926-5.59 15.496 15.496 0 01.152-1.95 15.327 15.327 0 01.295-1.54 15.635 15.635 0 01.722-2.234 15.827 15.827 0 012.846-4.566 14.28 14.28 0 011.527-1.465 14.536 14.536 0 012.965-1.898 14.064 14.064 0 011.634-.665 14.594 14.594 0 012.746-.637c.117-.015.234-.03.35-.042zm-40.18 29.901c1.26.059 3.384.307 4.354 1.211.314.293.463.763.57 1.168.428 1.615 1.088 7.828.823 9.38-.236 1.38-.912 2.555-1.379 3.852-.482 1.338-.481 2.75-.48 4.153-1.182-.192-2.406-.265-3.597-.395-2.6-.281-5.21-.554-7.802-.91.19-2.28.227-4.584.319-6.87.063-1.592.195-3.196.234-4.785.009-.358-.005-.893-.262-1.161l-.07.144.163-.034-.173.076c-.232 1.173-.178 3.056-.24 4.324l-.202 4.77c-.064 1.298-.17 2.608-.166 3.907 2.173.39 4.43.576 6.625.809 2.323.246 4.648.54 6.979.704.315.026.624.083.935.138-.507 2.586-.93 5.193-1.481 7.769-3.754-.634-7.552-1.091-11.319-1.66-2.03-.307-4.34-.508-6.267-1.24a5.254 5.254 0 01-1.155-.614 5.389 5.389 0 01-.97-.878c-1.19-1.367-1.383-2.96-1.269-4.707.128-1.944.316-3.886.468-5.83.155-1.99.3-5.834.9-7.578a7.777 7.777 0 011.545-2.633 7.724 7.724 0 01.73-.717c.49-.423 1.074-.885 1.649-1.18.836-.432 3.224-1.145 4.164-1.035.148.018.097-.008.186.098-.032.112-.08.244-.087.36-.009.138.074.243.153.348.727.98 1.959 2.2 3.2 2.389.797.12 1.62-.05 2.27-.534.489-.363.93-.957.987-1.58.042-.458-.043-.901-.335-1.26z" fill="#FEFEFF"/><path d="M114.649 84.054c.752.013 2.349 1.162 2.885 1.698.871.869 1.336 1.837 1.546 3.043.332 1.909.25 3.915.252 5.846l-.015 7.589-.026 22.308-28.165.014c-.033-2.275.18-4.601.267-6.878 1.713-1.691 3.277-3.404 3.959-5.774.336-1.167.43-2.409.59-3.61l.725-5.516.693-5.397c.154-1.134.385-2.303.457-3.44.015-.243.005-.47-.114-.686l-.094.066c-.39.855-.96 6.355-1.128 7.708-.31 2.186-.583 4.379-.86 6.57-.181 1.424-.27 2.951-.711 4.322-.879 2.73-3.124 5.299-5.681 6.582a8.082 8.082 0 01-.91.395 7.786 7.786 0 01-1.44.363 7.4 7.4 0 01-.988.084c-.165.003-.33.001-.496-.006-1.695-.085-4.04-.998-5.69-1.505-1.796-.551-3.612-1.054-5.394-1.652a62.755 62.755 0 01.572-9.519c1.6.304 9.153 2.429 10.036 2.33.725-.081.777-1.213.843-1.76.378-3.202.774-6.402 1.189-9.6.237-1.921.331-4.033.887-5.89a9.131 9.131 0 011.591-3.033c1.51-1.913 3.605-3.144 5.941-3.773 2.641-.71 5.56-.601 8.284-.643l7.555-.12c1.101-.022 2.246.032 3.337-.103l.103-.013z" fill="#3E9AFF"/><path d="M52.73 16.695c5.509-1.813 13.24-3.012 19.035-2.469.022 4.54-.047 9.082.011 13.62-4.035.651-7.575 2.745-9.98 6.075a15.704 15.704 0 00-.66.994 16.355 16.355 0 00-1.893 12.583 15.343 15.343 0 00.595 1.824 15.845 15.845 0 001.196 2.403 15.932 15.932 0 001.339 1.873 16.124 16.124 0 001.315 1.397 15.785 15.785 0 001.475 1.226c1.986 1.425 4.175 2.228 6.569 2.664-.067.633-.398 2.265-.188 2.749.713.177 1.5.194 2.233.267l4.177.42c5.36.545 10.734 1.02 16.089 1.614.27 1.81.84 3.15 1.79 4.709-.183 1.167-.328 2.46-.794 3.552-.316.739-.845 1.464-1.05 2.238-.06.231-.066.43.08.637.327.466 1.045.573 1.568.668.141 1.113.332 4.754 1.183 5.382.48.354 1.632.184 2.22.154-.226.912-.458 1.822-.697 2.73-3.654.452-6.838 1.368-9.212 4.398-1 1.278-1.619 2.654-1.984 4.23-.241-.503-.48-.948-.852-1.37-1.026-.066-2.076.045-3.102.108-1.381.085-2.763.162-4.145.23-2.43.122-4.857.265-7.283.43-1.168.07-2.384.046-3.539.213-.224.032-.434.1-.608.248a.796.796 0 00-.298.592c-.006.736 2.924 6.535 3.407 7.736-.852.641-1.302 1.732-1.441 2.761-.074.546.013 1.09.124 1.627.184.888 2.08 7.604 2.417 8.047.217.286.612.298.942.336-2.283.922-3.921 2.429-4.892 4.705a8.674 8.674 0 00-.63 2.309c-.13.983-.08 2.013-.079 3.004.003 1.793.033 3.589-.029 5.381a57.011 57.011 0 01-4.951-.367 56.5 56.5 0 01-12.069-2.804 55.06 55.06 0 01-2.323-.877c.206-.405.427-.808.612-1.222 3.547-.124 7.101.045 10.645-.074.085-.783.04-1.586.017-2.372-1.383-1.948-4.91-3.513-7.021-4.637-.546-.29-1.454-.671-1.834-1.162-.089-.115-.05-.531-.045-.684 1.07-.827 1.995-1.817 2.94-2.78 4.863-4.951 8.55-10.784 10.675-17.405 2.33-7.263 2.39-15.822.374-23.16-.336-1.223-.675-2.583-1.258-3.713.618-2.6 1.33-5.185 1.89-7.797-2.262-.535-4.543-.992-6.8-1.546-.692-.773-1.312-1.6-2.019-2.364-4.146-4.482-8.59-7.87-14.17-10.375-1.218-.547-2.958-1.382-4.256-1.579-.072-1.035-.302-2.001-.874-2.879-.932-1.428-2.557-2.551-4.228-2.898-2.085-.432-4.565-.193-6.37.994-1.658 1.09-2.696 2.741-3.093 4.671a293.2 293.2 0 00-2.647-.29c-.594-.057-1.306-.035-1.873-.21 3.799-5.65 8.408-11.01 13.916-15.07 1.204 2.76 3.247 5.108 6.102 6.214 2.672 1.034 5.593.902 8.2-.255a11.377 11.377 0 001.886-1.09 11.202 11.202 0 002.35-2.264 11.273 11.273 0 002.162-4.82 11.092 11.092 0 00.187-2.046c.446.005 1.49.128 1.835-.134.416-1.182-.585-4.113-1.129-5.242a12.061 12.061 0 00-1.24-2.058z" fill="#FEFEFF"/></g><defs><clipPath id="clip0_8_2189"><path fill="#fff" d="M0 0h140v140H0z"/></clipPath></defs></svg>