<svg width="140" height="140" fill="none" xmlns="http://www.w3.org/2000/svg"><g clip-path="url(#clip0_8_1959)"><path d="M0 0h140v140H0V0z" fill="#FEFEFE"/><path d="M112.302 32.689a6.36 6.36 0 01.692.023 4.78 4.78 0 012.388.913 4.287 4.287 0 01.364.298 5.29 5.29 0 01.332.332c.802.892 1.126 2.07 1.024 3.256-.023.268-.123.354-.313.518-.407-.4-.331-1.773-.594-2.425-.528-1.31-1.745-2.112-3.116-2.28-.306-.039-.693.022-.973-.096l-.046-.148c.064-.22.069-.245.242-.391zm.296 2.865c.244-.02.476-.03.712.047.316.102.596.322.747.62.162.316.169.684.036 1.011-.176.434-.488.627-.897.813a1.37 1.37 0 01-.545-.007 1.194 1.194 0 01-.818-.57 1.305 1.305 0 01-.087-1.071c.147-.436.454-.649.852-.843zm-.496-5.946a7.44 7.44 0 012.957.401c1.871.654 3.511 2.132 4.37 3.916.526 1.09.872 2.78.458 3.952a.622.622 0 01-.306-.097c-.259-.39-.088-1.818-.281-2.488-.729-2.529-2.871-4.535-5.466-5.014-.493-.091-1.314.034-1.731-.194-.071-.179-.039-.296-.001-.476z" fill="#0C0C0C"/><path d="M112.331 26.546a9.988 9.988 0 013.494.52 10.962 10.962 0 011.925.856 11.132 11.132 0 011.314.877 10.492 10.492 0 011.173 1.06 11.106 11.106 0 011.006 1.218c.101.143.2.29.294.437.967 1.529 1.439 3.118 1.6 4.908.03.336.114.789.021 1.112-.067.233-.167.268-.36.386-.072-.062-.149-.122-.183-.215-.124-.338-.124-1.83-.228-2.397a9.468 9.468 0 00-.841-2.508c-1.475-3.015-4.093-4.852-7.334-5.564-.63-.139-1.492.043-2.06-.196-.107-.045-.088-.083-.118-.183.077-.168.14-.216.297-.31z" fill="#0C0C0C"/><path d="M112.301 23.468c.529.007 1.057.038 1.583.094a13.349 13.349 0 011.029.157 14.629 14.629 0 011.014.234 13.116 13.116 0 01.994.309 13.95 13.95 0 014.992 3.06 13.836 13.836 0 011.394 1.544 14.425 14.425 0 01.554.76 12.793 12.793 0 01.728 1.21 13.21 13.21 0 01.766 1.717 13.905 13.905 0 01.291.895 11.989 11.989 0 01.228.913 12.136 12.136 0 01.164.926c.022.155.041.311.057.467.062.553.134 1.123.054 1.678-.043.295-.121.36-.349.526-.104-.106-.171-.154-.206-.304-.076-.33-.044-.757-.058-1.1-.032-.774-.09-1.567-.282-2.32-.586-2.29-1.655-4.34-3.309-6.045a12.967 12.967 0 00-1.128-1.051 12.963 12.963 0 00-1.24-.916 13.871 13.871 0 00-1.337-.769 13.534 13.534 0 00-1.417-.61 11.95 11.95 0 00-2.953-.663c-.502-.048-1.044-.034-1.535-.143-.184-.04-.231-.075-.36-.204l.021-.195-.013.183c.101-.238.087-.243.318-.353zM94.135 9.785c.543-.018 1.02.052 1.507.306.625.326 1.008.827 1.282 1.463.569 1.322.956 2.794 1.393 4.168l2.743 8.779c2.76 8.61 5.653 17.185 8.303 25.83 1.797-.678 3.35-1.668 5.342-1.517 2.972.226 5.576 2.161 7.462 4.35 1.701 1.976 3.169 4.641 3.591 7.235.171 1.054.121 2.13.117 3.193l-.018 4.027-.028 14.043-.047 23.599-.011 7.877c-.006 1.505.036 3.037-.075 4.537-.869.515-1.9.863-2.832 1.257a359.849 359.849 0 00-5.074 2.175l-23.863 10.277c-1.142-.647-2.34-1.204-3.497-1.823l-8.501-4.6c-1.398-.756-2.845-1.461-4.199-2.288 0-1.495.021-2.994-.033-4.487-3.94 1.88-8.04 3.463-12.045 5.205-1.594.704-3.191 1.4-4.793 2.087-1.039.457-2.094 1.002-3.184 1.322-1.334.392-2.573.327-3.896-.097-1.485-.476-2.859-1.28-4.223-2.025-1.368-.754-2.74-1.5-4.117-2.237l-19.294-10.552-10.64-5.909-3.567-1.942c-.792-.432-1.612-.844-2.347-1.367-.342-.243-.583-.517-.743-.908a2.79 2.79 0 01-.188-.868c-.054-.793.022-1.614.012-2.412-.014-1.206-.126-2.478-.016-3.678a3.21 3.21 0 01.245-.992c.227-.532.71-.817 1.197-1.091 1.081-.609 2.3-1.07 3.435-1.572l6.61-2.888c4.22-1.818 8.391-3.802 12.66-5.502-.173-.617-.407-1.206-.644-1.8-.718.222-1.418.57-2.108.87a424.79 424.79 0 00-4.03 1.78l-10.523 4.564c-1.07.466-3.505 1.741-4.567 1.817-.709.05-1.538-.255-2.071-.715-.544-.47-.94-1.086-.982-1.815-.06-1.065-.016-2.156-.016-3.224l-.004-6.117V57.37L7.85 43.958l-.006-4.062c0-.786-.048-1.617.053-2.396.152-1.182.838-2.39 1.634-3.259a5.377 5.377 0 011.645-1.232c.915-.442 1.873-.804 2.81-1.2a389.47 389.47 0 014.555-1.935l11.142-4.698 18.04-7.595c2.066-.861 4.106-1.818 6.188-2.632.425-.166.823-.321 1.285-.328.672-.01 1.304.22 1.783.697a3.4 3.4 0 01.875 1.596c.237.974.123 2.126.122 3.123v4.72l27.55-11.465a358.32 358.32 0 005.376-2.252c1.032-.437 2.139-1.015 3.232-1.255z" fill="#0C0C0C"/><path d="M54.2 34.767c.046.044.072.062.105.125.298.569.605 1.854.826 2.516l2.53 7.749c3 9.125 5.938 18.269 8.816 27.433l4.453 13.858a203.29 203.29 0 011.657 5.155c.16.516.452 1.156.514 1.686.01.087-.01.143-.036.225-.116-.07-.179-.118-.23-.247-.233-.598-.392-1.247-.588-1.86l-1.15-3.551-4.554-14.243L54.25 35.58c-.107-.338-.201-.48-.052-.814z" fill="#FEFEFE"/><path d="M53.467 120.625c1.616.642 3.195.518 4.823.009l-.03 5.377c-1.766.635-3.017.58-4.794-.014v-5.372z" fill="#999"/><path d="M86.49 60.194c.36-1.815 1.19-3.523 2.503-4.838 1.306-1.31 3.155-2.26 5.033-2.258 1.688.002 3.126.845 4.296 2.004-3.914 1.769-7.905 3.356-11.832 5.092zm-8.769 14.987a6.723 6.723 0 01-1.935.567c-.223.03-.447.048-.672.056-1.551.035-3.158-.54-4.27-1.635-1.35-1.327-2.106-3.385-2.105-5.261a8.524 8.524 0 01.167-1.682 8.822 8.822 0 01.49-1.618 8.545 8.545 0 01.795-1.491 8.602 8.602 0 011.07-1.31c1.184-1.172 2.995-2.025 4.68-2.007 1.694.019 3.031.885 4.187 2.051-.873.346-1.889.672-2.28 1.616-.192.466-.188.975-.183 1.47l.007 1.978c.125 2.41.05 4.853.049 7.266z" fill="#3E9AFF"/><path d="M74.183 68.522c-.315-.195-.662-.404-.898-.694-.15-.185-.283-.44-.225-.684.174-.737 1.272-.847 1.816-1.176.348-.21.619-.514.982-.72.622.136 1.22.447 1.807.69l.007 1.977c-.034.69-.004 1.383.011 2.072-.658.236-2.353 1.175-2.925 1.148-.183-.008-.318-.058-.436-.204-.472-.583-.206-1.715-.14-2.409z" fill="#FEFEFE"/><path d="M75.746 65.686c.414.002.94.117 1.246.41.63.603.428 2.666.46 3.552-.846.438-1.75.822-2.644 1.15-.137-.066-.264-.116-.358-.243-.333-.452.045-1.703.122-2.236-.45-.22-.936-.421-1.116-.92.08-.72 1.04-.815 1.565-1.136.258-.157.495-.381.725-.578zM70.049 43.78c1.383-.082 2.655.25 3.81 1.026 1.508 1.014 2.519 2.708 2.844 4.483.397 2.174-.168 4.414-1.427 6.213-1.188 1.697-2.945 2.914-4.994 3.273a5.652 5.652 0 01-2.8-.28 5.557 5.557 0 01-1.016-.49 5.648 5.648 0 01-.688-.494c-1.473-1.224-2.27-3.006-2.433-4.892a8.744 8.744 0 01.862-4.546 8.83 8.83 0 011.159-1.779c1.221-1.442 2.787-2.361 4.683-2.514z" fill="#3E9AFF"/><path d="M69.564 48.276c.167-.015.338-.033.505-.03.396.007.96.196 1.215.511.39.483 1.539 3.656 1.477 4.244-.085.797-1.972.15-2.657.71l-.054.046c-.255.28-.553.646-.888.829-.18.097-.404.177-.603.09-.18-.078-.287-.255-.359-.429-.093-.225-.514-3.364-.517-3.66a2.327 2.327 0 01.207-.98c.334-.723.958-1.075 1.674-1.331z" fill="#FEFEFE"/><path d="M69.905 48.557c.1.006.198.016.296.028.416.055.697.286.938.618.401.552 1.313 3.072 1.203 3.727-.427.27-1.406.14-1.91.132-.184.13-.361.272-.541.408-.318.296-.796.859-1.248.88-.12-.21-.173-.436-.216-.673-.122-.675-.47-2.801-.417-3.404.026-.291.197-.61.367-.843.38-.519.908-.767 1.528-.873zm18.37-12.913c1.366.003 2.67.42 3.763 1.249 1.558 1.183 2.412 3.035 2.674 4.942.305 2.219-.267 4.589-1.629 6.379-1.269 1.668-2.992 2.571-5.046 2.852-1.488.04-2.906-.37-4.062-1.328-1.584-1.313-2.512-3.29-2.68-5.324a8.597 8.597 0 01.09-2.088 8.38 8.38 0 01.438-1.615 8.59 8.59 0 011.225-2.185c.086-.11.174-.22.265-.325 1.29-1.495 2.99-2.411 4.962-2.557z" fill="#3E9AFF"/><path d="M89.334 40.397c.124.008.163.031.27.089.418.523 1.166 3.287 1.177 3.98-.14.294-4.299 1.999-4.903 2.23-.175-.06-.275-.083-.37-.25-.296-.524-1.137-3.425-.98-3.955.525-.353 1.221-.551 1.805-.8 1.002-.43 1.987-.895 3.001-1.294z" fill="#FEFEFE"/><path d="M89.256 40.81l.172.02c.314.414.875 2.767 1.115 3.473-1.46.754-3.058 1.313-4.56 1.989l-.097-.026c-.413-.44-.961-2.877-1.142-3.54 1.512-.615 3.009-1.279 4.512-1.915zM51.977 51.434c1.497-.027 2.988.608 4.113 1.577 1.45 1.25 2.217 3.134 2.342 5.018.156 2.347-.693 4.82-2.26 6.575-1.187 1.326-2.835 2.227-4.626 2.333-1.505.003-2.92-.478-4.066-1.467-1.511-1.303-2.422-3.323-2.56-5.297a8.711 8.711 0 012.369-6.584 6.958 6.958 0 011.071-.91 7.095 7.095 0 013.617-1.245z" fill="#3E9AFF"/><path d="M53.329 56.054a.923.923 0 01.335.055c.264.118.379.362.483.613.27.655.917 2.701.58 3.295-.108.19-.322.341-.51.444-.642.35-1.434.564-2.123.83-.827.32-1.643.742-2.504.959a5.677 5.677 0 01-.243-.079c-.317-.111-.611-.28-.743-.607-.218-.54-.805-2.705-.582-3.218.277-.638 4.46-2 5.307-2.292z" fill="#FEFEFE"/><path d="M50.732 57.355c.275.224.806 3.188.924 3.751-.71.227-1.542.81-2.285.738-.226-.145-.365-.245-.469-.502-.282-.696-.76-2.263-.477-2.962.419-.453 1.712-.782 2.307-1.025z" fill="#3E9AFF"/><path d="M49.805 59.309c.13.1.178.148.229.305-.043.222-.181.332-.334.485-.017-.006-.034-.009-.05-.017-.148-.085-.145-.11-.175-.268.063-.214.187-.342.33-.505z" fill="#FEFEFE"/><path d="M53.282 56.33c.041.01.084.013.125.026.189.06.28.157.364.33.238.49.934 2.64.693 3.102-.256.492-1.641.867-2.151 1.06a.637.637 0 01-.294.063c-.168-.243-.803-3.13-.944-3.64.7-.362 1.489-.593 2.207-.94z" fill="#3E9AFF"/><path d="M52.783 58.347l.027.004c.175.036.205.027.308.166-.01.228-.145.38-.27.561-.2-.085-.286-.123-.367-.322.037-.2.157-.282.302-.409z" fill="#FEFEFE"/><path d="M57.273 69a6.032 6.032 0 012.736.415 6.036 6.036 0 011.447.833c1.548 1.2 2.438 3.091 2.676 5.008.281 2.267-.458 4.768-1.863 6.564-1.195 1.528-2.769 2.483-4.694 2.727a6.105 6.105 0 01-1.637-.104 5.96 5.96 0 01-1.05-.31 6.425 6.425 0 01-.743-.351 6.346 6.346 0 01-.69-.447c-1.505-1.12-2.447-2.969-2.717-4.803-.347-2.356.355-4.888 1.788-6.78 1.19-1.57 2.807-2.482 4.747-2.753z" fill="#3E9AFF"/><path d="M56.538 73.286l.029-.002c.876-.074.677.496 1.355.723.34.114.745-.083 1.118.041.377.126.604.503.76.846.343.75.83 2.416.506 3.197-.324.777-1.916 1.178-2.637 1.491-.569.259-1.493.782-2.127.687-.2-.03-.312-.139-.42-.3-.355-.53-1.006-3.45-.85-4.056.18-.697.8-1.06 1.375-1.4.211-.56.373-.901.891-1.227z" fill="#FEFEFE"/><path d="M59.678 76.008l.067.008c.04.044.06.06.087.12.229.502.365 1.342.134 1.849-.276.603-1.324.808-1.911 1.034-.198-.29-.393-1.717-.48-2.144.718-.26 1.413-.535 2.103-.867zm-2.466.962c.257.172.469 1.808.544 2.189-.69.362-1.439.675-2.22.759-.471-.315-.532-1.428-.652-1.97.748-.366 1.559-.657 2.328-.979zm-.485-3.377c.368.086.445.471.747.64.509.284 1.18.01 1.657.271.355.194.485.734.597 1.091-.711.39-1.503.659-2.264.937-.054-.33-.104-.665-.18-.991-.064-.28-.161-.825-.409-.98-.064.175-.041.28-.014.459l.35 1.577c-.772.384-1.617.663-2.42.97-.141-.529-.32-1.102-.153-1.647.188-.61.809-.893 1.327-1.172.173-.544.293-.793.762-1.155z" fill="#3E9AFF"/><path d="M25.732 38.89l.055.01c.047.142-.505 1.172-.569 1.418-.203.775-.179 1.586-.001 2.361.277 1.208.779 2.412 1.171 3.59l2.055 6.241 6.09 18.326 8.357 25.386 2.587 7.972c.555 1.736 1.044 3.535 1.744 5.217.407.978 1.07 1.668 1.961 2.219-1.46.259-2.905.616-4.36.909a1.683 1.683 0 01-.578-.062c-.67-.218-1.128-.827-1.419-1.441-.723-1.527-1.075-3.293-1.626-4.892-1.897-5.499-3.627-11.066-5.462-16.587a1302.145 1302.145 0 01-10.852-33.104l-2.32-7.344c-.6-1.882-1.23-3.76-1.738-5.669-.164-.618-.366-1.267-.125-1.888a1.76 1.76 0 01.598-.77c.76-.562 3.42-1.461 4.432-1.891z" fill="#999"/><path d="M30.379 66.481l.273.052c.113.1.176.183.236.323.165.383.974 2.748.926 3.032-.016.09-.07.169-.104.253a1.999 1.999 0 01-.286-.053 1.057 1.057 0 01-.207-.3c-.198-.436-.978-2.69-.928-3.068.011-.084.06-.16.09-.239zm1.681 5.126c.16.005.278.02.43.075.467.892.987 2.83 1.322 3.842.449 1.358 1.154 3.12 1.45 4.489.04.176.02.312-.016.487-.119-.004-.318 0-.406-.088-.34-.34-2.799-8.224-2.78-8.805z" fill="#0C0C0C"/><path d="M32.924 83.335c.511.499 7.92 24.166 9.15 27.4.336.884.854 1.835 1.773 2.215.313.129.663.178 1 .16.91-.046 1.832-.373 2.721-.558.97-.203 2.021-.317 2.961-.631 1.01-.337 2.006-.83 2.988-1.246a404.547 404.547 0 006.421-2.765c1.974-.857 3.975-1.65 5.953-2.498a803.381 803.381 0 0111.826-5.014l.01 11.17c-1.814.905-3.73 1.652-5.596 2.445a739.663 739.663 0 00-8.334 3.606c-1.935.858-3.899 1.881-5.903 2.552-2.023.677-3.768.299-5.627-.641-3.355-1.697-6.61-3.627-9.9-5.448l-17.045-9.377a1111.38 1111.38 0 01-10.386-5.731l-3.09-1.71c-.573-.318-1.213-.625-1.74-1.014-.498-.366-.739-.983-.924-1.549.049-.153.097-.307.16-.455.178-.424.5-.694.89-.922.875-.512 1.877-.89 2.803-1.305l5.73-2.528 8.064-3.53c2.023-.89 4.041-1.81 6.095-2.626z" fill="#999"/><path d="M94.045 10.397a2.236 2.236 0 01.516-.009 2.327 2.327 0 01.823.235c.572.289.832.748 1.072 1.315.614 1.452 1.021 3.057 1.49 4.564l2.633 8.395c2.751 8.56 5.633 17.092 8.262 25.69-1.109.499-2.247.946-3.368 1.417-1.334-3.75-2.486-7.595-3.7-11.386l-4.276-13.169a676.82 676.82 0 00-2.301-7.138c-.368-1.123-.683-2.339-1.15-3.424-.16-.37-.397-.736-.76-.931-.381-.204-.658-.25-1.061-.13-1.138.341-2.24.879-3.333 1.343l-4.346 1.801-16.185 6.788L42.096 36.84c-3.31 1.42-6.87 2.78-10.1 4.316-.477.227-.883.518-1.128.999-.295.579-.414 1.392-.27 2.027.177.775.471 1.549.716 2.306l1.303 4.013a925.981 925.981 0 004.492 13.66l12.869 39.41c.11.357.212.726.347 1.075.17.442.474.852.925 1.032.275.11.535.145.821.064.794-.224 1.588-.652 2.35-.973l4.748-1.992 8.976-3.712c3.17-1.346 6.315-2.77 9.518-4.032l.046 4.726c-.947.466-1.96.847-2.932 1.263-2.13.917-4.264 1.82-6.405 2.711l-17.838 7.601c-.346-.071-.697-.139-1.021-.282-1.04-.457-1.567-1.422-1.953-2.43-.547-1.428-.974-2.933-1.441-4.391a374.918 374.918 0 00-2.51-7.755l-8.958-27.25-6.062-18.239-1.79-5.411c-.342-1.036-.744-2.089-.995-3.15a3.828 3.828 0 01.25-2.553 3.605 3.605 0 011.601-1.702c.859-.454 1.82-.794 2.717-1.173l5.175-2.192a1651.23 1651.23 0 0118.395-7.685c8.01-3.418 16.04-6.784 24.092-10.098a718.522 718.522 0 0110.422-4.332c1.856-.767 3.701-1.61 5.59-2.295z" fill="#FEFEFE"/><path d="M80.5 63.456a3.85 3.85 0 01.34-.016c3.175-.007 6.161 1.714 8.362 3.904 1.733 1.723 3.57 4.238 4.088 6.673.425 1.998.23 4.894.23 7l.025 10.04v39.429l-1.356-.654c-2.415-1.207-4.793-2.547-7.168-3.837-2.254-1.224-4.54-2.41-6.75-3.711l.001-38.537-.008-12.194c.001-2.03-.073-4.094.023-6.12.018-.381.056-.75.29-1.066.433-.59 1.236-.803 1.924-.91z" fill="#FEFEFE"/><path d="M84.73 79.236c.474-.027.858-.02 1.297.178.909.409 1.584 1.296 1.933 2.212.333.874.466 2.01.046 2.873-.305.626-.778.934-1.422 1.141-.409.021-.793-.02-1.171-.187-.958-.421-1.696-1.327-2.075-2.287-.336-.852-.42-1.859-.03-2.707.297-.646.767-.994 1.422-1.223z" fill="#0C0C0C"/><path d="M84.771 79.786c.36-.023.711-.007 1.049.13.787.32 1.336 1.05 1.635 1.823.285.738.435 1.712.085 2.446-.224.47-.533.688-1.014.855a2.09 2.09 0 01-.802-.065c-.787-.249-1.413-.943-1.77-1.664-.357-.72-.523-1.64-.242-2.414.197-.544.545-.868 1.06-1.11z" fill="#FEFEFE"/><path d="M84.745 81.156c.46.1 1.355.086 1.656.445.005.305-.282.57-.362.878.104.454.675.4.975.698l-.015.099c-.145.141-.29.193-.476.262-.387.04-1.245.221-1.575.062-.09-.043-.087-.116-.117-.202.067-.354.292-.59.491-.882-.245-.36-.597-.671-.778-1.061.03-.19.046-.179.2-.3z" fill="#0C0C0C"/><path d="M55.097 15.19c.022-.002.043-.006.065-.007.579-.027 1.135.25 1.535.657a2.268 2.268 0 01.594 1.063c.24 1.007.121 2.204.123 3.24l.006 4.891c-3.728 1.45-7.413 3.067-11.099 4.623l-13.942 5.86a759.858 759.858 0 01-7.806 3.223c-1.135.468-2.366.878-3.457 1.432a1.834 1.834 0 00-.793.835 2.928 2.928 0 00-.27 1.787c.172 1.081.591 2.196.912 3.245.723 2.364 1.506 4.708 2.24 7.068a1253.56 1253.56 0 008.784 27.261c-1.566.62-3.109 1.332-4.653 2.007l-8.178 3.594c-1.544.696-3.116 1.332-4.668 2.01-1.077.47-2.306 1.161-3.45 1.41-.531.117-1.104-.084-1.547-.375-.465-.306-.914-.807-1.009-1.372-.129-.773-.058-1.605-.055-2.386l-.017-3.302c-.038-4.999-.043-9.998-.016-14.997L8.4 47.623v-6.217c0-1.142-.06-2.32.033-3.456.08-.973.47-1.962 1.036-2.754a5.234 5.234 0 011.86-1.61c1.141-.575 2.365-1.043 3.544-1.54l5.923-2.485a1858.35 1858.35 0 0117.669-7.458c3.893-1.678 7.796-3.333 11.71-4.965 1.33-.559 3.582-1.716 4.922-1.948z" fill="#FEFEFE"/><path d="M16.758 71.055c.029.012.058.022.087.035.207.096.306.197.383.41-.022.199-.044.237-.16.402-.222-.085-.304-.144-.415-.358-.022-.224.005-.298.105-.49zm.847-1.567c.094.004.217 0 .306.027.168.052.198.097.282.238.002.217-.082.32-.2.49-.046 0-.092.007-.137.001-.18-.021-.23-.087-.342-.214-.043-.227.004-.34.09-.542zm.618 2.604c.42.351.804 1.198.9 1.735-.064.226-.108.227-.293.358-.406-.438-.828-1.16-.932-1.752.068-.206.15-.223.325-.341zm2.217-3.88c.026.003.052.004.078.01.165.036.25.084.351.216l-.045.138c-.41.43-1.117.633-1.664.845l-.183.018-.131-.123c-.022-.081-.068-.157-.028-.238.18-.367 1.25-.706 1.621-.867zm-5.552-1.882c.07.01.123.015.19.046.318.145 1.276 1.918 1.364 2.305.039.17-.018.218-.1.363-.063-.008-.107-.01-.17-.036-.34-.141-1.121-1.67-1.293-2.069-.113-.262-.09-.342.01-.609zm.55 4.075c.118-.02.08-.029.18.002.1.032.11.11.156.199l-.053.173c-.558.562-1.646.875-2.37 1.183-.185-.063-.215-.073-.34-.22l.023-.15c.542-.559 1.687-.885 2.404-1.187z" fill="#0C0C0C"/><path d="M113.567 49.369c.112-.013.223-.021.336-.027 2.376-.123 4.727 1.213 6.436 2.757 2.696 2.435 4.78 5.976 4.971 9.654-4.78 2.287-9.751 4.218-14.588 6.384-1.121.502-2.318.903-3.408 1.464-.218.112-.471.24-.596.461-.058.101-.034.079.01.203.25.052.505-.042.739-.127 2.089-.755 4.153-1.778 6.194-2.669l11.599-5.02-.085 54.829c-2.278 1.167-4.754 2.071-7.105 3.093l-16.095 6.945c-2.63 1.087-5.215 2.283-7.852 3.355l-.048-54.742 7.112-3.078c.618-.267 1.227-.553 1.844-.82.44-.192.907-.33 1.33-.56a.901.901 0 00.387-.346c-.045-.181-.063-.17-.222-.274-.223-.025-9.28 3.958-10.477 4.475-.173-1.969-.836-3.542-1.896-5.207-2.569-4.037-5.633-6.249-10.292-7.29 5.215-2.468 10.617-4.54 15.895-6.865 3.315-1.46 6.65-2.846 9.98-4.266 1.892-.807 3.833-1.844 5.831-2.33z" fill="#3E9AFF"/><path d="M120.606 69.786l.182.01c.024.042.063.08.071.127.091.53 0 2.596.002 3.29l.002 8.943-.005 32.147c-7.386 2.94-14.637 6.215-21.98 9.254l-.13-.022c-.189-.379-.095-40.273-.112-44.201 2.686-1.077 5.333-2.319 7.988-3.473l13.982-6.075z" fill="#0C0C0C"/><path d="M110.057 109.612c1.228-.735 3.255-1.479 4.602-2.025a437.28 437.28 0 005.927-2.458l.007 9.043c-1.186.467-9.976 4.281-10.461 4.298a.456.456 0 01-.123-.212c.178-.85.056-1.959.055-2.833l-.007-5.813z" fill="#3E9AFF"/><path d="M114.192 109.855c.146.016.299.039.437.094.286.112.561.368.668.659.184.496.051 1.094-.17 1.556-.322.67-.807 1.136-1.505 1.386-.221.005-.444.01-.652-.077a1.01 1.01 0 01-.544-.555c-.187-.488-.034-1.14.173-1.597.331-.728.85-1.196 1.593-1.466z" fill="#F69F30"/><path d="M120.415 93.98c.099.009.044-.007.154.079.071 1.218.015 2.468.016 3.69l.005 7.144c-1.104.418-2.183.923-3.274 1.374-2.379.983-4.753 1.957-7.101 3.013l-.102.009c-.178-.33-.056-9.39-.053-10.81l10.355-4.498z" fill="#3E9AFF"/><path d="M114.161 100.901c.224-.011.431-.015.64.076.243.105.448.31.543.557.164.433.065.997-.126 1.404-.276.584-.663.91-1.261 1.129-.165.005-.35 0-.511-.037a.961.961 0 01-.623-.482c-.174-.34-.125-.774-.01-1.124.224-.684.711-1.207 1.348-1.523z" fill="#FEFEFE"/><path d="M98.856 103.239a573.524 573.524 0 0010.973-4.678l.028 10.89c-1.1.472-6.416 2.503-6.929 3.183-.096.126-.088.155-.069.302l.068.015c.216-.27.427-.462.729-.632.66-.371 1.422-.626 2.122-.917a125.652 125.652 0 004.073-1.735l-.003 6.105c0 .881-.124 1.994.054 2.845l-10.991 4.657c-.122-6.671-.04-13.362-.055-20.035z" fill="#3E9AFF"/><path d="M105.856 107.676a2.687 2.687 0 01-.158.104c-.275.162-.619.282-.935.182a.989.989 0 01-.177-.076.873.873 0 01-.227-.179.899.899 0 01-.161-.239c-.182-.4-.08-.899.076-1.29.224-.559.683-1.201 1.27-1.418.205-.075.455-.09.65.024.347.202.438.531.54.897-.066.819-.296 1.392-.878 1.995zm-.193 5.594c.125.008.236.032.354.072.295.101.534.292.659.583.185.426.08.969-.103 1.377-.272.604-.697 1.032-1.318 1.257-.207-.005-.397-.014-.587-.105a.902.902 0 01-.316-.239 1.178 1.178 0 01-.115-.161 1.071 1.071 0 01-.082-.182c-.161-.474-.013-1.098.215-1.526.301-.563.69-.884 1.293-1.076z" fill="#FEFEFE"/><path d="M120.436 70.135l.101.021c.172.417.048 21.084.047 23.502-2.518 1.016-4.993 2.166-7.484 3.249l-14.167 6.083c-.178-.654-.05-5.16-.05-6.13l-.02-17.355c2.381-.905 4.72-2.058 7.06-3.074l14.513-6.296z" fill="#3E9AFF"/></g><defs><clipPath id="clip0_8_1959"><path fill="#fff" d="M0 0h140v140H0z"/></clipPath></defs></svg>