<svg width="140" height="140" fill="none" xmlns="http://www.w3.org/2000/svg"><g clip-path="url(#clip0_8_1902)"><path d="M0 0h140v140H0V0z" fill="#FEFEFF"/><path d="M69.578 27.578c-.11.014-.224.032-.335.034-.169.003-.303-.023-.415-.164-.33-.413-.066-1.563-.011-2.075.063.2.055.241.254.333.083.038.203.06.29.081.011.348.002.711.047 1.056.053.246.102.493.17.735z" fill="#B4DCFB"/><path d="M69.408 26.843c2-.223 4.066-.12 6.076-.1l-.008.868c-1.936-.184-3.954-.07-5.898-.033-.069-.242-.117-.489-.17-.735zm6.859.205c.713.037 1.579.037 2.23.377.282.141.588.17.866.308.817.31 1.63.628 2.415 1.013.535.262 1.112.673 1.673.841a16.964 16.964 0 011.474 2.202c-.412-.197-.74-.677-1.094-.97-1.286-1.066-2.898-1.953-4.512-2.391l-.077-.019c-.245-.08-.5-.134-.75-.195-.7-.278-1.486-.38-2.224-.507l-.001-.66z" fill="#3E9AFF"/><path d="M70.326 25.723c1.72-.026 3.442-.019 5.163.022l-.005.997c-2.01-.019-4.076-.122-6.076.101-.045-.345-.036-.708-.047-1.056.275.002.722.065.965-.064z" fill="#0172FA"/><path d="M78.491 28.214c.251.06.505.115.75.196l.078.018c.057 3.198.037 6.408.03 9.607-.002 1.466.08 2.968.016 4.43-.01.23-.024.457-.132.664-.17.09-.172.106-.358.067-.196-.205-.231-.454-.253-.728-.094-1.152.004-2.377-.017-3.539l-.114-10.715z" fill="#B4DCFB"/><path d="M91.53 54.924c3.802-.014 7.603-.008 11.404.017l-.028.836-5.46.003c.026 4.244.028 8.489.007 12.733l-.018 5.36-.825-.003c-.057-2.054-.015-4.12-.018-6.176l-.004-11.912-5.067-.001.01-.857zm-84.742.254c.324-.031.648-.041.973-.03 1.445.052 2.85.747 3.827 1.802.27.292.726.77.709 1.187-.187.148-.488.142-.72.167-.334-.571-.697-1.056-1.238-1.449-.95-.69-2.27-1.03-3.433-.83-1.44.247-2.66 1.302-3.459 2.48-1.603 2.369-1.753 6.162-1.211 8.895.36 1.815 1.262 3.595 2.836 4.639 1.09.723 2.076.85 3.346.592 1.42-.465 2.413-1.261 3.27-2.474l.756.425c-.97 1.288-2.348 2.477-3.939 2.881-1.287.328-2.5.057-3.627-.611-1.78-1.056-2.83-2.873-3.316-4.843-.721-2.915-.557-7.122 1.035-9.713.961-1.565 2.395-2.7 4.191-3.118zm56.569-.124c.59-.065 1.221.033 1.784.212 1.672.534 2.778 1.706 3.576 3.227a10.39 10.39 0 00-.88.08c-.591-.924-1.324-1.717-2.321-2.204a4.169 4.169 0 00-.971-.336 4.187 4.187 0 00-1.024-.084 4.02 4.02 0 00-1.013.175c-.065.02-.13.041-.195.065-1.458.532-2.497 1.767-3.128 3.147-1.227 2.687-1.318 6.852-.266 9.603.555 1.45 1.587 2.92 3.054 3.555 1.125.487 2.325.414 3.445-.03 1.196-.607 1.948-1.54 2.578-2.695l.98-.033a7.859 7.859 0 01-.86 1.469c-.896 1.202-2.308 2.251-3.822 2.461a5.076 5.076 0 01-2.232-.2 5.076 5.076 0 01-1.546-.818c-1.859-1.434-2.727-3.763-3.019-6.02-.401-3.1-.089-6.7 1.892-9.253 1.022-1.317 2.314-2.112 3.968-2.32zm40.196-.102l.875-.01-.014 9.242c-.006 1.471-.189 3.485.074 4.879.15.8.524 1.537 1.046 2.158.822.98 2.016 1.543 3.285 1.638 1.298.097 2.557-.293 3.536-1.156.766-.675 1.27-1.573 1.514-2.56.285-1.158.157-2.457.154-3.646-.007-2.623-.029-5.252.011-7.876.01-.692-.095-1.425-.035-2.106.021-.233.076-.388.262-.54.212-.067.332-.043.539.007.095.19.067.37.066.578l-.016 8.632c.001 1.512.183 3.713-.15 5.16-.222.971-.771 1.9-1.456 2.615a5.783 5.783 0 01-.617.56 5.596 5.596 0 01-3.07 1.174 5.74 5.74 0 01-.278.012 5.606 5.606 0 01-1.129-.11 5.748 5.748 0 01-1.599-.575 5.778 5.778 0 01-1.359-1.02c-.743-.743-1.335-1.76-1.552-2.793-.248-1.18-.078-3.516-.074-4.843l-.013-9.42zm24.562-.004c3.153-.063 6.32 0 9.474.01l-.009.83-8.602-.01c-.067 2.573-.027 5.163-.015 7.737 2.568.037 5.142-.001 7.711-.008l-.008.882-7.721.003-.005 1.677-.008 6.868c2.869.033 5.739-.016 8.608.022l-.001.91a681.4 681.4 0 00-9.43-.017l.006-18.904zm-92.488.002l9.68-.003.001.83-8.844.002c.017 2.59.018 5.18.002 7.77 2.745.03 5.493-.03 8.238-.018l.003.89c-2.743.049-5.493.009-8.238.01v.879c.005 2.56-.005 5.12-.03 7.681 2.956-.035 5.911-.043 8.867-.021l.024.854-9.739-.012c-.047-2.534.007-5.077.006-7.611-.01-3.75 0-7.5.03-11.25zM1.766 78.086c1.273-.109 2.626-.023 3.906-.02l7.633.017 24.117-.004 80.354.014 12.735.017c.925-.001 4.48-.12 5.017.047l.109.228c-.586.203-5.294.064-6.238.064l-14.881.011-78.491-.038c-2.911 0-33.909.067-34.115-.022-.09-.037-.116-.224-.146-.314zm86.509 3.335l.866-.005-.004 7.977c0 1.759.049 3.529-.076 5.284-.344 4.853-2.002 9.631-5.489 13.138-2.047 2.06-4.545 3.54-7.289 4.464l-.005 1.304-.005 18.206c.002 2.61.05 5.229-.006 7.838-.266.052-.47.048-.737.004-.06-.837-.016-1.694-.013-2.535l.011-4.507-.007-14.47.012-4.091c.004-.77.074-1.613-.044-2.373a14.037 14.037 0 00.794-.235 13.788 13.788 0 00.78-.274 17.692 17.692 0 001.518-.663 22.669 22.669 0 00.732-.387 16.099 16.099 0 001.402-.881 15.841 15.841 0 001.307-1.014 15.169 15.169 0 00.615-.555 14.693 14.693 0 00.586-.585 17.895 17.895 0 00.823-.929 17.04 17.04 0 001.637-2.388c2.75-4.782 2.628-9.294 2.608-14.576l-.016-7.747zM9.155 51.716c5.166-.113 10.347-.046 15.515-.048l27.07.056 40.639.041 29.411.011 9.053-.008c1.229-.001 2.87-.112 4.04-.001.156.015.265.029.361.158l-.057.107c-.054.035-.102.083-.162.104-.186.067-6.051-.008-6.817-.007l-86.063-.04-28.097.024c-3.748-.006-7.502.044-11.248-.025-.189-.003-.4.043-.54-.09l.062-.122c.584-.278 5.633-.145 6.833-.16zm64.554 3.104c.233-.01.47-.046.689.052.31.639.454 1.447.645 2.135.41 1.46.809 2.922 1.198 4.387.708 2.656 1.523 5.295 2.285 7.937.19.66 1.3 3.97 1.204 4.415-.223.126-.501.106-.752.115-.701-2.455-1.466-4.885-2.121-7.354l-2.585-.016-3.112.005a389.37 389.37 0 01-2.163 7.278l-.922-.011c.52-2.034 1.221-4.041 1.843-6.046l2.436-8.141c.469-1.575.99-3.154 1.355-4.755z" fill="#0C0C0C"/><path d="M74.054 56.851c.345.665.54 1.772.75 2.512.596 2.09 1.23 4.182 1.756 6.29L74 65.67h-2.57a237.363 237.363 0 012.624-8.819z" fill="#FEFEFF"/><path d="M80.435 54.961c1.732-.007 5.575-.216 7.047.196a4.25 4.25 0 011.024.429 4.289 4.289 0 01.88.676c.907.89 1.484 2.13 1.483 3.409a4.702 4.702 0 01-.686 2.453 4.685 4.685 0 01-.729.914c-1.47 1.446-3.261 1.493-5.205 1.494l-2.892-.004-.053.05c-.177.659-.05 2.1-.05 2.839v6.434c-.284.021-.57.016-.856.015l.017-12.476c.006-2.142-.025-4.288.02-6.429z" fill="#0C0C0C"/><path d="M81.276 55.783l2.77-.006c1.61-.003 3.369-.11 4.662 1.034.775.686 1.207 1.745 1.25 2.772.049 1.156-.408 2.068-1.172 2.887-1.398 1.208-2.794 1.19-4.555 1.186l-2.977-.012.022-7.86z" fill="#FEFEFF"/><path d="M46.29 54.96l3.894-.012c1.144-.002 2.47-.135 3.58.165a4.312 4.312 0 011.82 1.037c.883.837 1.355 1.963 1.373 3.175.018 1.188-.39 2.29-1.23 3.14-1.356 1.372-2.94 1.278-4.726 1.3.35.91.992 1.807 1.489 2.652a418.09 418.09 0 002.537 4.278c.629 1.038 1.303 2.066 1.864 3.141l-.97-.004c-.356-.667-.762-1.309-1.153-1.956a323.01 323.01 0 01-2.796-4.695c-.66-1.112-1.353-2.216-1.956-3.361l-2.89.009c-.036 3.327.007 6.658.006 9.985l-.848.007.006-18.86z" fill="#0C0C0C"/><path d="M47.14 55.777c1.438-.007 4.882-.175 6.096.09a3.78 3.78 0 011.833.994 3.772 3.772 0 01.455.55 3.595 3.595 0 01.46.966 3.51 3.51 0 01.142.7c.006.06.011.12.014.179.056 1.046-.38 1.882-1.072 2.628-.459.41-.913.7-1.508.867-1.306.366-4.84.192-6.404.193l-.016-7.167z" fill="#FEFEFF"/><path d="M115.887 54.964l4.187-.014c1.079-.003 2.325-.132 3.369.143.689.182 1.314.577 1.815 1.078a4.14 4.14 0 01.306.331 5.66 5.66 0 01.271.36 4.711 4.711 0 01.336.587 3.992 3.992 0 01.175.416 5.25 5.25 0 01.132.432 5.43 5.43 0 01.089.442 4.223 4.223 0 01.044.449c.004.075.006.15.006.225-.002 1.192-.531 2.325-1.38 3.154-1.232 1.204-2.733 1.263-4.357 1.253.838 1.465 1.783 2.875 2.678 4.306a373.923 373.923 0 013.483 5.693l-.989.04c-.411-.666-.817-1.337-1.219-2.01a311.237 311.237 0 01-4.95-8.029l-3.155.002-.011 9.913c-.259.01-.523-.01-.782-.017l-.048-18.755z" fill="#0C0C0C"/><path d="M116.746 55.782c1.476-.001 5.023-.183 6.266.09a3.42 3.42 0 011.529.756c.725.626 1.152 1.586 1.208 2.537.062 1.07-.349 1.96-1.044 2.743-.456.42-.922.699-1.519.868-1.363.386-4.836.182-6.442.176l.002-7.17z" fill="#FEFEFF"/><path d="M75.498.328l.735.005 2.083.007.043 15.861.028 5.358c.004 1.02.043 2.064-.022 3.082.301.14.612.308.921.425 1.033.55 1.945 1.147 2.83 1.92.378.33.755.771 1.155 1.06.388.485 1.28 1.788 1.65 2.112.745 1.229 1.353 2.486 2.005 3.762.218.546.43 1.095.634 1.647 1.08 3.004 1.364 6.158 1.403 9.328.006.51.124 1.46-.15 1.885-.102.158-.133.169-.303.2-.534-.44-.3-2.777-.346-3.532-.262-4.284-1.089-7.894-3.24-11.659-.439-.778-.919-1.5-1.474-2.202-.56-.168-1.137-.579-1.673-.841-.785-.385-1.597-.704-2.414-1.013-.279-.138-.584-.167-.866-.308-.651-.34-1.517-.34-2.23-.377v.659a617.835 617.835 0 00-.046 9.303c-.002 1.4.116 2.895-.007 4.284-.028.317-.084.592-.273.851h-.163c-.21-.238-.286-.493-.324-.806-.125-1.04.006-2.972.007-4.119l.014-9.61.009-.868.005-.997c-.064-3.19.007-6.394.008-9.585V.328z" fill="#0C0C0C"/><path d="M76.286 24.629c.758.29 1.522.556 2.246.924l-.028.902a42.912 42.912 0 00-2.221-.506l.003-1.32z" fill="#3E9AFF"/><path d="M78.532 25.554c.28.142.577.273.839.445.714.411 1.352.857 1.978 1.392.756.628 1.548 1.376 2.102 2.196-.561-.168-1.138-.578-1.673-.84-.786-.386-1.598-.705-2.415-1.014-.278-.137-.584-.167-.866-.308-.651-.34-1.517-.34-2.23-.377l.016-1.1c.745.15 1.485.319 2.22.507l.03-.901z" fill="#0172FA"/><path d="M79.37 25.998c.715.412 1.353.857 1.98 1.393-.568.031-1.4-.417-1.922-.647-.108-.218-.065-.505-.057-.746z" fill="#B4DCFB"/><path d="M76.233.333l2.083.007.043 15.861.028 5.358c.004 1.02.043 2.064-.022 3.082-.682-.32-1.343-.583-2.08-.748-.12-5.6-.033-11.218-.025-16.819.003-2.245.036-4.496-.027-6.74zM69.457.326c2-.024 4.043-.085 6.04.002V16.16c0 3.19-.072 6.395-.008 9.585-1.721-.04-3.442-.048-5.164-.022-.242.13-.689.066-.964.064-.087-.022-.207-.043-.29-.081-.2-.092-.191-.134-.255-.333.127-2.31.013-4.688.01-7.006l.008-13.171c.001-.738-.093-4.283.07-4.746.184-.16.315-.117.553-.124z" fill="#3E9AFF"/><path d="M75.459 113.78c.001-.699-.056-1.431.03-2.124.118.759.048 1.602.044 2.372l-.012 4.091.007 14.47-.01 4.507c-.004.841-.048 1.698.012 2.535l-5.453.016c-1.104.004-2.224.044-3.325-.039.567-.026 1.14 0 1.707.007.077-2.476-.008-4.978-.013-7.458l-.022-15.942-.004-.89.003-1.213c2.383.065 4.666-.083 7.036-.332z" fill="#999"/><path d="M11.52 54.922l.772-.03c1.89 2.877 3.668 5.82 5.512 8.725 1.852-2.808 3.368-5.833 5.196-8.655 1.284-.023 2.57-.016 3.854-.02.955-.005 1.97-.077 2.91.093 1.212.218 2.333.895 3.026 1.923.767 1.137.931 2.677.671 4.002-.294 1.5-1.139 2.387-2.368 3.216.853.202 1.644.56 2.275 1.179.93.913 1.404 2.206 1.405 3.498.002 1.334-.42 2.63-1.387 3.576-1.739 1.7-4.53 1.396-6.76 1.39l-2.912-.008-.012-11.653c0-2.271-.097-4.611.092-6.874-.896 1.268-1.637 2.654-2.422 3.993l-3.163 5.3c-.064 2.3-.016 4.615-.012 6.918.001.89.122 1.972-.04 2.843-.235.097-.527.063-.777.06l.005-9.838c-1.706-3.046-3.715-5.934-5.562-8.895-.137-.22-.364-.483-.304-.743z" fill="#0C0C0C"/><path d="M24.55 55.775c1.4-.005 4.184-.175 5.412.13a3.564 3.564 0 011.54.805c.814.727 1.217 1.746 1.27 2.819.063 1.264-.308 2.31-1.153 3.252-.437.42-.907.738-1.488.926-1.262.408-4.157.207-5.604.2l.024-8.132zm.222 8.995c2.273.027 6.34-.502 8.058 1.206.81.806 1.12 1.942 1.107 3.057-.014 1.164-.416 2.09-1.248 2.908-1.494 1.144-3.304 1.018-5.08 1.013l-3.086-.012c-.005-.909-.127-7.693.06-8.136l.19-.037z" fill="#FEFEFF"/><path d="M79.216.347c2.085.014 4.217.305 6.273.636a49.812 49.812 0 0119.236 7.31 48.168 48.168 0 012.442 1.675 49.548 49.548 0 015.982 5.143c8.908 9.018 13.529 20.368 13.446 33.036-.007 1.046 0 2.167-.158 3.201-4.478.02-8.956.016-13.435-.012l-23.035.02c-.006-4.729.085-8.72-1.194-13.345-.383-1.382-.916-2.903-1.745-4.087l-.083-.018-.019.014c-.652-1.276-1.26-2.534-2.004-3.762-.37-.324-1.263-1.627-1.65-2.113-.401-.288-.778-.729-1.157-1.06-.884-.772-1.796-1.368-2.828-1.92-.31-.116-.62-.284-.922-.424.065-1.018.026-2.061.022-3.082l-.028-5.358-.043-15.86.9.006z" fill="#3E9AFF"/><path d="M83.272 28.045c3.806 1.612 6.225 5.04 7.747 8.76 1.083 2.647 1.597 5.313 1.719 8.164.024.557.106 1.264-.024 1.799-.138.154-.165.172-.363.233-.209-.046-.238-.057-.391-.205-.194-.697-.087-1.616-.108-2.35a19.056 19.056 0 00-.164-1.967c-.487-3.588-3.009-10.23-6.243-12.147-.18-.106-.314-.166-.523-.174-.371-.324-1.263-1.627-1.65-2.113zM78.316.34l.9.007c.106 2.574.004 5.19.005 7.769-.007 5.65.015 11.3.066 16.95-.31-.117-.62-.285-.922-.425.065-1.018.026-2.061.022-3.082l-.028-5.358-.043-15.86z" fill="#0172FA"/><path d="M99.572 14.51c.997-.083 1.9-.056 2.764.53.78.53 1.289 1.36 1.451 2.285a3.396 3.396 0 01-.603 2.626c-.646.88-1.54 1.303-2.589 1.47-.06 3.187 0 6.386.009 9.573.022 5.206.014 10.412-.024 15.618l12.864.001c.107-.58.219-1.097.516-1.617a4.438 4.438 0 01.193-.304 4.234 4.234 0 01.343-.417 3.741 3.741 0 011.678-1.006 3.443 3.443 0 011.036-.112 3.504 3.504 0 011.344.332 3.634 3.634 0 01.307.165c.945.57 1.48 1.481 1.719 2.532.091.734-.008 1.452-.346 2.115a4.203 4.203 0 01-.176.306 3.972 3.972 0 01-.206.287 2.835 2.835 0 01-.234.264 2.836 2.836 0 01-.26.239 2.843 2.843 0 01-.283.21 3.175 3.175 0 01-.461.26 3.178 3.178 0 01-.496.186c-.956.283-2.065.2-2.932-.308-1.047-.612-1.457-1.596-1.736-2.714l-13.256-.014c-.134-2.916-.012-6.101-.009-9.05l.014-16.53c-.477-.063-.907-.162-1.338-.385a3.912 3.912 0 01-.458-.28 3.489 3.489 0 01-.536-.473 3.595 3.595 0 01-.923-1.896 3.443 3.443 0 01-.018-.881 3.457 3.457 0 01.266-1.023 3.523 3.523 0 01.156-.317c.497-.893 1.271-1.385 2.224-1.672z" fill="#FEFEFF"/><path d="M100.093 14.924c.737-.039 1.46.094 2.072.528.657.467 1.078 1.22 1.211 2.007a2.45 2.45 0 01.036.295 2.458 2.458 0 01.007.298l-.008.148-.016.148a3.677 3.677 0 01-.054.293 2.406 2.406 0 01-.082.286 2.388 2.388 0 01-.111.275 2.253 2.253 0 01-.138.264 3.01 3.01 0 01-.163.248c-.547.752-1.291 1.106-2.185 1.251a3.146 3.146 0 01-2.246-.718 2.997 2.997 0 01-.586-.672 2.87 2.87 0 01-.267-.533A3.044 3.044 0 0197.4 17.5a3.19 3.19 0 01.619-1.474c.534-.692 1.23-.995 2.075-1.103zm16.609 28.71c.664-.037 1.345.072 1.929.404.712.406 1.218 1.111 1.432 1.897a3.592 3.592 0 01.066.293 2.48 2.48 0 01.036.297 2.494 2.494 0 01.006.3 3.733 3.733 0 01-.025.299 3.706 3.706 0 01-.056.295 3.592 3.592 0 01-.085.287 3.49 3.49 0 01-.115.277 2.37 2.37 0 01-.142.264c-.513.85-1.289 1.29-2.227 1.514-.786.05-1.501.005-2.186-.434-.708-.454-1.187-1.226-1.334-2.049a2.782 2.782 0 01-.05-.473 4.209 4.209 0 01.008-.318 2.801 2.801 0 01.07-.47 4.081 4.081 0 01.086-.306 3.853 3.853 0 01.117-.296 3.598 3.598 0 01.23-.417 3.36 3.36 0 01.09-.13c.539-.737 1.262-1.113 2.15-1.234z" fill="#3E9AFF"/><path d="M90.168 79.027l36.309.039-.004 9.901c.001 2.139.089 4.315-.07 6.448-.024.35-.051.699-.082 1.047a52.257 52.257 0 01-.235 2.087 45.44 45.44 0 01-.529 3.105 44.568 44.568 0 01-.468 2.047c-.086.34-.175.678-.268 1.016a50.428 50.428 0 01-.606 2.01 43.054 43.054 0 01-.695 1.982 43.06 43.06 0 01-.784 1.948 48.294 48.294 0 01-.87 1.911 45.743 45.743 0 01-.956 1.87 45.636 45.636 0 01-2.159 3.602 51.001 51.001 0 01-1.199 1.724 47.138 47.138 0 01-4.781 5.573c-8.302 8.401-20.092 13.539-31.85 14.201-.807.045-1.633.117-2.442.116a2.98 2.98 0 01-.559-.038c-.553-.015-1.1-.01-1.653.011.056-2.609.008-5.228.006-7.838l.005-18.206c4.486-.898 8.042-3.347 10.568-7.161 3.74-5.646 3.259-10.93 3.255-17.306l.067-10.09z" fill="#999"/><path d="M116.337 85.392c.634-.056 1.202-.034 1.788.257a2.81 2.81 0 011.387 1.634 3.022 3.022 0 01-.257 2.474 2.916 2.916 0 01-.345.463 2.58 2.58 0 01-.317.295 2.555 2.555 0 01-.358.244 2.883 2.883 0 01-.528.234 2.887 2.887 0 01-.138.04 2.959 2.959 0 01-2.232-.34c-.814-.508-1.133-1.311-1.341-2.2-4.248-.035-8.501.058-12.748-.011l.018 26.64c.832.271 1.325.59 1.826 1.306.026.059.053.117.076.178.231.596.254 1.289-.014 1.879-.243.534-.722.944-1.27 1.14a2.488 2.488 0 01-1.9-.109c-.532-.25-.98-.687-1.174-1.248-.214-.617-.128-1.334.172-1.908.347-.664.954-1.017 1.653-1.217.108-9.089-.03-18.183.009-27.273 4.449.118 8.921.033 13.372.03.101-.419.204-.816.42-1.195.435-.765 1.094-1.073 1.901-1.313z" fill="#6D6C6C"/><path d="M100.568 115.804c.351-.019.677-.039 1.014.084a1.697 1.697 0 011.051 1.074 1.718 1.718 0 01.068.339 1.67 1.67 0 01-.069.685 1.842 1.842 0 01-.059.162c-.241.565-.654.83-1.197 1.057-.234.018-.451.02-.682-.03a1.796 1.796 0 01-1.183-.833 1.797 1.797 0 01-.142-.318 1.623 1.623 0 01-.041-.86 1.39 1.39 0 01.046-.168c.2-.61.645-.926 1.194-1.192zm15.828-29.801c.404-.02.765-.031 1.157.101a2.207 2.207 0 011.403 1.376 2.253 2.253 0 01-.011 1.513 2.203 2.203 0 01-.042.11c-.298.714-.848 1.081-1.536 1.36-.495.077-.968.054-1.431-.152a2.14 2.14 0 01-.385-.22 2.248 2.248 0 01-.602-.647 2.346 2.346 0 01-.193-.4 2.559 2.559 0 01-.07-.228 2.354 2.354 0 01.178-1.624c.33-.646.872-.961 1.532-1.19z" fill="#999"/><path d="M58.932.334c.241-.006.486-.021.727-.004 2.96.085 5.94-.01 8.903-.008l-.012 24.674c.005.44.09 1.112-.063 1.516-.503.253-2.072.246-2.686.348-3.72.617-7.38 2.39-10.009 5.101-5.486 5.655-5.583 12.111-5.493 19.428-4.317.082-8.654-.04-12.974-.044l-27.748.004c-.068-2.465-.18-4.888.01-7.353a45.865 45.865 0 012.992-13.013 45.425 45.425 0 011.968-4.36 45.493 45.493 0 012.412-4.132 45.696 45.696 0 014.069-5.316c.211-.238.426-.474.643-.709A49.474 49.474 0 0135.454 5.957a49.67 49.67 0 016.595-2.81 49.45 49.45 0 017.94-2.004C52.96.64 55.93.47 58.932.334z" fill="#484848"/><path d="M68.487 26.512l-.087-.009c-.09-.088.041-.478 0-.656-2.73-.076-5.915.297-8.48 1.251a17.358 17.358 0 00-2.147.993 17.368 17.368 0 00-1.995 1.271 17.15 17.15 0 00-1.462 1.204 17.324 17.324 0 00-1.632 1.713 17.8 17.8 0 00-1.633 2.322 17.782 17.782 0 00-1.238 2.554c-.058.147-.113.295-.166.443-.83 2.317-1.174 4.74-1.233 7.191-.02.819.123 4.667-.13 5.135-.09.166-.2.205-.371.265-.172-.025-.247-.033-.369-.176-.26-.308-.177-1.396-.186-1.806-.06-2.669-.06-5.354.448-7.986a18.88 18.88 0 01.46-1.823 19.427 19.427 0 013.218-6.234 18.793 18.793 0 01.901-1.084 19.298 19.298 0 012.763-2.545 18.801 18.801 0 01.763-.549c3.15-2.11 6.723-2.997 10.484-3.044.684-.009 1.486-.077 2.155.054.005.44.09 1.112-.063 1.516z" fill="#0C0C0C"/><path d="M58.932.334c.241-.006.487-.021.727-.004.08 3.219-.015 6.455-.032 9.675l.013 13.863c-.793.14-1.57.301-2.338.554-1.901.627-3.716 1.728-5.24 3.015-4.632 3.911-6.784 9.597-7.055 15.527a31.798 31.798 0 00-.025 2.563c.022.617.126 1.253.068 1.868a1.516 1.516 0 01-.174.585l-.188.033c-.187-.198-.274-.401-.34-.666-.223-.895-.124-1.985-.121-2.902.014-4.556.82-8.678 3.178-12.627 2.637-4.419 6.515-7.376 11.503-8.63L58.86 7.504V3.107c0-.914-.052-1.866.072-2.773zM36.956 15.605c.924-.075 1.808.111 2.581.645a3.781 3.781 0 01.831.784 3.874 3.874 0 01.627 1.175 4.015 4.015 0 01.137.556 3.804 3.804 0 01-.671 2.88c-.701.961-1.627 1.386-2.766 1.566l-.032 23.922c-1.55.103-3.151.023-4.707.022l-9.071-.006c-.044.244-.085.491-.15.73a3.85 3.85 0 01-.66 1.334 3.743 3.743 0 01-.807.777 3.725 3.725 0 01-.675.38 4.22 4.22 0 01-.57.197 3.994 3.994 0 01-1.395.12 4.042 4.042 0 01-.788-.152c-1.126-.341-1.857-1.097-2.381-2.115a9.278 9.278 0 01-.059-.163c-.346-.992-.346-2.093.134-3.045a3.927 3.927 0 01.538-.785 3.735 3.735 0 01.56-.517 3.87 3.87 0 011.37-.657 4.078 4.078 0 01.766-.117 3.915 3.915 0 011.155.11 3.806 3.806 0 01.73.258c.06.027.117.056.174.086 1.141.602 1.654 1.536 2.012 2.715 4.33-.026 8.66-.029 12.99-.008.074-2.635.013-5.289.014-7.926l-.006-15.224c-.615-.103-1.145-.29-1.655-.651-.833-.59-1.444-1.52-1.598-2.534-.15-.999.07-1.995.678-2.808.657-.876 1.62-1.397 2.694-1.549z" fill="#0C0C0C"/><path d="M19.567 43.903c.662-.054 1.335.047 1.918.376a3.201 3.201 0 011.505 1.996c.187.78.015 1.597-.418 2.267-.46.71-1.103 1.103-1.913 1.29-.808.061-1.544.05-2.268-.381a2.916 2.916 0 01-1.328-1.86c-.187-.811-.095-1.73.379-2.43.494-.729 1.285-1.094 2.125-1.258zm17.411-27.548c.687-.041 1.317.05 1.92.4a3.068 3.068 0 011.448 1.976c.183.811.014 1.72-.453 2.409-.525.774-1.25 1.12-2.142 1.276-.724.034-1.392-.065-2.018-.45a2.967 2.967 0 01-1.36-2.072 3.135 3.135 0 01-.018-.902 2.897 2.897 0 01.09-.443 3.034 3.034 0 01.37-.822c.515-.79 1.272-1.17 2.163-1.372z" fill="#484848"/><path d="M9.296 78.915c4.851.109 9.734 0 14.589-.008l26.023-.014.063 12.077.015 5.393c.008 1.117-.014 2.252.089 3.365a11.405 11.405 0 00.563 2.677c.333.96.823 1.86 1.38 2.709 1.782 2.719 3.992 4.125 6.843 5.505l.012-17.305.011-4.55c.002-.489-.083-1.12 0-1.59.015-.091.039-.12.08-.193.172-.088.29-.057.47-.026.148.107.23.16.252.352.056.468-.042 1.039-.039 1.523.01 1.681.013 3.362.006 5.044-.037 5.665-.036 11.33.003 16.995 2.939.944 5.699 1.244 8.771 1.245l-.005 1.998-.002 1.212.003.891.023 15.942c.005 2.48.09 4.982.012 7.457-.567-.006-1.14-.032-1.706-.006-1.45-.032-2.906-.018-4.358-.024-.901-.004-1.866-.072-2.759.044-.28.074-.48.033-.76-.029-1.162-.077-2.335-.05-3.5-.12-1.874-.111-3.755-.364-5.608-.668a57.798 57.798 0 01-1.85-.35 47.994 47.994 0 01-4.557-1.182 47.179 47.179 0 01-2.673-.914 54.88 54.88 0 01-1.751-.693 52.914 52.914 0 01-2.574-1.165 44.987 44.987 0 01-.843-.421 44.998 44.998 0 01-1.66-.889 44.477 44.477 0 01-1.626-.951 50.264 50.264 0 01-3.895-2.643 47.57 47.57 0 01-1.485-1.159 47.144 47.144 0 01-1.439-1.215 46.758 46.758 0 01-1.392-1.268 52.276 52.276 0 01-.678-.654 51.106 51.106 0 01-1.498-1.563 45.668 45.668 0 01-1.425-1.628 48.953 48.953 0 01-1.351-1.691 46.633 46.633 0 01-1.88-2.646 48.441 48.441 0 01-2.22-3.714 47.43 47.43 0 01-1.876-3.899 48.326 48.326 0 01-1.838-5.086 50.194 50.194 0 01-.573-2.087 47.936 47.936 0 01-1.335-8.542c-.129-1.872-.054-3.788-.054-5.665l.002-9.871z" fill="#0172FA"/><path d="M20.26 83.08a3.326 3.326 0 012.102.545c.761.52 1.233 1.31 1.401 2.207 4.615-.022 9.23-.019 13.845.01v30.803c.57.123 1.084.287 1.572.62.798.545 1.274 1.383 1.416 2.331a3.206 3.206 0 01-.104 1.441 3.266 3.266 0 01-.418.873 3.665 3.665 0 01-.31.387 3.216 3.216 0 01-.498.442 3.731 3.731 0 01-.28.182 4 4 0 01-.297.154 4.164 4.164 0 01-.31.124 2.964 2.964 0 01-.32.092 3.04 3.04 0 01-.329.061c-.88.117-1.813-.112-2.516-.66-.773-.602-1.165-1.457-1.288-2.409-.016-.87.17-1.628.723-2.32.631-.787 1.476-1.181 2.458-1.303l-.024-30.29c-4.41-.06-8.824-.03-13.235-.031-.058.722-.176 1.382-.586 2a3.26 3.26 0 01-.827.85 3.293 3.293 0 01-1.408.573 3.285 3.285 0 01-.687.038 3.293 3.293 0 01-.68-.1 3.188 3.188 0 01-.49-.165 3.509 3.509 0 01-.604-.33 3.532 3.532 0 01-.139-.101c-.733-.555-1.265-1.422-1.367-2.342-.094-.848.2-1.778.735-2.44.638-.786 1.489-1.12 2.464-1.242z" fill="#FEFEFF"/><path d="M36.69 117.246c.575-.048 1.095-.054 1.641.164a2.892 2.892 0 011.786 2.571 2.678 2.678 0 01-.192 1.064 2.125 2.125 0 01-.054.125c-.396.868-1.077 1.312-1.938 1.63-.681.082-1.309.057-1.93-.264a2.971 2.971 0 01-.481-.317 2.642 2.642 0 01-.313-.298 2.583 2.583 0 01-.264-.341 3.019 3.019 0 01-.266-.511 2.347 2.347 0 01-.093-.272 2.805 2.805 0 01.221-2.145c.422-.765 1.074-1.156 1.883-1.406zM20.18 83.621c.686-.02 1.311.083 1.89.481.647.444 1.07 1.168 1.184 1.94a2.815 2.815 0 01.016.728 2.823 2.823 0 01-.165.709 3.033 3.033 0 01-.256.523 2.88 2.88 0 01-.167.24c-.492.625-1.144.907-1.911 1.017-.618.04-1.2-.066-1.737-.389a2.993 2.993 0 01-.68-.566 3.022 3.022 0 01-.417-.61 2.971 2.971 0 01-.252-.693 2.822 2.822 0 01.398-2.155c.508-.752 1.232-1.075 2.096-1.225z" fill="#0172FA"/><path d="M58.919 114.345c-4.215-1.773-7.802-4.517-10.485-8.243-3.514-4.88-4.758-10.469-4.755-16.392 0-.574-.127-2.314.005-2.743.058-.188.107-.217.26-.322.192-.03.283-.012.465.057.19.4.077 4.126.1 4.95a27.222 27.222 0 00.713 5.312 26.897 26.897 0 00.928 3.083c2.262 6.134 6.817 10.729 12.71 13.443.012-.957.012-1.914 0-2.871l.012-17.305.012-4.55c.001-.489-.083-1.121 0-1.59.015-.091.039-.12.08-.193.172-.088.289-.058.47-.026.148.107.229.16.252.352.055.468-.042 1.039-.04 1.523.012 1.681.014 3.362.007 5.043-.038 5.666-.036 11.331.003 16.996 2.938.944 5.698 1.244 8.77 1.245l-.004 1.998-.002 1.212.003.891c-2.972-.082-6.03-.491-8.796-1.635.048 5.301.059 10.602.032 15.902-.005 3.044.06 6.104-.024 9.146-.28.074-.48.033-.76-.029-.09-8.413.013-16.84.044-25.254z" fill="#0C0C0C"/><path d="M59.656 110.869c2.939.944 5.699 1.244 8.771 1.245l-.005 1.998-.002 1.212c-2.906.285-6.064-.59-8.783-1.566a80.42 80.42 0 01.02-2.889zm-.029 3.711c2.765 1.145 5.825 1.553 8.797 1.635l.022 15.942c.005 2.48.09 4.982.013 7.457-.567-.006-1.14-.032-1.707-.006-1.45-.032-2.906-.018-4.358-.024-.9-.004-1.866-.072-2.758.044.084-3.042.018-6.101.024-9.146.026-5.3.015-10.601-.033-15.902z" fill="#0172FA"/></g><defs><clipPath id="clip0_8_1902"><path fill="#fff" d="M0 0h140v140H0z"/></clipPath></defs></svg>