<svg width="266" height="28" fill="none" xmlns="http://www.w3.org/2000/svg"><path d="M51.207 10.344c-.08-.745-.414-1.324-1.005-1.739-.585-.415-1.347-.622-2.284-.622-.66 0-1.225.1-1.696.298-.472.2-.833.469-1.083.81-.25.34-.378.73-.383 1.168 0 .363.082.678.247.945.17.268.4.495.69.682.29.182.611.336.963.46.352.126.708.23 1.066.316l1.636.409c.659.153 1.293.36 1.9.622a6.674 6.674 0 011.645.989c.489.397.875.878 1.16 1.44.284.563.426 1.222.426 1.977 0 1.023-.262 1.924-.784 2.702-.523.773-1.279 1.378-2.267 1.816-.983.431-2.174.647-3.572.647-1.358 0-2.536-.21-3.536-.63-.995-.42-1.773-1.035-2.336-1.841-.556-.807-.858-1.79-.903-2.95h3.11c.046.609.234 1.114.563 1.518.33.403.759.704 1.287.903.534.2 1.13.299 1.79.299.687 0 1.29-.103 1.807-.307.522-.21.931-.5 1.227-.87a2.1 2.1 0 00.452-1.312c-.006-.455-.14-.83-.4-1.125-.262-.301-.629-.551-1.1-.75a10.59 10.59 0 00-1.637-.546l-1.985-.511c-1.438-.37-2.574-.929-3.41-1.679-.83-.756-1.244-1.758-1.244-3.008 0-1.029.279-1.93.835-2.702.563-.773 1.327-1.372 2.293-1.798.966-.432 2.06-.648 3.281-.648 1.239 0 2.324.216 3.256.648.937.426 1.673 1.02 2.207 1.78.534.756.81 1.626.827 2.609h-3.043zm9.05 4.986V23H57.17V5.545h3.017v6.588h.154a3.787 3.787 0 011.423-1.747c.648-.431 1.471-.647 2.472-.647.909 0 1.701.19 2.377.57.676.381 1.2.938 1.569 1.671.374.733.562 1.628.562 2.685V23H65.66v-7.858c0-.88-.227-1.565-.682-2.054-.449-.494-1.08-.741-1.892-.741a2.98 2.98 0 00-1.466.357 2.507 2.507 0 00-1.006 1.015c-.238.443-.358.98-.358 1.61zm17.428 7.926c-1.312 0-2.446-.273-3.4-.819a5.54 5.54 0 01-2.19-2.335c-.512-1.011-.768-2.201-.768-3.57 0-1.347.256-2.53.767-3.546.518-1.023 1.24-1.818 2.165-2.387.926-.573 2.014-.86 3.264-.86.807 0 1.569.13 2.285.392a5.162 5.162 0 011.909 1.193c.556.54.994 1.227 1.312 2.062.318.83.477 1.819.477 2.966v.946h-10.73v-2.08h7.773c-.006-.59-.134-1.116-.384-1.576a2.794 2.794 0 00-1.048-1.1c-.443-.266-.96-.4-1.55-.4-.632 0-1.186.154-1.663.46a3.17 3.17 0 00-1.116 1.194 3.434 3.434 0 00-.4 1.61v1.816c0 .761.138 1.414.417 1.96.278.54.667.954 1.167 1.244.5.284 1.086.426 1.756.426.449 0 .855-.062 1.219-.187a2.7 2.7 0 00.946-.571c.267-.25.469-.56.605-.93l2.88.325a4.493 4.493 0 01-1.04 1.994c-.505.563-1.153 1-1.942 1.313-.79.306-1.694.46-2.71.46zm11.517-17.71V23h-3.085V5.545h3.085zm6.258 0V23h-3.086V5.545h3.086zm12.794 4.798c-.079-.745-.415-1.324-1.005-1.739-.586-.415-1.347-.622-2.285-.622-.659 0-1.224.1-1.696.298-.471.2-.832.469-1.082.81-.25.34-.378.73-.383 1.168 0 .363.082.678.247.945.17.268.4.495.69.682.29.182.611.336.963.46.352.126.708.23 1.065.316l1.637.409c.659.153 1.292.36 1.9.622a6.674 6.674 0 011.645.989c.489.397.875.878 1.159 1.44.284.563.427 1.222.427 1.977 0 1.023-.262 1.924-.785 2.702-.522.773-1.278 1.378-2.267 1.816-.983.431-2.173.647-3.571.647-1.358 0-2.537-.21-3.537-.63-.994-.42-1.772-1.035-2.335-1.841-.557-.807-.858-1.79-.903-2.95h3.111c.045.609.233 1.114.562 1.518.33.403.759.704 1.287.903a5.098 5.098 0 001.79.299c.687 0 1.29-.103 1.807-.307.522-.21.931-.5 1.227-.87.295-.375.446-.812.452-1.312-.006-.455-.14-.83-.401-1.125-.261-.301-.628-.551-1.099-.75a10.602 10.602 0 00-1.637-.546l-1.986-.511c-1.437-.37-2.573-.929-3.409-1.679-.83-.756-1.244-1.758-1.244-3.008 0-1.029.278-1.93.835-2.702.563-.773 1.327-1.372 2.293-1.798.966-.432 2.06-.648 3.281-.648 1.239 0 2.324.216 3.256.648.937.426 1.673 1.02 2.207 1.78.534.756.81 1.626.827 2.609h-3.043zm7.882 17.565c-.421 0-.81-.034-1.168-.102a4.343 4.343 0 01-.844-.222l.716-2.403c.449.13.85.193 1.202.187a1.47 1.47 0 00.929-.332c.273-.21.503-.563.69-1.057l.264-.707-4.747-13.364h3.273l3.017 9.886h.136l3.026-9.886h3.281l-5.241 14.676c-.245.693-.568 1.287-.972 1.781-.403.5-.898.881-1.483 1.143-.579.267-1.273.4-2.079.4zm14.995-12.58V23h-3.085V9.91h2.949v2.223h.153a3.748 3.748 0 011.441-1.747c.665-.431 1.486-.647 2.463-.647.903 0 1.69.193 2.361.58.676.385 1.199.945 1.568 1.678.375.733.559 1.622.554 2.668V23h-3.085v-7.858c0-.875-.228-1.56-.682-2.054-.449-.494-1.071-.741-1.867-.741-.539 0-1.02.119-1.44.357a2.476 2.476 0 00-.98 1.015c-.233.443-.35.98-.35 1.61zm17.25 7.927c-1.306 0-2.429-.287-3.366-.861a5.742 5.742 0 01-2.156-2.378c-.5-1.017-.75-2.188-.75-3.511 0-1.33.255-2.503.767-3.52.511-1.023 1.233-1.818 2.164-2.387.938-.573 2.046-.86 3.324-.86 1.063 0 2.003.196 2.821.588.824.386 1.48.934 1.969 1.645.489.704.767 1.528.835 2.471h-2.949a2.816 2.816 0 00-.852-1.576c-.443-.427-1.037-.64-1.781-.64-.631 0-1.185.17-1.662.512-.477.335-.849.818-1.116 1.448-.262.631-.392 1.387-.392 2.268 0 .892.13 1.659.392 2.3.261.637.627 1.129 1.099 1.475.477.341 1.037.511 1.679.511.455 0 .861-.085 1.219-.255.363-.176.667-.43.912-.759.244-.33.412-.73.502-1.201h2.949c-.074.926-.346 1.747-.818 2.463-.471.71-1.113 1.267-1.926 1.67-.812.398-1.767.597-2.864.597z" fill="#169FE7"/><path d="M164.854 23h-3.375l6.145-17.455h3.903L177.68 23h-3.375l-4.662-13.875h-.136L164.854 23zm.11-6.844h9.205v2.54h-9.205v-2.54zm17.964-.826V23h-3.085V9.91h2.949v2.223h.153a3.743 3.743 0 011.441-1.747c.664-.431 1.485-.647 2.463-.647.903 0 1.69.193 2.361.58.676.385 1.198.945 1.568 1.678.375.733.559 1.622.554 2.668V23h-3.086v-7.858c0-.875-.227-1.56-.681-2.054-.449-.494-1.071-.741-1.867-.741-.54 0-1.02.119-1.44.357a2.476 2.476 0 00-.98 1.015c-.233.443-.35.98-.35 1.61zm18.077-5.42v2.386h-7.526V9.909h7.526zm-5.668-3.137h3.086v12.29c0 .414.062.733.187.954.131.216.301.364.511.443.211.08.444.12.699.12.193 0 .37-.015.529-.043.164-.028.289-.054.375-.077l.52 2.412c-.165.057-.401.12-.708.188-.301.068-.67.108-1.108.119-.772.023-1.468-.094-2.088-.35a3.245 3.245 0 01-1.474-1.21c-.358-.545-.534-1.227-.529-2.045V6.773zM203.585 23V9.91h3.085V23h-3.085zm1.551-14.949a1.8 1.8 0 01-1.261-.486c-.352-.33-.528-.724-.528-1.184 0-.466.176-.861.528-1.185a1.78 1.78 0 011.261-.494c.495 0 .915.164 1.262.494.352.324.528.719.528 1.185 0 .46-.176.855-.528 1.184a1.781 1.781 0 01-1.262.486zm16.4 1.858L216.874 23h-3.409l-4.662-13.09h3.29l3.009 9.724h.136l3.017-9.725h3.281zM223.671 23V9.91h3.085V23h-3.085zm1.551-14.949a1.8 1.8 0 01-1.261-.486c-.352-.33-.528-.724-.528-1.184 0-.466.176-.861.528-1.185a1.78 1.78 0 011.261-.494c.495 0 .915.164 1.262.494.352.324.528.719.528 1.185 0 .46-.176.855-.528 1.184a1.781 1.781 0 01-1.262.486zM229.929 23V9.91h2.991v2.18h.137c.238-.755.648-1.337 1.227-1.746a3.378 3.378 0 012.003-.622c.17 0 .361.008.571.025.216.012.395.031.537.06v2.838a3.246 3.246 0 00-.622-.12 5.736 5.736 0 00-.81-.06c-.562 0-1.068.123-1.517.367a2.678 2.678 0 00-1.048.997c-.256.427-.384.918-.384 1.475V23h-3.085zm17.859-5.506V9.91h3.086V23h-2.992v-2.327h-.136a3.942 3.942 0 01-1.458 1.799c-.67.465-1.497.698-2.48.698-.858 0-1.616-.19-2.275-.57-.654-.387-1.165-.947-1.534-1.68-.37-.738-.554-1.63-.554-2.676V9.91h3.085v7.858c0 .83.227 1.489.682 1.977.454.489 1.051.733 1.789.733.455 0 .895-.11 1.321-.332a2.684 2.684 0 001.049-.989c.278-.443.417-.997.417-1.662zm16.605-4.125l-2.813.307a2.247 2.247 0 00-.417-.801 2.084 2.084 0 00-.784-.605c-.33-.153-.733-.23-1.211-.23-.642 0-1.181.139-1.619.417-.432.279-.645.64-.639 1.083-.006.38.133.69.417.929.29.238.767.434 1.432.588l2.233.477c1.239.267 2.159.69 2.762 1.27.608.58.914 1.338.92 2.276-.006.823-.247 1.55-.724 2.181-.472.625-1.128 1.114-1.969 1.466-.841.352-1.807.529-2.898.529-1.602 0-2.892-.335-3.869-1.006-.977-.676-1.56-1.616-1.747-2.821l3.008-.29c.137.591.426 1.037.869 1.338.444.301 1.02.452 1.731.452.733 0 1.321-.15 1.764-.452.449-.3.673-.673.673-1.116 0-.375-.145-.685-.435-.93-.284-.244-.727-.431-1.329-.562l-2.233-.468c-1.256-.262-2.185-.702-2.787-1.322-.602-.625-.901-1.414-.895-2.369-.006-.807.213-1.506.656-2.096.449-.597 1.071-1.057 1.867-1.381.801-.33 1.724-.494 2.77-.494 1.534 0 2.741.326 3.622.98.886.653 1.435 1.537 1.645 2.65z" fill="#0C0C0C"/><rect x="1" y="2" width="15" height="15" rx="3" fill="#0CA2E7"/><rect x="11" y="11" width="15" height="15" rx="3" fill="#1C4993"/><path d="M17.5 3.5c1.667.333 4.9 1.9 4.5 5.5M8.5 24.5C6.833 24.167 3.6 22.6 4 19M19 1c1.667.333 6 1.5 6 7.5M7 27c-1.667-.333-6-1.5-6-7.5" stroke="#000"/><path d="M17.207 8.344c-.08-.745-.414-1.324-1.005-1.739-.586-.415-1.347-.622-2.284-.622-.66 0-1.225.1-1.696.298-.472.2-.833.469-1.083.81-.25.34-.378.73-.383 1.168 0 .363.082.678.247.946.17.267.4.494.69.681.29.182.611.336.963.46.352.126.708.23 1.066.316l1.636.409c.659.153 1.293.36 1.9.622a6.656 6.656 0 011.645.989c.489.397.875.878 1.16 1.44.284.563.426 1.222.426 1.977 0 1.023-.262 1.924-.785 2.702-.522.773-1.278 1.378-2.267 1.816-.983.431-2.173.647-3.57.647-1.359 0-2.538-.21-3.538-.63-.994-.42-1.772-1.035-2.335-1.841-.556-.807-.858-1.79-.903-2.95h3.11c.046.609.234 1.114.563 1.518.33.403.759.704 1.287.903.534.2 1.13.299 1.79.299.687 0 1.29-.103 1.807-.307.523-.21.931-.5 1.227-.87a2.1 2.1 0 00.452-1.312c-.006-.455-.14-.83-.4-1.125-.262-.301-.629-.551-1.1-.75a10.59 10.59 0 00-1.637-.546l-1.986-.511c-1.437-.37-2.573-.929-3.409-1.679-.83-.756-1.244-1.758-1.244-3.008 0-1.029.279-1.93.835-2.702.563-.773 1.327-1.372 2.293-1.798.966-.432 2.06-.648 3.281-.648 1.239 0 2.324.216 3.256.648.937.426 1.673 1.02 2.207 1.78.534.756.81 1.626.827 2.609h-3.043z" fill="#fff"/></svg>