<svg width="323" height="34" fill="none" xmlns="http://www.w3.org/2000/svg"><path d="M61.804 12.69c-.096-.901-.502-1.603-1.218-2.105-.708-.503-1.63-.754-2.766-.754-.798 0-1.483.12-2.054.362-.57.24-1.008.567-1.31.98a2.384 2.384 0 00-.465 1.414c0 .44.1.822.3 1.146.206.323.484.598.835.826.351.22.74.405 1.167.557.426.151.856.279 1.29.382l1.982.495c.798.186 1.565.437 2.301.754a8.113 8.113 0 011.992 1.197 5.313 5.313 0 011.404 1.744c.344.682.516 1.48.516 2.395 0 1.239-.316 2.33-.95 3.272-.632.936-1.548 1.669-2.745 2.198-1.19.523-2.632.785-4.325.785-1.644 0-3.072-.255-4.283-.764-1.204-.51-2.147-1.252-2.828-2.23-.675-.976-1.04-2.167-1.094-3.57h3.767c.055.736.282 1.348.681 1.837.4.488.919.853 1.559 1.094.647.24 1.37.361 2.167.361.833 0 1.562-.124 2.189-.372.633-.254 1.128-.605 1.486-1.052.358-.455.54-.984.547-1.59-.007-.55-.169-1.005-.485-1.362-.317-.365-.76-.668-1.332-.909a12.836 12.836 0 00-1.981-.66l-2.405-.62c-1.741-.447-3.117-1.125-4.13-2.033-1.004-.915-1.506-2.13-1.506-3.643 0-1.246.337-2.337 1.011-3.272.682-.936 1.607-1.662 2.777-2.178 1.17-.523 2.494-.785 3.974-.785 1.5 0 2.814.262 3.943.785 1.135.516 2.026 1.235 2.673 2.157.647.915.98 1.968 1.001 3.158h-3.685zm10.96 6.039v9.289h-3.737V6.879h3.654v7.979h.186c.371-.895.946-1.6 1.723-2.116.785-.523 1.782-.785 2.994-.785 1.1 0 2.06.231 2.88.692.818.461 1.451 1.135 1.898 2.023.455.888.682 1.971.682 3.251v10.095h-3.737v-9.517c0-1.066-.275-1.895-.825-2.487-.544-.599-1.308-.898-2.292-.898-.66 0-1.252.144-1.775.433a3.035 3.035 0 00-1.218 1.229c-.29.536-.434 1.187-.434 1.95zm21.107 9.599c-1.59 0-2.962-.33-4.118-.991-1.15-.668-2.034-1.61-2.653-2.828-.62-1.225-.929-2.667-.929-4.325 0-1.631.31-3.062.93-4.294.625-1.239 1.5-2.202 2.62-2.89 1.123-.695 2.44-1.043 3.954-1.043.977 0 1.9.159 2.766.475a6.26 6.26 0 012.312 1.445c.675.654 1.204 1.487 1.59 2.498.385 1.005.578 2.202.578 3.592v1.146H87.926v-2.519h9.413c-.007-.715-.162-1.352-.464-1.91a3.378 3.378 0 00-1.27-1.33c-.537-.324-1.163-.486-1.878-.486-.764 0-1.435.186-2.013.558a3.84 3.84 0 00-1.352 1.445 4.159 4.159 0 00-.485 1.95v2.199c0 .922.168 1.713.505 2.374a3.608 3.608 0 001.414 1.507c.606.344 1.315.516 2.127.516a4.52 4.52 0 001.476-.227c.44-.158.822-.389 1.145-.692a2.88 2.88 0 00.733-1.125l3.489.392a5.438 5.438 0 01-1.26 2.416c-.612.681-1.396 1.21-2.353 1.59-.956.37-2.05.557-3.282.557zm13.947-21.449v21.139h-3.736V6.879h3.736zm7.579 0v21.139h-3.736V6.879h3.736zm15.495 5.811c-.096-.901-.502-1.603-1.218-2.105-.708-.503-1.63-.754-2.766-.754-.798 0-1.483.12-2.054.362-.571.24-1.008.567-1.311.98a2.39 2.39 0 00-.464 1.414c0 .44.1.822.299 1.146.207.323.485.598.836.826.351.22.74.405 1.167.557.426.151.856.279 1.29.382l1.982.495c.798.186 1.565.437 2.301.754a8.118 8.118 0 011.992 1.197 5.31 5.31 0 011.404 1.744c.344.682.516 1.48.516 2.395 0 1.239-.316 2.33-.949 3.272-.634.936-1.549 1.669-2.746 2.198-1.19.523-2.632.785-4.325.785-1.644 0-3.072-.255-4.283-.764-1.204-.51-2.147-1.252-2.828-2.23-.675-.976-1.039-2.167-1.094-3.57h3.767c.055.736.282 1.348.681 1.837.399.488.919.853 1.559 1.094.647.24 1.369.361 2.167.361.833 0 1.562-.124 2.188-.372.634-.254 1.129-.605 1.487-1.052.358-.455.54-.984.547-1.59-.007-.55-.169-1.005-.485-1.362-.317-.365-.761-.668-1.332-.909a12.828 12.828 0 00-1.982-.66l-2.405-.62c-1.74-.447-3.117-1.125-4.128-2.033-1.005-.915-1.507-2.13-1.507-3.643 0-1.246.337-2.337 1.011-3.272.682-.936 1.607-1.662 2.777-2.178 1.17-.523 2.494-.785 3.974-.785 1.5 0 2.814.262 3.943.785 1.135.516 2.026 1.235 2.673 2.157.647.915.98 1.968 1.001 3.158h-3.685zm9.545 21.273c-.509 0-.98-.041-1.414-.124a5.26 5.26 0 01-1.022-.268l.867-2.91c.544.158 1.029.233 1.456.226a1.788 1.788 0 001.125-.402c.33-.255.609-.681.836-1.28l.32-.857-5.749-16.184h3.963l3.654 11.973h.165l3.664-11.973h3.974l-6.348 17.774c-.296.84-.688 1.558-1.176 2.157a4.79 4.79 0 01-1.796 1.383c-.702.323-1.542.485-2.519.485zm18.161-15.235v9.29h-3.736V12.164h3.571v2.694h.186a4.534 4.534 0 011.744-2.116c.805-.523 1.8-.785 2.983-.785 1.094 0 2.047.234 2.859.702.819.468 1.452 1.146 1.899 2.034.455.887.678 1.964.671 3.23v10.095h-3.736v-9.517c0-1.06-.275-1.888-.826-2.487-.543-.599-1.297-.898-2.26-.898-.654 0-1.235.144-1.745.433a3.008 3.008 0 00-1.187 1.229c-.282.536-.423 1.187-.423 1.95zm20.891 9.6c-1.582 0-2.942-.348-4.077-1.043-1.128-.695-1.999-1.655-2.611-2.88-.606-1.231-.909-2.649-.909-4.252 0-1.61.31-3.031.929-4.263.62-1.239 1.494-2.202 2.622-2.89 1.135-.695 2.477-1.043 4.026-1.043 1.286 0 2.425.238 3.416.713.998.468 1.793 1.132 2.384 1.992.592.853.929 1.85 1.012 2.993h-3.571a3.416 3.416 0 00-1.033-1.91c-.536-.515-1.255-.774-2.157-.774-.764 0-1.435.207-2.013.62-.578.406-1.028.99-1.352 1.754-.316.764-.475 1.68-.475 2.746 0 1.08.159 2.01.475 2.787.317.77.761 1.366 1.332 1.785.578.413 1.256.62 2.033.62.551 0 1.043-.104 1.476-.31.441-.213.809-.52 1.105-.918.295-.4.498-.885.609-1.456h3.571c-.09 1.122-.42 2.116-.991 2.983-.571.86-1.349 1.535-2.333 2.023-.984.482-2.14.723-3.468.723z" fill="#169FE7"/><path d="M199.438 28.018h-4.087l7.442-21.139h4.727l7.452 21.139h-4.087l-5.646-16.804h-.165l-5.636 16.804zm.134-8.288h11.148v3.075h-11.148V19.73zm21.756-1.002v9.29h-3.736V12.164h3.571v2.694h.186a4.528 4.528 0 011.744-2.116c.805-.523 1.799-.785 2.983-.785 1.094 0 2.047.234 2.859.702.819.468 1.452 1.146 1.899 2.034.454.887.678 1.964.671 3.23v10.095h-3.736v-9.517c0-1.06-.276-1.888-.826-2.487-.544-.599-1.297-.898-2.261-.898-.653 0-1.235.144-1.744.433a3.008 3.008 0 00-1.187 1.229c-.282.536-.423 1.187-.423 1.95zm21.892-6.564v2.89h-9.114v-2.89h9.114zm-6.864-3.798h3.737v14.883c0 .503.075.888.227 1.156.158.262.364.44.619.537.255.096.537.145.846.145.234 0 .448-.018.64-.052.2-.034.351-.065.455-.093l.629 2.921a8.267 8.267 0 01-.857.227 7 7 0 01-1.341.145c-.936.027-1.779-.114-2.529-.424a3.938 3.938 0 01-1.786-1.465c-.433-.66-.647-1.486-.64-2.477V8.366zm9.989 19.652V12.164h3.736v15.854h-3.736zm1.879-18.104a2.18 2.18 0 01-1.528-.589c-.427-.399-.64-.877-.64-1.434 0-.564.213-1.043.64-1.435a2.16 2.16 0 011.528-.599c.598 0 1.107.2 1.527.6.427.391.64.87.64 1.434 0 .557-.213 1.035-.64 1.434-.42.393-.929.589-1.527.589zm19.861 2.25l-5.646 15.854h-4.129l-5.646-15.854h3.985l3.643 11.777h.165l3.654-11.777h3.974zm2.586 15.854V12.164h3.736v15.854h-3.736zm1.878-18.104a2.18 2.18 0 01-1.528-.589c-.426-.399-.639-.877-.639-1.434 0-.564.213-1.043.639-1.435a2.16 2.16 0 011.528-.599c.599 0 1.108.2 1.528.6.426.391.64.87.64 1.434 0 .557-.214 1.035-.64 1.434-.42.393-.929.589-1.528.589zm5.7 18.104V12.164h3.623v2.642h.165c.289-.915.785-1.62 1.487-2.116.708-.502 1.517-.753 2.425-.753.207 0 .437.01.692.03.261.015.478.039.65.073v3.437c-.158-.055-.409-.103-.754-.144a6.925 6.925 0 00-.98-.073c-.681 0-1.294.148-1.837.444a3.25 3.25 0 00-1.27 1.208c-.31.516-.464 1.111-.464 1.786v9.32h-3.737zm21.629-6.668v-9.186h3.737v15.854h-3.623V25.2h-.165c-.358.888-.947 1.614-1.765 2.178-.812.564-1.814.846-3.004.846-1.039 0-1.958-.23-2.756-.691-.791-.468-1.411-1.146-1.858-2.034-.447-.894-.671-1.974-.671-3.24V12.164h3.737v9.516c0 1.005.275 1.803.825 2.395.551.592 1.273.888 2.168.888.551 0 1.084-.134 1.6-.403a3.25 3.25 0 001.269-1.197c.338-.537.506-1.208.506-2.013zm20.109-4.995l-3.406.371a2.729 2.729 0 00-.506-.97 2.51 2.51 0 00-.949-.733c-.399-.186-.888-.279-1.466-.279-.777 0-1.431.169-1.961.506-.523.337-.781.774-.774 1.311-.007.461.162.836.506 1.125.351.289.929.526 1.734.712l2.704.578c1.5.324 2.615.836 3.344 1.538.736.702 1.108 1.62 1.115 2.756-.007.998-.299 1.879-.877 2.642-.572.757-1.366 1.35-2.385 1.776-1.018.426-2.188.64-3.509.64-1.941 0-3.503-.406-4.686-1.218-1.184-.82-1.889-1.958-2.116-3.417l3.644-.35c.165.715.516 1.255 1.052 1.62.537.364 1.236.547 2.096.547.887 0 1.599-.183 2.136-.547.544-.365.816-.816.816-1.352 0-.454-.176-.83-.527-1.125-.344-.296-.881-.523-1.61-.682l-2.704-.567c-1.521-.317-2.646-.85-3.375-1.6-.73-.757-1.091-1.714-1.084-2.87-.007-.977.258-1.823.795-2.539.543-.722 1.297-1.28 2.26-1.672.97-.399 2.088-.598 3.355-.598 1.857 0 3.32.395 4.386 1.187 1.074.79 1.738 1.86 1.992 3.21z" fill="#0C0C0C"/><rect x="1" y="3.018" width="18.166" height="18.166" rx="3.633" fill="#0CA2E7"/><rect x="13.111" y="13.918" width="18.166" height="18.166" rx="3.633" fill="#1C4993"/><path d="M20.983 4.835c2.018.403 5.934 2.3 5.45 6.66m-16.35 18.772c-2.018-.404-5.934-2.3-5.45-6.66M22.8 1.807c2.018.404 7.266 1.817 7.266 9.083M8.267 33.295C6.248 32.89 1 31.478 1 24.212" stroke="#000" stroke-width="1.211"/><path d="M20.629 10.268c-.097-.901-.503-1.603-1.218-2.105-.71-.503-1.631-.754-2.767-.754-.798 0-1.482.12-2.053.361-.572.241-1.009.568-1.311.98a2.384 2.384 0 00-.465 1.415c0 .44.1.822.3 1.146.206.323.485.598.835.825.352.22.74.406 1.167.558.426.151.857.278 1.29.382l1.982.495c.798.186 1.565.437 2.302.754a8.11 8.11 0 011.992 1.197 5.313 5.313 0 011.403 1.744c.344.682.517 1.48.517 2.395 0 1.238-.317 2.33-.95 3.272-.633.936-1.548 1.669-2.746 2.198-1.19.523-2.632.785-4.325.785-1.644 0-3.072-.255-4.283-.764-1.204-.51-2.147-1.252-2.828-2.23-.674-.977-1.04-2.167-1.094-3.57h3.767c.055.735.282 1.348.681 1.837.4.488.92.853 1.559 1.094.647.24 1.37.36 2.168.36.832 0 1.562-.123 2.188-.37.633-.255 1.128-.606 1.486-1.053.358-.455.54-.985.547-1.59-.007-.55-.168-1.005-.485-1.363-.317-.364-.76-.667-1.332-.908a12.834 12.834 0 00-1.981-.66l-2.405-.62c-1.741-.447-3.117-1.125-4.129-2.033-1.004-.915-1.507-2.13-1.507-3.644 0-1.245.337-2.336 1.012-3.272.681-.935 1.607-1.661 2.776-2.177 1.17-.523 2.495-.785 3.974-.785 1.5 0 2.814.262 3.943.785 1.135.516 2.026 1.235 2.673 2.157.647.915.98 1.968 1.001 3.158H20.63z" fill="#fff"/></svg>