<svg width="155" height="41" fill="none" xmlns="http://www.w3.org/2000/svg"><path d="M34.68 14.352c3.38 0 6.12 2.753 6.12 6.15 0 3.396-2.74 6.15-6.12 6.15H6.12c-3.38 0-6.12-2.754-6.12-6.15 0-3.397 2.74-6.15 6.12-6.15h28.56z" fill="#1886FE"/><path d="M14.28 6.15C14.28 2.753 17.02 0 20.4 0s6.12 2.753 6.12 6.15v28.7c0 3.397-2.74 6.15-6.12 6.15s-6.12-2.753-6.12-6.15V6.15z" fill="#1886FE"/><path d="M14.28 6.15C14.28 2.753 17.02 0 20.4 0s6.12 2.753 6.12 6.15v28.7c0 3.397-2.74 6.15-6.12 6.15s-6.12-2.753-6.12-6.15V6.15z" fill="#fff" fill-opacity=".4" style="mix-blend-mode:screen"/><path d="M34.826 26.299a6.172 6.172 0 010 8.698 6.1 6.1 0 01-8.655 0L5.975 14.702a6.172 6.172 0 010-8.698 6.1 6.1 0 018.655 0L34.826 26.3z" fill="#1886FE"/><path d="M34.826 26.299a6.172 6.172 0 010 8.698 6.1 6.1 0 01-8.655 0L5.975 14.702a6.172 6.172 0 010-8.698 6.1 6.1 0 018.655 0L34.826 26.3z" fill="#fff" fill-opacity=".2" style="mix-blend-mode:soft-light"/><path d="M26.17 6.004a6.1 6.1 0 018.656 0 6.172 6.172 0 010 8.698L14.63 34.997a6.1 6.1 0 01-8.655 0 6.172 6.172 0 010-8.698L26.171 6.004z" fill="#1886FE"/><path d="M26.17 6.004a6.1 6.1 0 018.656 0 6.172 6.172 0 010 8.698L14.63 34.997a6.1 6.1 0 01-8.655 0 6.172 6.172 0 010-8.698L26.171 6.004z" fill="#fff" fill-opacity=".3" style="mix-blend-mode:overlay"/><path fill-rule="evenodd" clip-rule="evenodd" d="M20.4 6.148a.818.818 0 00-.816.82v10.759c0 .248 0 .372-.049.43a.203.203 0 01-.17.071c-.076-.006-.163-.094-.338-.27l-7.57-7.606a.813.813 0 00-1.154 0 .823.823 0 000 1.16l7.57 7.607c.175.175.262.263.268.338a.205.205 0 01-.07.172c-.058.05-.182.05-.429.05H6.936a.818.818 0 00-.816.82c0 .452.365.82.816.82h10.706c.247 0 .37 0 .428.049.05.042.076.106.071.172-.006.075-.093.163-.268.338l-7.57 7.608a.823.823 0 000 1.16c.318.32.835.32 1.154 0l7.57-7.608c.175-.176.262-.263.337-.27a.204.204 0 01.171.072c.05.057.05.182.05.43v10.758c0 .453.364.82.815.82.45 0 .816-.367.816-.82V23.27c0-.248 0-.373.049-.43a.204.204 0 01.171-.071c.075.006.163.093.337.269l7.57 7.607c.32.32.836.32 1.155 0a.823.823 0 000-1.16l-7.57-7.607c-.175-.175-.263-.263-.269-.338a.206.206 0 01.071-.172c.057-.05.18-.05.428-.05h10.706c.45 0 .816-.367.816-.82a.818.818 0 00-.816-.82H23.158c-.247 0-.37 0-.428-.049a.205.205 0 01-.07-.172c.005-.075.093-.163.267-.338l7.57-7.608a.823.823 0 000-1.16.813.813 0 00-1.153 0l-7.57 7.608c-.175.175-.263.263-.338.27a.203.203 0 01-.171-.072c-.049-.058-.049-.182-.049-.43V6.968a.818.818 0 00-.816-.82z" fill="#fff"/><path d="M54.963 30h-3.375l6.145-17.454h3.903L67.79 30h-3.375l-4.662-13.875h-.136L54.963 30zm.11-6.844h9.205v2.54h-9.204v-2.54zm17.965-.826V30h-3.086V16.91h2.95v2.224h.153a3.741 3.741 0 011.44-1.748c.665-.431 1.486-.647 2.463-.647.904 0 1.69.193 2.36.58.677.386 1.2.945 1.57 1.678.374.733.559 1.622.553 2.668V30h-3.085v-7.858c0-.875-.227-1.56-.682-2.054-.449-.494-1.071-.741-1.867-.741-.54 0-1.02.119-1.44.357a2.482 2.482 0 00-.98 1.015c-.233.443-.35.98-.35 1.61zm18.076-5.42v2.386H83.59v-2.387h7.525zm-5.667-3.137h3.085v12.29c0 .414.063.733.188.954.13.216.3.364.51.443.211.08.444.12.7.12.193 0 .369-.015.528-.043.165-.028.29-.054.375-.077l.52 2.412c-.165.057-.4.12-.707.188-.302.068-.67.108-1.108.119-.773.023-1.47-.094-2.088-.35a3.248 3.248 0 01-1.475-1.21c-.358-.545-.534-1.227-.528-2.045V13.773zM93.695 30V16.91h3.085V30h-3.085zm1.55-14.949a1.8 1.8 0 01-1.26-.486c-.353-.33-.529-.724-.529-1.184 0-.466.176-.861.528-1.185.353-.33.773-.494 1.262-.494.494 0 .915.165 1.261.494.352.324.528.719.528 1.185 0 .46-.176.855-.528 1.184a1.78 1.78 0 01-1.261.486zm16.401 1.858L106.984 30h-3.409l-4.662-13.09h3.289l3.009 9.724h.136l3.017-9.725h3.282zM113.781 30V16.91h3.085V30h-3.085zm1.551-14.949c-.489 0-.909-.162-1.262-.486-.352-.33-.528-.724-.528-1.184 0-.466.176-.861.528-1.185.353-.33.773-.494 1.262-.494.494 0 .914.165 1.261.494.352.324.528.719.528 1.185 0 .46-.176.855-.528 1.184a1.78 1.78 0 01-1.261.486zM120.038 30V16.91h2.992v2.18h.136c.239-.755.648-1.337 1.227-1.746a3.38 3.38 0 012.003-.622c.171 0 .361.008.571.025.216.012.395.031.537.06v2.838a3.23 3.23 0 00-.622-.12 5.714 5.714 0 00-.81-.06c-.562 0-1.068.123-1.517.367a2.684 2.684 0 00-1.048.997c-.256.427-.383.918-.383 1.475V30h-3.086zm17.86-5.506V16.91h3.085V30h-2.992v-2.327h-.136a3.934 3.934 0 01-1.457 1.799c-.671.465-1.497.698-2.48.698-.858 0-1.617-.19-2.276-.57-.653-.387-1.165-.947-1.534-1.68-.369-.738-.554-1.63-.554-2.676V16.91h3.085v7.858c0 .83.227 1.489.682 1.977.455.489 1.051.733 1.79.733.454 0 .895-.11 1.321-.332a2.688 2.688 0 001.048-.989c.279-.443.418-.997.418-1.662zm16.604-4.125l-2.812.307a2.266 2.266 0 00-.418-.801 2.076 2.076 0 00-.784-.605c-.33-.154-.733-.23-1.21-.23-.642 0-1.182.139-1.62.417-.431.279-.645.64-.639 1.083-.006.38.134.69.418.929.29.238.767.434 1.432.588l2.233.477c1.238.267 2.159.69 2.761 1.27.608.58.915 1.338.92 2.276a3.557 3.557 0 01-.724 2.181c-.472.625-1.128 1.114-1.969 1.466-.841.352-1.807.529-2.898.529-1.602 0-2.892-.335-3.869-1.006-.977-.676-1.56-1.616-1.747-2.821l3.009-.29c.136.591.426 1.037.869 1.338.443.301 1.02.452 1.73.452.733 0 1.321-.15 1.764-.452.449-.3.673-.673.673-1.116 0-.375-.144-.685-.434-.93-.284-.244-.727-.431-1.33-.562l-2.233-.468c-1.255-.262-2.184-.702-2.787-1.322-.602-.625-.9-1.414-.895-2.369-.005-.807.214-1.506.657-2.096.449-.597 1.071-1.057 1.866-1.381.801-.33 1.725-.494 2.77-.494 1.534 0 2.742.326 3.622.98.887.653 1.435 1.537 1.645 2.65z" fill="#3E9AFF"/></svg>