<svg width="23" height="19" fill="none" xmlns="http://www.w3.org/2000/svg"><path d="M22.496 2.799c-.789.338-1.69.564-2.593.676.902-.563 1.691-1.465 2.03-2.48-.902.564-1.804.902-2.932 1.127-.789-.902-2.029-1.465-3.269-1.465-2.48 0-4.51 2.03-4.51 4.51 0 .338 0 .676.114 1.014a13.288 13.288 0 01-9.357-4.735c-.339.676-.564 1.466-.564 2.255 0 1.578.79 2.931 2.03 3.72-.79 0-1.466-.225-2.03-.563 0 2.142 1.578 4.058 3.607 4.397-.338.112-.789.112-1.24.112-.338 0-.563 0-.901-.113.563 1.804 2.254 3.157 4.283 3.157-1.578 1.24-3.494 1.917-5.636 1.917-.338 0-.677 0-1.128-.113 2.03 1.24 4.397 2.03 6.99 2.03 8.342 0 12.851-6.878 12.851-12.853v-.564c.902-.338 1.692-1.127 2.255-2.03z" fill="#fff"/></svg>