<svg width="20" height="20" fill="none" xmlns="http://www.w3.org/2000/svg"><path d="M16.872.53H3.162C1.614.53.435 1.71.435 3.257v13.711c0 1.549 1.179 2.728 2.727 2.728h13.71c1.548 0 2.727-1.18 2.727-2.728V3.258C19.6 1.708 18.42.53 16.872.53zm-6.855 15.333c3.17 0 5.75-2.507 5.75-5.529 0-.516-.074-1.106-.222-1.548h1.622V16.6a.739.739 0 01-.737.737H3.604a.739.739 0 01-.737-.737V8.712h1.695a5.612 5.612 0 00-.22 1.548c-.074 3.096 2.505 5.603 5.675 5.603zm0-2.212c-2.064 0-3.686-1.621-3.686-3.612 0-1.99 1.622-3.612 3.686-3.612s3.685 1.622 3.685 3.612c0 2.064-1.621 3.612-3.685 3.612zm7.076-7.887c0 .442-.368.81-.81.81h-2.065a.818.818 0 01-.81-.81v-1.99c0-.443.368-.812.81-.812h2.064c.443 0 .811.369.811.811v1.99z" fill="#fff"/></svg>